/* XPM */
static char * 111_xpm[] = {
"32 32 597 2",
"  	c #DADADA",
". 	c #D6D6D6",
"+ 	c #D8D8D8",
"@ 	c #D9D9D9",
"# 	c #D2D3D2",
"$ 	c #939D8F",
"% 	c #AEB4AC",
"& 	c #B9BDB8",
"* 	c #D1D2D1",
"= 	c #D6D7D6",
"- 	c #BABBBA",
"; 	c #BCBFBB",
"> 	c #8D988A",
", 	c #919B8D",
"' 	c #B8BCB6",
") 	c #C5C8C4",
"! 	c #D3D4D3",
"~ 	c #D5D6D5",
"{ 	c #B3B8B1",
"] 	c #A3A3A3",
"^ 	c #D8D9D8",
"/ 	c #D4D4D4",
"( 	c #C1C3C0",
"_ 	c #8E968C",
": 	c #8E958C",
"< 	c #405B35",
"[ 	c #435C38",
"} 	c #BFC1BE",
"| 	c #56704C",
"1 	c #7A8A75",
"2 	c #A9AFA7",
"3 	c #868E84",
"4 	c #D4D5D4",
"5 	c #CCCECC",
"6 	c #A7AEA5",
"7 	c #ADB3AB",
"8 	c #818F7D",
"9 	c #D5D5D4",
"0 	c #D7D7D7",
"a 	c #B5BAB3",
"b 	c #D6D6D5",
"c 	c #BABDB8",
"d 	c #849081",
"e 	c #64745E",
"f 	c #778772",
"g 	c #546A4D",
"h 	c #425C39",
"i 	c #3D5B30",
"j 	c #4C6742",
"k 	c #4E6B42",
"l 	c #546F49",
"m 	c #808E7C",
"n 	c #6A7E63",
"o 	c #9AA397",
"p 	c #909B8D",
"q 	c #BCC1BC",
"r 	c #8B9686",
"s 	c #6F8269",
"t 	c #D0D1CF",
"u 	c #C1C4C0",
"v 	c #C5C8C5",
"w 	c #C8CAC7",
"x 	c #B2B7B0",
"y 	c #D3D3D3",
"z 	c #BFC2BE",
"A 	c #C3C6C2",
"B 	c #97A094",
"C 	c #879084",
"D 	c #8D9789",
"E 	c #61725B",
"F 	c #355328",
"G 	c #61735C",
"H 	c #4D6942",
"I 	c #62775A",
"J 	c #546B4C",
"K 	c #4C693F",
"L 	c #49683C",
"M 	c #73856E",
"N 	c #8F9A8B",
"O 	c #516D46",
"P 	c #56704D",
"Q 	c #677C60",
"R 	c #788673",
"S 	c #CDCFCD",
"T 	c #A1A99F",
"U 	c #AEB4AD",
"V 	c #CFD1CF",
"W 	c #A0A89E",
"X 	c #849180",
"Y 	c #CFD0CE",
"Z 	c #D0D1D0",
"` 	c #A5AAA4",
" .	c #6E7C69",
"..	c #5A7151",
"+.	c #6A7D63",
"@.	c #7C8A76",
"#.	c #989F96",
"$.	c #64785C",
"%.	c #62735B",
"&.	c #3F5A34",
"*.	c #3A572E",
"=.	c #415D35",
"-.	c #405E33",
";.	c #49623F",
">.	c #435D39",
",.	c #446038",
"'.	c #4D6A41",
").	c #4A683D",
"!.	c #4E6A42",
"~.	c #687C61",
"{.	c #506C45",
"].	c #506C46",
"^.	c #828D7F",
"/.	c #73846D",
"(.	c #657A5D",
"_.	c #75866F",
":.	c #597250",
"<.	c #7B8A76",
"[.	c #788873",
"}.	c #9FA79C",
"|.	c #596B53",
"1.	c #4C6244",
"2.	c #365328",
"3.	c #365429",
"4.	c #4F6746",
"5.	c #4C6442",
"6.	c #596E51",
"7.	c #5A7251",
"8.	c #455F39",
"9.	c #5E7355",
"0.	c #54694C",
"a.	c #526949",
"b.	c #576E4E",
"c.	c #47643B",
"d.	c #516948",
"e.	c #436137",
"f.	c #3F5D32",
"g.	c #48663C",
"h.	c #49673D",
"i.	c #456139",
"j.	c #4D6A42",
"k.	c #48613F",
"l.	c #425C37",
"m.	c #49663D",
"n.	c #506B45",
"o.	c #546F4A",
"p.	c #4B693F",
"q.	c #5F7657",
"r.	c #3D5832",
"s.	c #3E5B32",
"t.	c #406032",
"u.	c #3A592D",
"v.	c #3F5E32",
"w.	c #3A582D",
"x.	c #38562B",
"y.	c #446237",
"z.	c #456238",
"A.	c #48673B",
"B.	c #46613A",
"C.	c #4C6840",
"D.	c #506B44",
"E.	c #4C6940",
"F.	c #48653C",
"G.	c #456138",
"H.	c #405A35",
"I.	c #445E39",
"J.	c #425C38",
"K.	c #4D6841",
"L.	c #39562C",
"M.	c #3E5932",
"N.	c #425B37",
"O.	c #45603A",
"P.	c #48673C",
"Q.	c #3F5E33",
"R.	c #38562A",
"S.	c #4B683F",
"T.	c #5D7454",
"U.	c #4C6443",
"V.	c #47663A",
"W.	c #3E6030",
"X.	c #375629",
"Y.	c #365428",
"Z.	c #38572A",
"`.	c #3C5C2D",
" +	c #3D5D2F",
".+	c #3E5B31",
"++	c #4A663F",
"@+	c #46603B",
"#+	c #48613E",
"$+	c #3F5D33",
"%+	c #3F5B32",
"&+	c #49643D",
"*+	c #39562D",
"=+	c #4A6141",
"-+	c #425F37",
";+	c #46613B",
">+	c #4D6943",
",+	c #526C49",
"'+	c #3A572C",
")+	c #475F3E",
"!+	c #46603C",
"~+	c #556F4C",
"{+	c #677B60",
"]+	c #48673A",
"^+	c #406231",
"/+	c #3D5E2E",
"(+	c #3C5D2D",
"_+	c #38582A",
":+	c #3E5D30",
"<+	c #47663B",
"[+	c #3B582D",
"}+	c #496440",
"|+	c #446139",
"1+	c #46653A",
"2+	c #57704E",
"3+	c #436334",
"4+	c #405E32",
"5+	c #415E34",
"6+	c #4A6540",
"7+	c #4A6240",
"8+	c #4D6345",
"9+	c #4C6343",
"0+	c #4B6241",
"a+	c #405E34",
"b+	c #3B572F",
"c+	c #4E6A43",
"d+	c #57704D",
"e+	c #6F8169",
"f+	c #456636",
"g+	c #3E5F2E",
"h+	c #3F612F",
"i+	c #436433",
"j+	c #426235",
"k+	c #456438",
"l+	c #3D5B31",
"m+	c #3B572E",
"n+	c #37552A",
"o+	c #3D5A2F",
"p+	c #4A673D",
"q+	c #436434",
"r+	c #59724F",
"s+	c #516D47",
"t+	c #415F34",
"u+	c #446238",
"v+	c #446334",
"w+	c #4A6441",
"x+	c #415C37",
"y+	c #4D6544",
"z+	c #4A653F",
"A+	c #4D6642",
"B+	c #47653B",
"C+	c #456039",
"D+	c #697D62",
"E+	c #72836C",
"F+	c #456637",
"G+	c #375529",
"H+	c #3F602F",
"I+	c #436533",
"J+	c #48683B",
"K+	c #4E6B43",
"L+	c #49683D",
"M+	c #4B693E",
"N+	c #416034",
"O+	c #446335",
"P+	c #466639",
"Q+	c #526D47",
"R+	c #47673A",
"S+	c #416033",
"T+	c #365529",
"U+	c #526C46",
"V+	c #456536",
"W+	c #62775B",
"X+	c #536D4A",
"Y+	c #667B5F",
"Z+	c #49673C",
"`+	c #62735C",
" @	c #4C6941",
".@	c #4C6A40",
"+@	c #687C60",
"@@	c #566F4B",
"#@	c #57714E",
"$@	c #536D49",
"%@	c #4A683C",
"&@	c #426432",
"*@	c #406330",
"=@	c #3F622F",
"-@	c #38572B",
";@	c #3E612E",
">@	c #566F4A",
",@	c #4C6841",
"'@	c #506A46",
")@	c #425F36",
"!@	c #47653A",
"~@	c #57714D",
"{@	c #4A693D",
"]@	c #435F38",
"^@	c #4A693E",
"/@	c #4D6A40",
"(@	c #516D45",
"_@	c #5B7351",
":@	c #627859",
"<@	c #446434",
"[@	c #607656",
"}@	c #4B683D",
"|@	c #416431",
"1@	c #456535",
"2@	c #3F612E",
"3@	c #47633B",
"4@	c #3A5A2A",
"5@	c #3F622E",
"6@	c #466638",
"7@	c #566A4F",
"8@	c #3B562F",
"9@	c #4D6344",
"0@	c #516C46",
"a@	c #8C9888",
"b@	c #6C7E65",
"c@	c #556F4B",
"d@	c #63785A",
"e@	c #98A194",
"f@	c #6D7F66",
"g@	c #8B9687",
"h@	c #49673B",
"i@	c #4D673A",
"j@	c #A49C91",
"k@	c #71826B",
"l@	c #3F632F",
"m@	c #3B5C2B",
"n@	c #3A592C",
"o@	c #58714E",
"p@	c #7F8C7B",
"q@	c #5F7159",
"r@	c #6B7966",
"s@	c #546D4A",
"t@	c #63785B",
"u@	c #5A7250",
"v@	c #6B7F65",
"w@	c #74856E",
"x@	c #9CA599",
"y@	c #617758",
"z@	c #526A49",
"A@	c #687861",
"B@	c #A6ADA4",
"C@	c #C8C9C7",
"D@	c #657A5E",
"E@	c #4F6944",
"F@	c #466331",
"G@	c #A5998D",
"H@	c #967E6B",
"I@	c #8D9484",
"J@	c #446534",
"K@	c #416332",
"L@	c #6A7C61",
"M@	c #9B9283",
"N@	c #667A5F",
"O@	c #576F4D",
"P@	c #65765E",
"Q@	c #5B6D54",
"R@	c #C3C6C3",
"S@	c #617759",
"T@	c #C0C3BF",
"U@	c #536E49",
"V@	c #828F7E",
"W@	c #596F4F",
"X@	c #C6C8C5",
"Y@	c #859181",
"Z@	c #72836B",
"`@	c #80836D",
" #	c #93745A",
".#	c #736942",
"+#	c #979B8E",
"@#	c #6E7F66",
"##	c #4D6B41",
"$#	c #446433",
"%#	c #49683B",
"&#	c #697C60",
"*#	c #9E8E7E",
"=#	c #A08F7F",
"-#	c #65785A",
";#	c #9AA396",
">#	c #5A6C54",
",#	c #4D6941",
"'#	c #CECFCE",
")#	c #5D7254",
"!#	c #758271",
"~#	c #D0D2D0",
"{#	c #939D90",
"]#	c #859281",
"^#	c #8C9383",
"/#	c #9D8370",
"(#	c #969688",
"_#	c #64795C",
":#	c #4F6B43",
"<#	c #607251",
"[#	c #8F755A",
"}#	c #937A62",
"|#	c #7D7151",
"1#	c #959D8F",
"2#	c #8A9586",
"3#	c #586E4F",
"4#	c #667860",
"5#	c #4F6B44",
"6#	c #CDCECC",
"7#	c #98A296",
"8#	c #5E7556",
"9#	c #5A7050",
"0#	c #8D958A",
"a#	c #D2D4D2",
"b#	c #8C9889",
"c#	c #889584",
"d#	c #879180",
"e#	c #998876",
"f#	c #94755B",
"g#	c #7F8774",
"h#	c #697C61",
"i#	c #59714F",
"j#	c #446535",
"k#	c #426330",
"l#	c #5D7453",
"m#	c #848E7F",
"n#	c #5E6E4A",
"o#	c #6D7455",
"p#	c #5F714F",
"q#	c #4D673B",
"r#	c #959D91",
"s#	c #4C6243",
"t#	c #7D8A78",
"u#	c #8E9A8B",
"v#	c #929D8F",
"w#	c #6B7E63",
"x#	c #7B8975",
"y#	c #CFD0CF",
"z#	c #5C7352",
"A#	c #798873",
"B#	c #7B7D63",
"C#	c #978978",
"D#	c #5E6F4A",
"E#	c #677B5F",
"F#	c #5C7453",
"G#	c #456537",
"H#	c #73846C",
"I#	c #64795B",
"J#	c #687B60",
"K#	c #76816B",
"L#	c #5F7352",
"M#	c #8B9586",
"N#	c #B4B8B2",
"O#	c #889384",
"P#	c #5D7055",
"Q#	c #98A096",
"R#	c #929C8D",
"S#	c #98A195",
"T#	c #99A297",
"U#	c #7B8A75",
"V#	c #7B8778",
"W#	c #D2D2D2",
"X#	c #A8AEA6",
"Y#	c #848B77",
"Z#	c #97806C",
"`#	c #757151",
" $	c #7C8975",
".$	c #818C78",
"+$	c #72846D",
"@$	c #6D7F65",
"#$	c #73846E",
"$$	c #8B9685",
"%$	c #536E48",
"&$	c #7F8E7A",
"*$	c #AEB3AC",
"=$	c #869382",
"-$	c #AFB5AD",
";$	c #D2D3D1",
">$	c #8C9788",
",$	c #7B8677",
"'$	c #C9CAC7",
")$	c #C0C3BE",
"!$	c #757356",
"~$	c #AA9E93",
"{$	c #7A826B",
"]$	c #B3ABA2",
"^$	c #697C5F",
"/$	c #908E7D",
"($	c #937256",
"_$	c #687759",
":$	c #4F6C43",
"<$	c #6E8167",
"[$	c #5E7555",
"}$	c #416330",
"|$	c #7E8C79",
"1$	c #6A7E64",
"2$	c #62785A",
"3$	c #8D9889",
"4$	c #CBCCCB",
"5$	c #586C50",
"6$	c #92998E",
"7$	c #BFC2BF",
"8$	c #647454",
"9$	c #94785F",
"0$	c #A28B7B",
"a$	c #A38A7A",
"b$	c #939A8B",
"c$	c #859280",
"d$	c #886C4C",
"e$	c #916F52",
"f$	c #908D7A",
"g$	c #70826A",
"h$	c #6E8067",
"i$	c #CCCDCB",
"j$	c #D5D5D5",
"k$	c #898C7A",
"l$	c #AB998D",
"m$	c #A48C7D",
"n$	c #B1A69B",
"o$	c #53693F",
"p$	c #677556",
"q$	c #A08876",
"r$	c #957257",
"s$	c #96775F",
"t$	c #8D9382",
"u$	c #556F4A",
"v$	c #667A5E",
"w$	c #6D7F67",
"x$	c #CFCFCE",
"y$	c #D1CDCB",
"z$	c #97765D",
"A$	c #8A7357",
"B$	c #8E7A61",
"C$	c #9F8572",
"D$	c #9B7D67",
"E$	c #916C4D",
"F$	c #927054",
"G$	c #7B7F66",
"H$	c #B7BBB5",
"I$	c #5B7352",
"J$	c #74856F",
"K$	c #A4ABA2",
"L$	c #9EA69C",
"M$	c #C9CBC9",
"N$	c #A4AAA2",
"O$	c #D6D5D4",
"P$	c #AB978A",
"Q$	c #957358",
"R$	c #AF9F94",
"S$	c #AE9D91",
"T$	c #947054",
"U$	c #9C7F6B",
"V$	c #9A7C66",
"W$	c #808672",
"X$	c #B1B6AF",
"Y$	c #8A9188",
"Z$	c #AD9A8F",
"`$	c #987861",
" %	c #97765E",
".%	c #A28A79",
"+%	c #9B7D66",
"@%	c #8F6744",
"#%	c #AC9A8F",
"$%	c #94735B",
"%%	c #D5D3D2",
"&%	c #A2A2A2",
"*%	c #B0B5AE",
"=%	c #D7D6D6",
"-%	c #BBAFA8",
";%	c #9C806C",
">%	c #9E826E",
",%	c #B5A89F",
"'%	c #A79284",
")%	c #A38B7C",
"!%	c #A69082",
"~%	c #D6D5D5",
"{%	c #D5D4D3",
"]%	c #A89385",
"^%	c #926C4D",
"/%	c #9F8471",
"(%	c #AC998D",
"_%	c #A18876",
":%	c #C9C3BF",
"<%	c #D9D8D8",
"[%	c #BFB5AF",
"}%	c #A18776",
"|%	c #9E8371",
"1%	c #BEB5AF",
"2%	c #9C7F6A",
"3%	c #AF9E93",
"4%	c #A48D7D",
"5%	c #916C4C",
"6%	c #AD9A8E",
"7%	c #D8D7D7",
"8%	c #98775F",
"9%	c #B7A9A1",
"0%	c #CCC7C4",
"a%	c #CBC6C3",
"b%	c #CAC5C1",
"c%	c #D2D0CE",
"d%	c #AE9C91",
"e%	c #B1A197",
"f%	c #D7D7D6",
"                          . + +                                 ",
"                      @ # $ % & *               +               ",
"                @ = - ; > , % ' ) ! + +       ~ { !             ",
"      ] +   ^ / ( _ : < [ } * % | 1 2 3 4 @ 5 6 7 8 9   @ +     ",
"      0 a b c d e f g h i j f k l m n o p q r s t u v + w x +   ",
"  + y z 7 A B C D E F G H I J K L M N B O P Q R S T U V W X Y ~ ",
"Z `  ...+.@.#.$.%.&.&.*.=.-.;.>.,.'.).!.~.{.].^./.O (._.:.<.[.}.",
"|.1.2.3.4.5.6.7.8.9.0.a.b.c.d.e.f.g.h.i.j.).k.l.m.k {.).n.o.p.q.",
"r.s.t.u.v.w.x.y.z.A.B.C.{.D.E.F.G.H.I.J.K.L.M.N.O.P.j.Q.R.S.T./.",
"U.V.W.X.Y.Z.`. +E.E..+++@+#+.+$+%+&+*+=+Y.I.-+;+>+,+'+)+!+@+~+{+",
"]+^+Y./+(+(+_+:+A.<+[+-.}+|+1+L 2+3+4+5+|+6+7+8+9+0+a+3.b+c+d+e+",
"f+_+Y.g+h+i+j+k+A.l+m+n+o+p+q+r+s+t+u+| v+w+x+y+z+A+B+C+).H D+E+",
"F+G+H+I+J+K+p.L+M+N+O+L P+Q+R+F+S+T+U+'.V+W+X+{+Y+p.Z+S.Y+`+ @.@",
"J+R+J+k +@@@#@$@%@A.&@.@V+*@=@V.-@;@>@M+,@'@)@!@M+).:.~@{@S.]@!.",
"L ^@/@(@l _@:@<@p.[@}@]+|@1@2@3@4@5@6@{.7@8@9@0@E+(.K+O a@| b@Y+",
"c@!.d@e@f@g@|@h@i@j@k@%@V+l@m@n@q+{@o@'.p@q@r@s@L t@u@O v@w@d+x@",
"y@z@A@B@C@D@E@F@G@H@I@K M+J@5@K@o.U+L@M@N@O@P@Q@'.}.R@O S@T@U@z ",
"V@W@r.C@X@Y@Z@`@ #.#+#@#T.##$#*@%#&#*#=#-#;#Z+>#,#S@! '#Z T@<./ ",
"d@)#!#~#{#{.]#^#/#(#_#:#r+q+K N@y@<#[#}#|#1#2#3#4#5#6#  = 7#8#Z ",
"w@9#0#a#b#c#d#e#f#g#h#i#j#|@k#l#m#n#o#p#q#/.r#3+s#t#u#b . v#N . ",
"w#x##.y#z#A#B#C#D#E#F#]+G#H#I#J#K#L#M#~.:#]#N#O#P#Q#R#= = S#T#= ",
"{#U#V#W#X#Y#Z#`# $h@).q., .$_.+$@@@$#$u@$$r+%$&$K *$4   ~ =$-$+ ",
";$>$,$'$)$!$~${$]$^$1 r /$($_$:$<$[$}$K |$:#1$-$2$3$.     ~ +   ",
"  4$5$6$7$8$9$0$a$b$c$.$d$e$f$E#).g$V+h$p [$o ~ T@]+i$          ",
"    y#~ j$> k$l$m$n$o$p$q$r$s$t$+.u$i#k@u@$ S#= # v$' +         ",
"        + % w$x$y$z$A$B$C$D$E$F$G$k@H$I$J$z K$0 0 L$M$@         ",
"        @ T@v#N$O$P$Q$R$S$T$U$V$W$Z @ # 4 0 X$+ b >$!           ",
"        @ w ]#Y$O$Z$`$ %.%+%@%#%$%%%        +   @ w &%          ",
"          0 7 *%=%-%;%Q$>%,%'%)%!%~%              @             ",
"            + + {%]%^%/%(%/%_%^%r$:%@                           ",
"              <%[%}%|%1%2%3%4%D$5%6%=%                          ",
"                7%:%8%9%0%a%b%c%d%e%f%                          "};
