/* XPM */
static char * 11_xpm[] = {
"32 32 309 2",
"  	c #DADADA",
". 	c #D9D9D9",
"+ 	c #D8D8D8",
"@ 	c #D7D7D7",
"# 	c #D2D2D2",
"$ 	c #C2C1C1",
"% 	c #8C8B8B",
"& 	c #4F4E4E",
"* 	c #454343",
"= 	c #393636",
"- 	c #5C5B5B",
"; 	c #4E4C4C",
"> 	c #9A9A9A",
", 	c #6E6D6D",
"' 	c #C5C5C5",
") 	c #D6D6D6",
"! 	c #BEBEBE",
"~ 	c #B0B0B0",
"{ 	c #ACACAC",
"] 	c #A5A5A5",
"^ 	c #989898",
"/ 	c #666565",
"( 	c #6F6E6E",
"_ 	c #535151",
": 	c #5D5C5C",
"< 	c #494747",
"[ 	c #3C3A3A",
"} 	c #322F2F",
"| 	c #474545",
"1 	c #7F7F7F",
"2 	c #CECECE",
"3 	c #D3D3D3",
"4 	c #C4C4C4",
"5 	c #D5D5D5",
"6 	c #9E9D9D",
"7 	c #6B6A6A",
"8 	c #868585",
"9 	c #636262",
"0 	c #5F5D5D",
"a 	c #656363",
"b 	c #727171",
"c 	c #5A5959",
"d 	c #333030",
"e 	c #332F2F",
"f 	c #3A3737",
"g 	c #434141",
"h 	c #424040",
"i 	c #616060",
"j 	c #676666",
"k 	c #5F5E5E",
"l 	c #888787",
"m 	c #C1C1C1",
"n 	c #D4D4D4",
"o 	c #787777",
"p 	c #8F8F8F",
"q 	c #6D6C6C",
"r 	c #373333",
"s 	c #4D4A4A",
"t 	c #949393",
"u 	c #4C4B4A",
"v 	c #373534",
"w 	c #353232",
"x 	c #343131",
"y 	c #434040",
"z 	c #626161",
"A 	c #525151",
"B 	c #464545",
"C 	c #393737",
"D 	c #504E4E",
"E 	c #7E7E7E",
"F 	c #565555",
"G 	c #555353",
"H 	c #696868",
"I 	c #828181",
"J 	c #878787",
"K 	c #605E5E",
"L 	c #AAAAAA",
"M 	c #A8A8A8",
"N 	c #484646",
"O 	c #999898",
"P 	c #A6A6A6",
"Q 	c #61625F",
"R 	c #33302F",
"S 	c #3C3C38",
"T 	c #373633",
"U 	c #3B3838",
"V 	c #3E3C3C",
"W 	c #6C6C6C",
"X 	c #636261",
"Y 	c #807F7F",
"Z 	c #585756",
"` 	c #4A4847",
" .	c #5C5E5A",
"..	c #626060",
"+.	c #585656",
"@.	c #585757",
"#.	c #595757",
"$.	c #5C5A5A",
"%.	c #525050",
"&.	c #C0BFBF",
"*.	c #898989",
"=.	c #9A9999",
"-.	c #747373",
";.	c #4B4A4A",
">.	c #666666",
",.	c #5E5D5D",
"'.	c #797878",
").	c #343030",
"!.	c #3C3A39",
"~.	c #4F544B",
"{.	c #757F70",
"].	c #4B5047",
"^.	c #4B4949",
"/.	c #454443",
"(.	c #3F3D3C",
"_.	c #3C4436",
":.	c #353331",
"<.	c #7E827C",
"[.	c #5A6057",
"}.	c #555454",
"|.	c #383535",
"1.	c #605F5F",
"2.	c #A2A2A2",
"3.	c #A1A1A1",
"4.	c #767676",
"5.	c #7A7979",
"6.	c #464444",
"7.	c #3D3B3B",
"8.	c #5D605B",
"9.	c #4E5C48",
"0.	c #494D45",
"a.	c #4D5049",
"b.	c #322F2E",
"c.	c #424240",
"d.	c #595857",
"e.	c #676665",
"f.	c #363333",
"g.	c #3E3B3B",
"h.	c #737373",
"i.	c #919090",
"j.	c #5B5A5A",
"k.	c #444242",
"l.	c #3B3938",
"m.	c #585A57",
"n.	c #41403E",
"o.	c #656463",
"p.	c #494848",
"q.	c #32302F",
"r.	c #4F524D",
"s.	c #686A66",
"t.	c #444341",
"u.	c #474644",
"v.	c #777676",
"w.	c #7C7B7B",
"x.	c #414040",
"y.	c #737272",
"z.	c #A3A3A3",
"A.	c #454543",
"B.	c #343130",
"C.	c #3A3937",
"D.	c #33322F",
"E.	c #343430",
"F.	c #363533",
"G.	c #353131",
"H.	c #343230",
"I.	c #33312F",
"J.	c #343231",
"K.	c #393635",
"L.	c #373634",
"M.	c #545352",
"N.	c #656464",
"O.	c #7B7A7A",
"P.	c #686767",
"Q.	c #CCCCCC",
"R.	c #6A6969",
"S.	c #41403F",
"T.	c #322E2E",
"U.	c #312E2E",
"V.	c #363332",
"W.	c #3A3B36",
"X.	c #4C4B4B",
"Y.	c #D0D0D0",
"Z.	c #3D3A3A",
"`.	c #4D4B4B",
" +	c #373434",
".+	c #3C3939",
"++	c #373535",
"@+	c #333130",
"#+	c #423F3F",
"$+	c #363532",
"%+	c #363432",
"&+	c #3F3D3D",
"*+	c #353332",
"=+	c #32312E",
"-+	c #3B3A38",
";+	c #3C3C39",
">+	c #545852",
",+	c #5E5D5C",
"'+	c #646363",
")+	c #C8C8C8",
"!+	c #BFBFBF",
"~+	c #393A35",
"{+	c #32322E",
"]+	c #363433",
"^+	c #393936",
"/+	c #464743",
"(+	c #8D8E8D",
"_+	c #8B8A8A",
":+	c #C3C3C3",
"<+	c #D1D1D1",
"[+	c #403E3E",
"}+	c #525450",
"|+	c #3A3837",
"1+	c #343331",
"2+	c #3E4439",
"3+	c #383835",
"4+	c #667162",
"5+	c #3E4D36",
"6+	c #545452",
"7+	c #717070",
"8+	c #676767",
"9+	c #6C6B6B",
"0+	c #3A3838",
"a+	c #373733",
"b+	c #595A57",
"c+	c #3F443A",
"d+	c #535750",
"e+	c #929191",
"f+	c #858585",
"g+	c #AEADAD",
"h+	c #909090",
"i+	c #373933",
"j+	c #444541",
"k+	c #383735",
"l+	c #3C3B39",
"m+	c #353431",
"n+	c #32302E",
"o+	c #AAA9A9",
"p+	c #454742",
"q+	c #3C3634",
"r+	c #363732",
"s+	c #42423F",
"t+	c #636461",
"u+	c #818080",
"v+	c #777A75",
"w+	c #3E3F3B",
"x+	c #3D3D3A",
"y+	c #494846",
"z+	c #3F413B",
"A+	c #939393",
"B+	c #B9B8B8",
"C+	c #CBCBCB",
"D+	c #8D8D8D",
"E+	c #737372",
"F+	c #575555",
"G+	c #636161",
"H+	c #5D5C5B",
"I+	c #373734",
"J+	c #413F3F",
"K+	c #535252",
"L+	c #454342",
"M+	c #393735",
"N+	c #706F6F",
"O+	c #3D3C3B",
"P+	c #4A4340",
"Q+	c #423A36",
"R+	c #3A322F",
"S+	c #484747",
"T+	c #6F6D6D",
"U+	c #595858",
"V+	c #7D7C7C",
"W+	c #717171",
"X+	c #B2B2B2",
"Y+	c #646662",
"Z+	c #545252",
"`+	c #696767",
" @	c #574B43",
".@	c #423D3C",
"+@	c #373332",
"@@	c #545150",
"#@	c #4C4A4A",
"$@	c #9B9B9B",
"%@	c #BDBDBD",
"&@	c #CFCFCF",
"*@	c #B6B6B6",
"=@	c #7C7C7C",
"-@	c #979696",
";@	c #9E9E9E",
">@	c #89817D",
",@	c #5A5452",
"'@	c #6B6563",
")@	c #34302F",
"!@	c #373230",
"~@	c #48413E",
"{@	c #514F4F",
"]@	c #999999",
"^@	c #979797",
"/@	c #A2A1A1",
"(@	c #A09F9F",
"_@	c #ABABAB",
":@	c #B4B4B4",
"<@	c #666464",
"[@	c #484645",
"}@	c #49403D",
"|@	c #3A3534",
"1@	c #CDCDCD",
"2@	c #C6C6C6",
"3@	c #4C4A49",
"4@	c #383636",
"          . + + @ @ # $ % & * = - ; > , ' .   .                 ",
"        ) ! ~ { ] ^ / ( _ - : < [ } | 1 2 3 # 4 5 .     5       ",
"    . ) 6 7 8 9 0 a 0 b c d e d d f g h i j k : l m n # o 5     ",
"  . 4 p q - r s ( t : u v w x } y z A B C D E F G H I J K #     ",
"  @ L M ~ / x N O P Q R S T w U V W X Y Z `  ...+.@.#.$.%.&..   ",
"  ) t *.=.-.;.>.,.'.).!.~.{.].^.U F /.(._.:.<.[.}.|.1.t K 2.@   ",
"  @ 3.4.5.D h 6.,.7.D j 8.9.0.a.b.b.R c.d.e.c U f.g.1.h._ i.)   ",
"@ # O j.k.g.} l.m.n.o.p.v q.d q.b.} g.r.s.t.u.| N v.w.,.x.y.3   ",
"z.v.< = A.B.C.x D.E.F.G.H.I.:.b.} } J.!.v K.d L.M.N.O.0 f.P.Q.  ",
"b R.V ).D.J.S.T.f.} U.U.J.V.b.T.U.T.b.R R } w } W.d = X.} 7.j.Y.",
"Z.d |.U.T.T.T.T.T.T.T.U.T.b.U.U.T.U.T.b.} } d e d d q.`. +.+++% ",
"x d T.U.q.} } T.U.T.T.T.T.T.U.T.} T.} @+T.} R T.U.d } } T.T.} x ",
"d U.U.U.T.T.U.U.T.b.T.T.U.U.U.U.U.U.U.T.U.T.b.B.x G.T.U.T.T.U.T.",
"|.x T.U.x T.U.U.U.b.T.U.U.U.U.T.U.U.U.b.b.T.q.b.} T.} d U.).|.H ",
"} T.T.U.T.T.U.T.T.T.T.T.T.b.T.T.T.U.U.T.T.} } } T.T.U.d T.e g.#+",
"} e e } ).T.U.T.T.} T.T.T.T.T.U.U.T.U.U.T.} T.U.U.T.} C e d ++f.",
"} d U.} U.T.T.U.U.T.T.T.T.U.U.T.T.U.U.b.U.U.U.U.U.T.d |.T.x w  +",
"T.e x T.T.} R U.U.T.T.T.b.U.U.T.b.U.T.e U.T.U.R T.T.} |.T.} } k.",
"|.G.x U.T.T.b.U.U.U.T.T.T.b.b.} q.T.T.d T.T.T.$+%+b.G 5.&+U w & ",
"g d w } d d *+T.T.T.b.b.U.U.T.b.T.T.b.T.U.T.} =+-+;+>+,+'+y.- )+",
"!+j.x Z.b.*+~+J.T.@+} b.{+T.T.} %+T.T.} b.} w ]+^+!./+(+_+:+<+  ",
"  Y.O [+}+;+|+1+} T.D.2+J.d :.3+} T.T.T.} I.T.4+5+6+7+8+k m .   ",
"  5 % 9+0+a+U } T.} T.@+w  +} T.T.U.U.U.T.q.b.b+c+d+8 e+f+g++   ",
"  ) h+y.0+i+d %.G.j+k+*+@+l+T.T.T.T.b.J.w m+R [+f.n+/ / N.<+    ",
"  + o+o | /+p+g f.x E.q.} } q+V.b.b.I.R r+s+@+|+d m+t+#.M +     ",
"  . ! g u+v+b.T.} f w+x+x T.b.V.} T.y+i+z+w } )..+w w A+B++     ",
"    C+0+D+E+x J.F+G+H+D w e T.} I+;.c J+K+w d } L+M+u #.h+)     ",
"  . m N+_ d R O+f } } 6.P+Q+R+d i S+F #.T+U+V+;. +,+W+A X++     ",
"  n N+} * 6.]+Y+@.N Z+`+ @.@+@e @@&+x #@$@%@&@*@P.' '.Q.+       ",
"  5 7+f =@^.`.*.-@;@>@,@'@e )@!@~@[+d {@]@^@/@A+(@;@_@+         ",
"    n B+~ :@M h+y.b a E <@[@T.}@|@#@T./ <+) ) 1@%@:+@           ",
"      . + + + ) 3 2@3 Y.V+d = 3@|.= w 4@2@      + .             "};
