/* XPM */
static char * collect3_xpm[] = {
"32 32 324 2",
"  	c #DADADA",
". 	c #D7D7D7",
"+ 	c #D9D9D9",
"@ 	c #DBDBDB",
"# 	c #E7E7E7",
"$ 	c #DEDEDE",
"% 	c #D8D7D6",
"& 	c #C6C2C0",
"* 	c #B3AFAC",
"= 	c #C5C5C5",
"- 	c #DCDCDC",
"; 	c #EFEFEF",
"> 	c #E2E2E2",
", 	c #D8D7D7",
"' 	c #C4BFBB",
") 	c #8F7E73",
"! 	c #5A4334",
"~ 	c #8B8785",
"{ 	c #C5C4C3",
"] 	c #BEBEBE",
"^ 	c #F0F0F0",
"/ 	c #CECCCB",
"( 	c #988E88",
"_ 	c #54351A",
": 	c #371C0F",
"< 	c #473028",
"[ 	c #8B817F",
"} 	c #C8C5C5",
"| 	c #D8D8D8",
"1 	c #ECECEC",
"2 	c #B3B3B3",
"3 	c #CECECE",
"4 	c #989594",
"5 	c #43312A",
"6 	c #3D1E0E",
"7 	c #4E260F",
"8 	c #633C2B",
"9 	c #8C7C77",
"0 	c #BEBAB8",
"a 	c #D7D5D5",
"b 	c #F1F1F1",
"c 	c #C8C7C7",
"d 	c #878180",
"e 	c #5A3E34",
"f 	c #5E2E10",
"g 	c #623011",
"h 	c #672E13",
"i 	c #876767",
"j 	c #B4AFB2",
"k 	c #D1D2D2",
"l 	c #F5F5F5",
"m 	c #B6B6B6",
"n 	c #C4C2C1",
"o 	c #8E807B",
"p 	c #613011",
"q 	c #6B2E14",
"r 	c #79282A",
"s 	c #662145",
"t 	c #66556C",
"u 	c #ACA1A6",
"v 	c #D0CDCD",
"w 	c #FAFAFA",
"x 	c #E4E4E4",
"y 	c #B9B4B3",
"z 	c #7A554E",
"A 	c #7B282B",
"B 	c #6E2247",
"C 	c #3F2054",
"D 	c #5E2149",
"E 	c #7F484E",
"F 	c #A49795",
"G 	c #D0CFCF",
"H 	c #F3F3F3",
"I 	c #DFDFDF",
"J 	c #FEFEFE",
"K 	c #E5E5E5",
"L 	c #DDDDDD",
"M 	c #D4D4D4",
"N 	c #D1D0CF",
"O 	c #AA9A9B",
"P 	c #70334E",
"Q 	c #422154",
"R 	c #5F2047",
"S 	c #73252B",
"T 	c #6E2E13",
"U 	c #6D4B3E",
"V 	c #A8A09E",
"W 	c #F6F5F5",
"X 	c #FDFDFD",
"Y 	c #F7F7F7",
"Z 	c #EEEEEE",
"` 	c #C7C7C9",
" .	c #887F8B",
"..	c #642147",
"+.	c #77262A",
"@.	c #6A2D12",
"#.	c #6E4D40",
"$.	c #ACA3A2",
"%.	c #E4E3E3",
"&.	c #E9E9E9",
"*.	c #EBEBEB",
"=.	c #C3BCBE",
"-.	c #977677",
";.	c #76493D",
">.	c #6C4637",
",.	c #6A4131",
"'.	c #653821",
").	c #6B4332",
"!.	c #95837F",
"~.	c #D3CFCE",
"{.	c #D8D4D3",
"].	c #FCFCFB",
"^.	c #E1E1E1",
"/.	c #E2E1E1",
"(.	c #D5D0CF",
"_.	c #C9C2C0",
":.	c #C2B9B8",
"<.	c #A59793",
"[.	c #B2A7A4",
"}.	c #B4A9A6",
"|.	c #C3BCBA",
"1.	c #E1DDDC",
"2.	c #EEECEC",
"3.	c #E8E8E8",
"4.	c #F9F9F9",
"5.	c #FBFBFB",
"6.	c #F2F1F1",
"7.	c #F9F8F8",
"8.	c #FCFCFC",
"9.	c #FDFCFC",
"0.	c #FFFFFF",
"a.	c #F4F4F4",
"b.	c #D9D8D8",
"c.	c #B9B2B1",
"d.	c #89746E",
"e.	c #846C64",
"f.	c #826961",
"g.	c #88736C",
"h.	c #A0908C",
"i.	c #BCB1AF",
"j.	c #FFFEFE",
"k.	c #F6F6F6",
"l.	c #F2F2F2",
"m.	c #EAEAEA",
"n.	c #D6D6D6",
"o.	c #CBC9C8",
"p.	c #8F7F7A",
"q.	c #643315",
"r.	c #765345",
"s.	c #DED8D7",
"t.	c #FBFAFA",
"u.	c #F7F6F6",
"v.	c #EDECEC",
"w.	c #A19794",
"x.	c #8A665E",
"y.	c #DFD7D7",
"z.	c #E6E1E2",
"A.	c #DBD9D9",
"B.	c #FDFCFB",
"C.	c #F5F4F2",
"D.	c #F0EEEF",
"E.	c #D9D6D6",
"F.	c #999999",
"G.	c #CDCDCD",
"H.	c #B2B2B1",
"I.	c #AFA8A7",
"J.	c #643823",
"K.	c #622F10",
"L.	c #774B42",
"M.	c #E7E2E2",
"N.	c #A79097",
"O.	c #ADABA8",
"P.	c #CBC8B7",
"Q.	c #E3E0CC",
"R.	c #DCD5B9",
"S.	c #DBD6D2",
"T.	c #D8D6D6",
"U.	c #C9C7C6",
"V.	c #91817D",
"W.	c #70372B",
"X.	c #814B4F",
"Y.	c #9D8A91",
"Z.	c #AFACA5",
"`.	c #BCB696",
" +	c #B5AF9A",
".+	c #CEC8BE",
"++	c #D9D097",
"@+	c #D3C896",
"#+	c #A08B88",
"$+	c #B09EA1",
"%+	c #D4D1D1",
"&+	c #C7C2C2",
"*+	c #9D7E7F",
"=+	c #926D76",
"-+	c #A9A8A6",
";+	c #C9C19E",
">+	c #BCB17D",
",+	c #A89F98",
"'+	c #E6D9CC",
")+	c #DCCC97",
"!+	c #E4DBA2",
"~+	c #A4987C",
"{+	c #846472",
"]+	c #B5A4A6",
"^+	c #D5D2D2",
"/+	c #C8C0C0",
"(+	c #A1878B",
"_+	c #A09183",
":+	c #BFB584",
"<+	c #A39868",
"[+	c #A89D97",
"}+	c #FEFDFC",
"|+	c #F6E4D8",
"1+	c #E1CEB2",
"2+	c #C9C4A9",
"3+	c #ADA89A",
"4+	c #8B838F",
"5+	c #896B77",
"6+	c #B4A3A5",
"7+	c #D4D2D2",
"8+	c #C4BABA",
"9+	c #A0817D",
"0+	c #A89571",
"a+	c #B0A573",
"b+	c #C0B79E",
"c+	c #FCFBFA",
"d+	c #DBC7BD",
"e+	c #C3BABB",
"f+	c #ABABB4",
"g+	c #AAAAB2",
"h+	c #ADADB4",
"i+	c #908994",
"j+	c #886B76",
"k+	c #B4A4A6",
"l+	c #D3D1D1",
"m+	c #C3B9BA",
"n+	c #A2847F",
"o+	c #B9A67B",
"p+	c #E5DDB1",
"q+	c #FBFAF6",
"r+	c #B7B7BB",
"s+	c #A6A6AE",
"t+	c #BAB9BF",
"u+	c #ACACB3",
"v+	c #B4B2B9",
"w+	c #886D79",
"x+	c #875256",
"y+	c #AEA7A5",
"z+	c #D3D3D3",
"A+	c #C2B9BA",
"B+	c #A38982",
"C+	c #B4A88A",
"D+	c #F6F6F3",
"E+	c #CBCBCE",
"F+	c #AAA9B1",
"G+	c #B6B6BC",
"H+	c #AEADB4",
"I+	c #928F9B",
"J+	c #B4A4AA",
"K+	c #874B52",
"L+	c #732916",
"M+	c #755D54",
"N+	c #B1ACAB",
"O+	c #D5D5D5",
"P+	c #C1B9BA",
"Q+	c #948088",
"R+	c #EFEEEF",
"S+	c #B8B8BD",
"T+	c #ADACB4",
"U+	c #B2B2BA",
"V+	c #BEBCC2",
"W+	c #826977",
"X+	c #844349",
"Y+	c #742811",
"Z+	c #603010",
"`+	c #7B645D",
" @	c #B9B5B4",
".@	c #C7BCBD",
"+@	c #EEEBEC",
"@@	c #BBB5BB",
"#@	c #A8A8B1",
"$@	c #A8A5AE",
"%@	c #94808A",
"&@	c #83454B",
"*@	c #752911",
"=@	c #603011",
"-@	c #633B28",
";@	c #9F9694",
">@	c #DAD8D8",
",@	c #EFEDED",
"'@	c #AE9DA3",
")@	c #8F808C",
"!@	c #917982",
"~@	c #82444A",
"{@	c #722A10",
"]@	c #7E6962",
"^@	c #BCB9B8",
"/@	c #E6E4E4",
"(@	c #C7BBBC",
"_@	c #987178",
":@	c #7E363D",
"<@	c #6E2A10",
"[@	c #6F4F44",
"}@	c #A9A19F",
"|@	c #ADADAD",
"1@	c #D6D4D4",
"2@	c #BCADAD",
"3@	c #85615C",
"4@	c #664131",
"5@	c #A19895",
"6@	c #CECECD",
"7@	c #B3AEAD",
"8@	c #7A625B",
"9@	c #623117",
"0@	c #796159",
"a@	c #A7A09E",
"b@	c #CDCCCC",
"c@	c #D4D4D3",
"d@	c #B4AFAD",
"e@	c #8C7D78",
"f@	c #968A86",
"g@	c #B7B2B1",
"h@	c #C9C8C8",
"i@	c #CFCFCF",
"        . +                       @ # $                         ",
"    % & * =                       - ; >                         ",
"  , ' ) ! ~ {       ]             - ^ >                         ",
"  / ( _ : < [ } |                 @ 1 2                         ",
"  3 4 5 6 7 8 9 0 a               - b >                         ",
"    c d e f g h i j k             - l >   ]   m                 ",
"    | n o p q r s t u v   -       $ w x       m                 ",
"      . y z A B C D E F G H +     I J K   L @ M                 ",
"        N O P Q R S T U V W H $   I X x $ Y Z @                 ",
"          `  ...+.@.g g #.$.%.^ > &.J &.1 *.L                   ",
"        @ M =.-.;.>.,.'.).!.~.{.J ].J ; X # Z ^.                ",
"      I &.; ^ /.(._.:.<.[.}.|.1.2.J J X H &.K - # > - - - > - @ ",
"    @ 3.H 4.5.w W 6.7.8.5.9.J 0.J J 0.0.0.0.0.J 0.4.a.a.; Y H Z ",
"      @ L $ $ $ b.c.d.e.f.g.h.i.X J j.J 5.k.l.; H m.I - n.| > ^.",
"                  o.p.g g q.r.s.t.7.J 8.u.v.- @ - @             ",
"                  G w.g g q.x.y.z.A.B.C.5.D.E.                  ",
"            F.G.M H.I.J.K.L.M.N.O.P.X Q.R.S.8.T.                ",
"                    U.V.W.X.Y.Z.`. +t..+++@+#+$+%+              ",
"                    + &+*+=+-+;+>+,+B.'+)+!+~+{+]+^+            ",
"                      b./+(+_+:+<+[+}+|+1+2+3+4+5+6+7+          ",
"                        , 8+9+0+a+b+c+d+e+f+g+h+i+j+k+l+        ",
"                          , m+n+o+p+q+r+s+t+u+h+v+w+x+y+z+      ",
"                            , A+B+C+D+E+F+G+H+I+J+K+L+M+N+O+    ",
"                              , P+Q+R+S+T+U+V+W+X+Y+Z+p `+ @    ",
"                                , .@+@@@#@$@%@&@*@=@g g -@;@    ",
"            ]                     >@,@'@)@!@~@{@p g g g ]@^@    ",
"              G.                  @ /@(@_@:@<@p g g g [@}@O+    ",
"              |@              M m   @ 1@2@3@p g g g 4@5@6@      ",
"                                        M 7@8@g 9@0@a@b@        ",
"                                          c@d@e@f@g@c@          ",
"                                            O+h@i@              ",
"                                                                "};
