/* XPM */
static char * collect2_xpm[] = {
"32 32 317 2",
"  	c #DADADA",
". 	c #D7D7D7",
"+ 	c #D9D9D9",
"@ 	c #D8D7D6",
"# 	c #C6C2C0",
"$ 	c #B3AFAC",
"% 	c #C5C5C5",
"& 	c #D8D7D7",
"* 	c #C4BFBB",
"= 	c #8F7E73",
"- 	c #5A4334",
"; 	c #8B8785",
"> 	c #C5C4C3",
", 	c #BEBEBE",
"' 	c #CECCCB",
") 	c #988E88",
"! 	c #54351A",
"~ 	c #371C0F",
"{ 	c #473028",
"] 	c #8B817F",
"^ 	c #C8C5C5",
"/ 	c #D8D8D8",
"( 	c #A3A3A3",
"_ 	c #CECECE",
": 	c #989594",
"< 	c #43312A",
"[ 	c #3D1E0E",
"} 	c #4E260F",
"| 	c #633C2B",
"1 	c #8C7C77",
"2 	c #BEBAB8",
"3 	c #D7D5D5",
"4 	c #DBDBDB",
"5 	c #C8C7C7",
"6 	c #878180",
"7 	c #5A3E34",
"8 	c #5E2E10",
"9 	c #623011",
"0 	c #672E13",
"a 	c #876767",
"b 	c #B4AFB2",
"c 	c #D1D2D2",
"d 	c #EAEAEA",
"e 	c #B6B6B6",
"f 	c #C4C2C1",
"g 	c #8E807B",
"h 	c #613011",
"i 	c #6B2E14",
"j 	c #79282A",
"k 	c #662145",
"l 	c #66556C",
"m 	c #ACA1A6",
"n 	c #D0CDCD",
"o 	c #DCDCDC",
"p 	c #F1F1F1",
"q 	c #B9B4B3",
"r 	c #7A554E",
"s 	c #7B282B",
"t 	c #6E2247",
"u 	c #3F2054",
"v 	c #5E2149",
"w 	c #7F484E",
"x 	c #A49795",
"y 	c #CDCCCC",
"z 	c #D4D4D4",
"A 	c #DEDEDE",
"B 	c #FCFCFC",
"C 	c #D1D0CF",
"D 	c #AA9A9B",
"E 	c #70334E",
"F 	c #422154",
"G 	c #5F2047",
"H 	c #73252B",
"I 	c #6E2E13",
"J 	c #6D4B3E",
"K 	c #9F9593",
"L 	c #FBFBFB",
"M 	c #C7C7C9",
"N 	c #887F8B",
"O 	c #642147",
"P 	c #77262A",
"Q 	c #6A2D12",
"R 	c #6E4D40",
"S 	c #9E9492",
"T 	c #C9C7C7",
"U 	c #D5D4D4",
"V 	c #E3E3E3",
"W 	c #D3D3D3",
"X 	c #BFB8BA",
"Y 	c #916C6E",
"Z 	c #6A2E12",
"` 	c #6E4A3E",
" .	c #90817D",
"..	c #AAA19F",
"+.	c #B8B4B2",
"@.	c #DCDBDA",
"#.	c #FAFAFA",
"$.	c #E4E4E4",
"%.	c #D6D6D6",
"&.	c #B9B5B3",
"*.	c #7A625B",
"=.	c #64341A",
"-.	c #7E635A",
";.	c #8D7872",
">.	c #836B64",
",.	c #8C7874",
"'.	c #F0F0F0",
").	c #FEFEFE",
"!.	c #F6F6F6",
"~.	c #E8E8E8",
"{.	c #E2E2E2",
"].	c #B4AEAD",
"^.	c #7C635C",
"/.	c #683E2C",
"(.	c #B3A8A5",
"_.	c #F6F5F5",
":.	c #FCFBFB",
"<.	c #F7F6F6",
"[.	c #FAF9F9",
"}.	c #FFFFFF",
"|.	c #F5F5F5",
"1.	c #F4F4F4",
"2.	c #ECECEC",
"3.	c #F7F7F7",
"4.	c #DDDDDD",
"5.	c #B0A9A8",
"6.	c #683F2D",
"7.	c #7E6258",
"8.	c #856C63",
"9.	c #90736F",
"0.	c #F5F3F3",
"a.	c #FDFCFC",
"b.	c #DEDADA",
"c.	c #CBC9C8",
"d.	c #8F7F7A",
"e.	c #643315",
"f.	c #6A3C21",
"g.	c #743721",
"h.	c #874A4B",
"i.	c #B8AAAE",
"j.	c #F0F0F1",
"k.	c #D6D2D4",
"l.	c #AD9A9D",
"m.	c #D0CCCC",
"n.	c #D0CFCF",
"o.	c #A19794",
"p.	c #743825",
"q.	c #8C4C4E",
"r.	c #9C7F87",
"s.	c #B4B1B0",
"t.	c #EEECE8",
"u.	c #D6D2C9",
"v.	c #9B8778",
"w.	c #A59497",
"x.	c #CFCCCC",
"y.	c #999999",
"z.	c #CDCDCD",
"A.	c #B2B2B1",
"B.	c #AFA8A7",
"C.	c #643823",
"D.	c #622F10",
"E.	c #692911",
"F.	c #7F3E44",
"G.	c #997C85",
"H.	c #A6A4A1",
"I.	c #B6B197",
"J.	c #F3F1EC",
"K.	c #DEDAC2",
"L.	c #CCC190",
"M.	c #9A8572",
"N.	c #A79699",
"O.	c #D2CFCF",
"P.	c #C9C7C6",
"Q.	c #91817D",
"R.	c #70372B",
"S.	c #814B4F",
"T.	c #968088",
"U.	c #AFACA5",
"V.	c #BCB595",
"W.	c #9F9774",
"X.	c #E4E1DF",
"Y.	c #C9C3B7",
"Z.	c #D9CF95",
"`.	c #D2C590",
" +	c #8C6F6A",
".+	c #B09EA1",
"++	c #D4D1D1",
"@+	c #C7C2C2",
"#+	c #9D7E7F",
"$+	c #926D76",
"%+	c #A9A8A6",
"&+	c #C9C19E",
"*+	c #BBB07B",
"=+	c #806D60",
"-+	c #EDE5E2",
";+	c #E4D5C7",
">+	c #DCCC97",
",+	c #E4DBA2",
"'+	c #A4987C",
")+	c #846472",
"!+	c #B5A4A6",
"~+	c #D5D2D2",
"{+	c #D9D8D8",
"]+	c #C8C0C0",
"^+	c #A1878B",
"/+	c #A09183",
"(+	c #BFB584",
"_+	c #A29765",
":+	c #836C61",
"<+	c #F3E9E4",
"[+	c #F5E2D4",
"}+	c #E1CEB2",
"|+	c #C9C4A9",
"1+	c #ADA89A",
"2+	c #8B838F",
"3+	c #896B77",
"4+	c #B4A3A5",
"5+	c #D4D2D2",
"6+	c #C4BABA",
"7+	c #A0817D",
"8+	c #A89571",
"9+	c #AFA470",
"0+	c #A69668",
"a+	c #DDCEBB",
"b+	c #D7C1B5",
"c+	c #C3BABB",
"d+	c #ABABB4",
"e+	c #AAAAB2",
"f+	c #ADADB4",
"g+	c #908994",
"h+	c #886B76",
"i+	c #B4A4A6",
"j+	c #D3D1D1",
"k+	c #C3B9BA",
"l+	c #A2847F",
"m+	c #B8A579",
"n+	c #DDD18F",
"o+	c #DBD2A6",
"p+	c #AEAEB3",
"q+	c #A6A6AE",
"r+	c #BAB9BF",
"s+	c #ACACB3",
"t+	c #B4B2B9",
"u+	c #886D79",
"v+	c #875256",
"w+	c #AEA7A5",
"x+	c #C2B9BA",
"y+	c #A38982",
"z+	c #AB9C76",
"A+	c #B6AF98",
"B+	c #BABABE",
"C+	c #A9A8B0",
"D+	c #B6B6BC",
"E+	c #AEADB4",
"F+	c #928F9B",
"G+	c #B4A4AA",
"H+	c #874B52",
"I+	c #732916",
"J+	c #755D54",
"K+	c #B1ACAB",
"L+	c #D5D5D5",
"M+	c #C1B9BA",
"N+	c #866C77",
"O+	c #716475",
"P+	c #A4A3AB",
"Q+	c #ACABB3",
"R+	c #B2B2BA",
"S+	c #BEBCC2",
"T+	c #826977",
"U+	c #844349",
"V+	c #742811",
"W+	c #603010",
"X+	c #7B645D",
"Y+	c #B9B5B4",
"Z+	c #C1B6B7",
"`+	c #9B838A",
" @	c #A198A1",
".@	c #A7A7B0",
"+@	c #A8A5AE",
"@@	c #94808A",
"#@	c #83454B",
"$@	c #752911",
"%@	c #603011",
"&@	c #633B28",
"*@	c #9F9694",
"=@	c #BCAFB0",
"-@	c #8E707A",
";@	c #8D7E8A",
">@	c #917982",
",@	c #82444A",
"'@	c #722A10",
")@	c #7E6962",
"!@	c #BCB9B8",
"~@	c #D6D4D4",
"{@	c #BFB1B2",
"]@	c #977077",
"^@	c #7E363D",
"/@	c #6E2A10",
"(@	c #6F4F44",
"_@	c #A9A19F",
":@	c #ADADAD",
"<@	c #BCADAD",
"[@	c #85615C",
"}@	c #664131",
"|@	c #A19895",
"1@	c #CECECD",
"2@	c #B3AEAD",
"3@	c #623117",
"4@	c #796159",
"5@	c #A7A09E",
"6@	c #D4D4D3",
"7@	c #B4AFAD",
"8@	c #8C7D78",
"9@	c #968A86",
"0@	c #B7B2B1",
"a@	c #C9C8C8",
"b@	c #CFCFCF",
"        . +                                                     ",
"    @ # $ %                                                     ",
"  & * = - ; >       ,                                           ",
"  ' ) ! ~ { ] ^ /                     (                         ",
"  _ : < [ } | 1 2 3                 4                           ",
"    5 6 7 8 9 0 a b c             4 d 4   ,   e                 ",
"    / f g h i j k l m n           o p o       e                 ",
"      . q r s t u v w x y   z     A B A       z                 ",
"        C D E F G H I J K y       A L A                         ",
"          M N O P Q 9 9 R S T U + V L V                         ",
"          W X Y Z 9 9 9 9 `  ...+.@.#.$.                        ",
"            %.&.*.9 9 9 =.-.;.>.,.'.).!.~.o o %.{.              ",
"              z ].^.9 9 /.(._.:.<.[.}.L B |.1.2.3.4.            ",
"                U 5.R 9 9 6.7.8.9.0.a.[.b.o o 4 4.      z z     ",
"                  c.d.9 9 e.f.g.h.i.j.k.l.m.                    ",
"                  n.o.9 9 e.p.q.r.s.t.u.v.w.x.                  ",
"            y.z.z A.B.C.D.E.F.G.H.I.J.K.L.M.N.O.                ",
"                    P.Q.R.S.T.U.V.W.X.Y.Z.`. +.+++              ",
"                    + @+#+$+%+&+*+=+-+;+>+,+'+)+!+~+            ",
"                      {+]+^+/+(+_+:+<+[+}+|+1+2+3+4+5+          ",
"                        & 6+7+8+9+0+a+b+c+d+e+f+g+h+i+j+        ",
"                          & k+l+m+n+o+p+q+r+s+f+t+u+v+w+W       ",
"                            & x+y+z+A+B+C+D+E+F+G+H+I+J+K+L+    ",
"                              & M+N+O+P+Q+R+S+T+U+V+W+h X+Y+    ",
"                                & Z+`+ @.@+@@@#@$@%@9 9 &@*@    ",
"            ,                     3 =@-@;@>@,@'@h 9 9 9 )@!@    ",
"              z.                    ~@{@]@^@/@h 9 9 9 (@_@L+    ",
"              :@              z e     ~@<@[@h 9 9 9 }@|@1@      ",
"                                        z 2@*.9 3@4@5@y         ",
"                                          6@7@8@9@0@6@          ",
"                                            L+a@b@              ",
"                                                                "};
