/* XPM */
static char * E1_xpm[] = {
"32 32 13 1",
" 	c #DADADA",
".	c #D00000",
"+	c #8D1000",
"@	c #BEBEBE",
"#	c #A3A3A3",
"$	c #FF9000",
"%	c #FFD718",
"&	c #FF9D6A",
"*	c #C14600",
"=	c #D4D4D4",
"-	c #CDCDCD",
";	c #ADADAD",
">	c #B6B6B6",
"                                ",
"                 ...+..         ",
"          @      ......         ",
"   #            ..$%%%$         ",
"                 $%%&&&         ",
"                 %%%&&&*$       ",
"                 %%%%.*$$$      ",
"              =  %%%%*$**$      ",
"                $%%%%%..        ",
"  $%%%%         %%%%%$..        ",
"  %%%%%%       $%%%%%$..    %%  ",
" $%%%%%%$      %%%%%%%%=   $%%% ",
" %%%%%%%%     %%%%%%%%%$$  $$%%$",
" %%%%%%%%$   $%%%%%%%%$$%%$$$%%%",
" $%%%%%%%%  %%%%%%%%%%%%%%%%%%%$",
" $%%%%%%%%%%%%%%%$%%%%%%%%%%%%% ",
"  %%%%%%%%%%%%%%%%%%%%%%%%%%%%  ",
"  %$%%%%%%%%%%%%%%%%%%%%%%$$    ",
"   $%$%%%%%%%%%%%%%%%%%%%       ",
"    %%$%%%%%%%%%%%%%%%%%$       ",
"    $% %%%%%%%%%%%%%%%%%$       ",
"     % $$$$%%%%%%%%%%%%%        ",
"           $%%%%%%%%%%%         ",
"             %%%%%%%%%&         ",
"             *&&$    &&         ",
"      @      &&*     &&         ",
"       -    *&&      &&         ",
"       ;  &&&& => &&&&&&&&&     ",
"           &&&&       &&&&&     ",
"           &&&&&&               ",
"           &&& &&               ",
"            &&                  "};
