/* XPM */
static char * P2_xpm[] = {
"32 32 16 1",
" 	c #DADADA",
".	c #A03808",
"+	c #B06040",
"@	c #884C23",
"#	c #C0C0E0",
"$	c #FFD0B5",
"%	c #9090A0",
"&	c #A3A3A3",
"*	c #FCFFFC",
"=	c #BEBEBE",
"-	c #B6B6B6",
";	c #D4D4D4",
">	c #40402F",
",	c #007300",
"'	c #FFCB42",
")	c #50200F",
"            ...                 ",
"           +++.@                ",
"          #$$$$%%               ",
"   &     $$$$*$$$$ &            ",
"        $$$$$$$$$$              ",
"        $$$$$$$$$$   = -        ",
"        $$$$$$$$$$%    -        ",
"        $$$$$$$$$$$#   ;        ",
"        $$$$$$$$$$***           ",
"        $$$$$$$$$*****          ",
"     ;; #$$$$$$$*#*****         ",
" $$$    #$$$$$$***#****#        ",
" $$$$$$$**$$$$***#*$***#        ",
" $%$$$$#***#**#$$$$$$$$*#   ;;  ",
" $$$$$$******$$$$$$$$$$$        ",
"    $$*******$$$$$$$$$$$        ",
"     #********$$$$$$$$$*#       ",
"     #***#****$$$$$$$$**#       ",
"     #******************        ",
"     #******************        ",
"      #***************#%        ",
"       >%#$$#****###>,,>        ",
"       ,,>''@>>>>,,,,,,         ",
"       >,,,,,,,,,,,,,,,>        ",
"        ,,,,,,,,,,,,,,,,        ",
"      =,,,,,,,,,,,,,,,,,        ",
"       ,,,,,,,> >,,,,,,,        ",
"       >>,,,,,>;-,,,,,,,  &     ",
"      @@@@>,,,>  ,>@@@@>>       ",
"      @@@@@@>,   >@@@@@@>       ",
"       )@@@@@)   @@@@@@@)       ",
"                  @@@@@         "};
