/* XPM */
static char * P2_xpm[] = {
"32 32 31 1",
" 	c #DADADA",
".	c #A03808",
"+	c #884C23",
"@	c #B06040",
"#	c #BEBEBE",
"$	c #9090A0",
"%	c #FFD0B5",
"&	c #C0C0E0",
"*	c #A3A3A3",
"=	c #FCFFFC",
"-	c #D4D4D4",
";	c #999999",
">	c #F8FBF8",
",	c #F7FAF7",
"'	c #40402F",
")	c #007300",
"!	c #216615",
"~	c #BBBBDB",
"{	c #CED2CE",
"]	c #337B33",
"^	c #0A750A",
"/	c #FFCB42",
"(	c #D2D2D2",
"_	c #4D834D",
":	c #057202",
"<	c #D0D0D0",
"[	c #588758",
"}	c #D0D5D0",
"|	c #CDCDCD",
"1	c #ADADAD",
"2	c #50200F",
"                 ...            ",
"                +.@@@           ",
"          #    $$%%%%&          ",
"   *          %%%%=%%%%         ",
"              %%%%%%%%%%        ",
"              %%%%%%%%%%        ",
"             $%%%%%%%%%%        ",
"            &%%%%%%%%%%%        ",
"           ===%%%%%%%%%%        ",
"          =====%%%%%%%%%        ",
"     --  =====&=%%%%%%%&        ",
"        &====&===%%%%%%&        ",
"        &===%=&===%%%%==%%      ",
"       &=======%%%%%%%%&=%      ",
"        ======%%%%%%%%%%%%      ",
"        ======%%%%%%%%%%%=%%    ",
"      ;&=======%%%%%%%%%==&     ",
"       &========%%%%%%%%==&     ",
"        ==================&     ",
"        ==================&     ",
"        $&>,=============&      ",
"        '))!~&&====&%%&$'       ",
"         {]^))))))'+//'))       ",
"         (_:))))))))))))'       ",
"          <)))))))))))[}        ",
"         # ))))))))))))}        ",
"          |))))))))))))         ",
"          1))))))))))'' *       ",
"          ''++++'))'++++        ",
"          '++++++'++++++        ",
"          2+++++++++++2         ",
"            +++++               "};
