/* XPM */
static char * P5_xpm[] = {
"32 32 609 2",
"  	c #DBDAD7",
". 	c #EAD5A5",
"+ 	c #E4D7BD",
"@ 	c #E5D7BA",
"# 	c #E5D7B8",
"$ 	c #EDD499",
"% 	c #EAD5A3",
"& 	c #DCD7D4",
"* 	c #EBAE9E",
"= 	c #ECAC9C",
"- 	c #DDD3D1",
"; 	c #DCD9D5",
"> 	c #DBDAD6",
", 	c #EDD496",
"' 	c #EBD5A1",
") 	c #EFD38D",
"! 	c #E4D7BC",
"~ 	c #C8C6C4",
"{ 	c #B4A78F",
"] 	c #8C807E",
"^ 	c #917474",
"/ 	c #9F8280",
"( 	c #ABA29E",
"_ 	c #CCCAC7",
": 	c #EED492",
"< 	c #DFD9CD",
"[ 	c #DADADA",
"} 	c #DADAD9",
"| 	c #DFD8CB",
"1 	c #E3D7BF",
"2 	c #E4D7BB",
"3 	c #E2D8C4",
"4 	c #F2D27D",
"5 	c #DED8CF",
"6 	c #E3C6BF",
"7 	c #F09D84",
"8 	c #F2987A",
"9 	c #F3C66E",
"0 	c #DED8D0",
"a 	c #F1D384",
"b 	c #CBC9C8",
"c 	c #704B46",
"d 	c #85584A",
"e 	c #770909",
"f 	c #7F0000",
"g 	c #8F5353",
"h 	c #A2A2A1",
"i 	c #C9C5BF",
"j 	c #EED494",
"k 	c #F2D37F",
"l 	c #E0D8C7",
"m 	c #DCDAD6",
"n 	c #DBDAD9",
"o 	c #DBDAD8",
"p 	c #DADAD8",
"q 	c #E9D5AA",
"r 	c #E8D6AE",
"s 	c #E0CEC7",
"t 	c #DCA492",
"u 	c #F69E5A",
"v 	c #F1C37C",
"w 	c #DFD8CC",
"x 	c #E7D6B0",
"y 	c #EAD5A7",
"z 	c #DAD8D4",
"A 	c #A38B8A",
"B 	c #841F1D",
"C 	c #9F6D6A",
"D 	c #A99191",
"E 	c #AC9595",
"F 	c #B39794",
"G 	c #C4BEBD",
"H 	c #B1AFAF",
"I 	c #DDD8CE",
"J 	c #EFD38C",
"K 	c #EFD38B",
"L 	c #E9D6AA",
"M 	c #EDD497",
"N 	c #DCDAD5",
"O 	c #EAD5A4",
"P 	c #A9A69F",
"Q 	c #E2D8C3",
"R 	c #E2D7C1",
"S 	c #E3D6C0",
"T 	c #E1D7C4",
"U 	c #DFD6CD",
"V 	c #E4C8BB",
"W 	c #F59E5D",
"X 	c #F3C970",
"Y 	c #DED9CF",
"Z 	c #D2CFCF",
"` 	c #9A5E5A",
" .	c #F0A897",
"..	c #FDB4A2",
"+.	c #E2CDC9",
"@.	c #EADFDD",
"#.	c #EAB1A3",
"$.	c #EFDAD5",
"%.	c #A08A85",
"&.	c #AEAAA9",
"*.	c #DCD8CF",
"=.	c #EFD490",
"-.	c #E1D8C7",
";.	c #EBD5A2",
">.	c #DED9D0",
",.	c #E0D8C9",
"'.	c #DBDAD5",
").	c #EFD48C",
"!.	c #F6D151",
"~.	c #EAD5A2",
"{.	c #F6C253",
"].	c #F5AB61",
"^.	c #EFC28A",
"/.	c #F2D079",
"(.	c #F2D275",
"_.	c #E4D5B9",
":.	c #EABCA1",
"<.	c #F3BB6E",
"[.	c #E9D4A6",
"}.	c #D9D5D0",
"|.	c #A18080",
"1.	c #C5887C",
"2.	c #FDB4A1",
"3.	c #FFB6A3",
"4.	c #F8B19F",
"5.	c #FBB5A1",
"6.	c #F0AD9B",
"7.	c #E8A797",
"8.	c #F5B09D",
"9.	c #86675E",
"0.	c #EBD5A0",
"a.	c #E1D8C4",
"b.	c #E8D3AA",
"c.	c #F2A275",
"d.	c #F3936D",
"e.	c #F78250",
"f.	c #EABAA2",
"g.	c #F3C874",
"h.	c #F8CD3C",
"i.	c #F7CC49",
"j.	c #F9CA2B",
"k.	c #F5D163",
"l.	c #E8D19A",
"m.	c #90554C",
"n.	c #F5B6A5",
"o.	c #F5AF9C",
"p.	c #F2AE9A",
"q.	c #F4B09D",
"r.	c #A5766B",
"s.	c #C1C0BE",
"t.	c #E6D7B6",
"u.	c #E6D7B5",
"v.	c #E5D7B6",
"w.	c #E5D7B9",
"x.	c #DCD9D4",
"y.	c #EBD5A3",
"z.	c #DED9CD",
"A.	c #E1D8C5",
"B.	c #E4D6BC",
"C.	c #E5D4B9",
"D.	c #E2D2C3",
"E.	c #E9C2AA",
"F.	c #F19F7B",
"G.	c #F39B6E",
"H.	c #F7904C",
"I.	c #F88642",
"J.	c #F6BF57",
"K.	c #F2CC5A",
"L.	c #A88170",
"M.	c #FBB5A2",
"N.	c #FEB6A2",
"O.	c #F2AE9B",
"P.	c #F4AF9C",
"Q.	c #A17469",
"R.	c #C0BFBD",
"S.	c #E9D6A9",
"T.	c #F2D27B",
"U.	c #E5D7B7",
"V.	c #E6D6B3",
"W.	c #E9D5A7",
"X.	c #E8D5AC",
"Y.	c #ECD49E",
"Z.	c #F0D38A",
"`.	c #E7D4B2",
" +	c #F4CC6B",
".+	c #F5B65F",
"++	c #F49460",
"@+	c #DCA27A",
"#+	c #95574E",
"$+	c #F1AB99",
"%+	c #F1B09F",
"&+	c #F3AF9D",
"*+	c #F7B3A0",
"=+	c #EFAD9A",
"-+	c #856157",
";+	c #C3C3C3",
">+	c #DAD9D7",
",+	c #D3D3D3",
"'+	c #D8D8D8",
")+	c #E0D8C8",
"!+	c #E8D6AD",
"~+	c #E5D6B8",
"{+	c #E0D9CA",
"]+	c #EBD59F",
"^+	c #F6D055",
"/+	c #E8D5A9",
"(+	c #F3D16E",
"_+	c #F7D049",
":+	c #EFD389",
"<+	c #EAD59F",
"[+	c #EED490",
"}+	c #F6D058",
"|+	c #EAD29D",
"1+	c #DDBA87",
"2+	c #9D4C3B",
"3+	c #810300",
"4+	c #893630",
"5+	c #D39282",
"6+	c #FCB5A2",
"7+	c #F8B29F",
"8+	c #F5AF9D",
"9+	c #FBB4A1",
"0+	c #79584F",
"a+	c #C5C4C5",
"b+	c #CCCCCC",
"c+	c #D1B4AD",
"d+	c #E0ADA0",
"e+	c #B7A9A6",
"f+	c #E0D8CA",
"g+	c #F2D27E",
"h+	c #DFD9CA",
"i+	c #EED38F",
"j+	c #EED391",
"k+	c #F5D160",
"l+	c #F4D164",
"m+	c #F1CE67",
"n+	c #A37B6A",
"o+	c #7B0101",
"p+	c #740303",
"q+	c #7C0101",
"r+	c #8A3C35",
"s+	c #BD7B6E",
"t+	c #D59382",
"u+	c #E6A190",
"v+	c #D69484",
"w+	c #B57669",
"x+	c #460F0C",
"y+	c #97908F",
"z+	c #E9B3A5",
"A+	c #FEB6A3",
"B+	c #F4AF9D",
"C+	c #E3A495",
"D+	c #E7D6AF",
"E+	c #E8D6AB",
"F+	c #E8D2A0",
"G+	c #E7D2A1",
"H+	c #EBD49E",
"I+	c #F3D272",
"J+	c #F3D170",
"K+	c #F2D278",
"L+	c #E9D6AC",
"M+	c #C4B090",
"N+	c #861815",
"O+	c #800000",
"P+	c #800100",
"Q+	c #810100",
"R+	c #810404",
"S+	c #7E0405",
"T+	c #7C0405",
"U+	c #7E0101",
"V+	c #680101",
"W+	c #5E0404",
"X+	c #B87A6E",
"Y+	c #F2AE9C",
"Z+	c #EEAB9A",
"`+	c #BFBDBD",
" @	c #E1D6C4",
".@	c #E0D1C8",
"+@	c #EAD2A4",
"@@	c #F1C67E",
"#@	c #EBC9A0",
"$@	c #EAC7A3",
"%@	c #F0BA86",
"&@	c #F5BD5D",
"*@	c #F8C13E",
"=@	c #F9CF2D",
"-@	c #EAC763",
";@	c #944E38",
">@	c #7A0203",
",@	c #770303",
"'@	c #7D0303",
")@	c #B17063",
"!@	c #EFAC9A",
"~@	c #B9ADAA",
"{@	c #D7D7D7",
"]@	c #DCD8D4",
"^@	c #F1C07C",
"/@	c #F3A670",
"(@	c #F97932",
"_@	c #F88F41",
":@	c #F0A286",
"<@	c #EBAE9D",
"[@	c #EDA995",
"}@	c #EAB5A4",
"|@	c #ECC099",
"1@	c #E5C5AC",
"2@	c #DCB968",
"3@	c #C29122",
"4@	c #852202",
"5@	c #81211C",
"6@	c #E8A594",
"7@	c #F9B29F",
"8@	c #B79F99",
"9@	c #E1CBC6",
"0@	c #F19E81",
"a@	c #E4C5B9",
"b@	c #E3CFBD",
"c@	c #DED6CF",
"d@	c #DCD8D3",
"e@	c #DED6CD",
"f@	c #E8D3AC",
"g@	c #E8D3A3",
"h@	c #B39B8D",
"i@	c #8B3114",
"j@	c #75423F",
"k@	c #A69F9C",
"l@	c #DDD9D3",
"m@	c #E9D4AB",
"n@	c #DCDAD3",
"o@	c #E6D6B4",
"p@	c #EED38D",
"q@	c #F5D15D",
"r@	c #F8D041",
"s@	c #C7BBA0",
"t@	c #802622",
"u@	c #5A0202",
"v@	c #6E0102",
"w@	c #7C0000",
"x@	c #7E0000",
"y@	c #754D4D",
"z@	c #BAB8B8",
"A@	c #DDD8CD",
"B@	c #F0D388",
"C@	c #E3D7BE",
"D@	c #EED38E",
"E@	c #F3D275",
"F@	c #F5D162",
"G@	c #E3D7BD",
"H@	c #F2D274",
"I@	c #8D8D8D",
"J@	c #220B0C",
"K@	c #6D0404",
"L@	c #750100",
"M@	c #690202",
"N@	c #640302",
"O@	c #630202",
"P@	c #650202",
"Q@	c #700101",
"R@	c #760001",
"S@	c #710001",
"T@	c #753A07",
"U@	c #573009",
"V@	c #9D9A9A",
"W@	c #DFD9CC",
"X@	c #E8D6A9",
"Y@	c #DDD9D1",
"Z@	c #AAA28F",
"`@	c #E4CF99",
" #	c #F0D17A",
".#	c #948B8D",
"+#	c #12132D",
"@#	c #0D0D0D",
"##	c #570808",
"$#	c #7D0101",
"%#	c #740302",
"&#	c #750502",
"*#	c #BC8E19",
"=#	c #F9D028",
"-#	c #5F3806",
";#	c #8F8989",
">#	c #EED495",
",#	c #F0D389",
"'#	c #E1D7C3",
")#	c #EAD2A3",
"!#	c #E9D4A9",
"~#	c #ECD399",
"{#	c #F7CF4F",
"]#	c #F6CF5B",
"^#	c #F8CE3A",
"/#	c #E0C062",
"(#	c #443A52",
"_#	c #13143D",
":#	c #0D0D11",
"<#	c #2E0C0C",
"[#	c #6A0505",
"}#	c #800300",
"|#	c #DAAC21",
"1#	c #BA8717",
"2#	c #460001",
"3#	c #918B8B",
"4#	c #E0D4CB",
"5#	c #F4BF6E",
"6#	c #F3A26E",
"7#	c #F0B285",
"8#	c #ECB599",
"9#	c #F5AA5F",
"0#	c #EEB089",
"a#	c #F4B047",
"b#	c #D2B366",
"c#	c #352F54",
"d#	c #171954",
"e#	c #16184E",
"f#	c #101130",
"g#	c #3E0B0A",
"h#	c #6C0404",
"i#	c #800101",
"j#	c #800001",
"k#	c #C18C19",
"l#	c #FBD027",
"m#	c #BF991D",
"n#	c #4B1402",
"o#	c #A7A3A3",
"p#	c #E7D6AE",
"q#	c #DED9CE",
"r#	c #E9D3A8",
"s#	c #DFD3CC",
"t#	c #F29B76",
"u#	c #E9B9A8",
"v#	c #E4CCBB",
"w#	c #D2BE9C",
"x#	c #D4B03A",
"y#	c #A99A7F",
"z#	c #2A2C62",
"A#	c #15174B",
"B#	c #10112F",
"C#	c #380B0B",
"D#	c #640605",
"E#	c #820B02",
"F#	c #D3A21F",
"G#	c #6B4708",
"H#	c #4A1C1B",
"I#	c #CBC5BB",
"J#	c #E3D8BE",
"K#	c #DDDAD2",
"L#	c #EFD48F",
"M#	c #E6D6B7",
"N#	c #ECD49A",
"O#	c #E4CB92",
"P#	c #B78D56",
"Q#	c #BC9914",
"R#	c #A47436",
"S#	c #201E4E",
"T#	c #16184D",
"U#	c #121339",
"V#	c #0E0E1B",
"W#	c #140D0C",
"X#	c #47090A",
"Y#	c #9D771A",
"Z#	c #D6B422",
"`#	c #AA882D",
" $	c #4C3332",
".$	c #8E806E",
"+$	c #F1D281",
"@$	c #EDD495",
"#$	c #DAD3C4",
"$$	c #95695F",
"%$	c #82250D",
"&$	c #BE9303",
"*$	c #763F1B",
"=$	c #151749",
"-$	c #12133D",
";$	c #10112C",
">$	c #0F0F23",
",$	c #5E5E5D",
"'$	c #696660",
")$	c #DBC89B",
"!$	c #DDD9D2",
"~$	c #ECD49C",
"{$	c #E7D6B1",
"]$	c #B4A7A7",
"^$	c #830A0A",
"/$	c #5C0E33",
"($	c #171955",
"_$	c #15164B",
":$	c #91908F",
"<$	c #E2D6BC",
"[$	c #E3D8C0",
"}$	c #ECD49D",
"|$	c #946A6A",
"1$	c #560F39",
"2$	c #14164B",
"3$	c #838181",
"4$	c #E4D4B1",
"5$	c #E4D7BA",
"6$	c #CBCAC8",
"7$	c #852727",
"8$	c #55103A",
"9$	c #1D1F4D",
"0$	c #B4B0A9",
"a$	c #EED493",
"b$	c #EDD498",
"c$	c #DCDAD4",
"d$	c #DFD8CA",
"e$	c #BEB8B8",
"f$	c #810909",
"g$	c #6F0101",
"h$	c #5A0E33",
"i$	c #1C1D54",
"j$	c #686875",
"k$	c #292955",
"l$	c #15174D",
"m$	c #4E4551",
"n$	c #E3D4B3",
"o$	c #B9B3B1",
"p$	c #783A35",
"q$	c #6A3A3A",
"r$	c #928F8F",
"s$	c #9C9897",
"t$	c #604A44",
"u$	c #413747",
"v$	c #161850",
"w$	c #171952",
"x$	c #15174F",
"y$	c #3B3B55",
"z$	c #A5A099",
"A$	c #D4D4D1",
"B$	c #9B9AA3",
"C$	c #1F2059",
"D$	c #48123E",
"E$	c #770101",
"F$	c #624040",
"G$	c #71605C",
"H$	c #B6B2AD",
"I$	c #E1D8C8",
"J$	c #DCD9D2",
"K$	c #D8D0C0",
"L$	c #D0CFCB",
"M$	c #B4AFA7",
"N$	c #E7D5AF",
"O$	c #E7CC88",
"P$	c #E9C75C",
"Q$	c #8F8A85",
"R$	c #838385",
"S$	c #9C9A99",
"T$	c #D0C8BA",
"U$	c #F0D282",
"V$	c #D7C59A",
"W$	c #D9D5CC",
"X$	c #80808D",
"Y$	c #171A54",
"Z$	c #321548",
"`$	c #660A25",
" %	c #660100",
".%	c #766C6C",
"+%	c #D8D7D3",
"@%	c #E9D6AB",
"#%	c #E4D7BE",
"$%	c #E6D6B5",
"%%	c #E3D7C1",
"&%	c #ECD49B",
"*%	c #E6D6B2",
"=%	c #E4D7B9",
"-%	c #DDCA9F",
";%	c #6D5E6D",
">%	c #5A0E35",
",%	c #6E061A",
"'%	c #7C4F4F",
")%	c #C6C4C3",
"!%	c #EFD38E",
"~%	c #F0D385",
"{%	c #F2D273",
"]%	c #F2D27A",
"^%	c #E6D7B2",
"/%	c #E8D6AF",
"(%	c #E6D6B1",
"_%	c #F1D280",
":%	c #DFC06C",
"<%	c #D5BE83",
"[%	c #B69652",
"}%	c #810B03",
"|%	c #8A6565",
"1%	c #C6C5C5",
"2%	c #EAD5A6",
"3%	c #F6D156",
"4%	c #EED48E",
"5%	c #F0D386",
"6%	c #F7D148",
"7%	c #F1D283",
"8%	c #DDD9D0",
"9%	c #DFD8C9",
"0%	c #F4D16C",
"a%	c #E1C681",
"b%	c #C2A862",
"c%	c #A88A1F",
"d%	c #926F47",
"e%	c #820A0A",
"f%	c #83494A",
"g%	c #A99FA0",
"h%	c #D2D2D2",
"i%	c #F0D387",
"j%	c #E1D8C6",
"k%	c #E2D8C1",
"l%	c #DCD9D3",
"m%	c #DAD7D3",
"n%	c #C8C7C5",
"o%	c #CFCFCF",
"p%	c #A38D8D",
"q%	c #B1AAAB",
"r%	c #D0D0D0",
"  . + @ # $ % & * = - ; > , ' ) ! ~ { ] ^ / ( _ # : < [ [ [ [ [ ",
"} | 1 2 | 3 4 5 6 7 8 9 0 ; ! a 3 b c d e f g h i j k l   m [ [ ",
"  } n o p   q r ; s t u v w x y z A B C D E F G H I J K L M N [ ",
"O > [ P Q > R S T J U V W X Y   Z `  ...+.@.#.$.%.&.*.=.-.;.>.[ ",
";.,.'.).!.~.{.].^./.(._.:.<.[.}.|.1.2.3.4.5.6.7.8.9._ 0.0., a.} ",
";.' '.l < b.c.d.e.f.g.h.i.j.k.l.m.n.3.3.3.o.p.q.6.r.s.t.u.v.w.o ",
"x.y.z.A.2 @ B.C.D.E.F.G.H.I.J.K.L.M.3.3.3.N.3.O.P.Q.R.w.w.m o [ ",
"> S.T., U.V.W.X.W.Y.Z.`. +.+++@+#+$+3.3.3.%+&+*+=+-+;+o >+,+'+[ ",
")+!+~+{+]+^+/+(+_+:+<+[+}+|+1+2+3+4+5+6+3.7+8+q.9+0+a+b+c+d+e+'+",
"f+1 g+x ! x y.h+i+j+4 k+l+m+n+3+o+p+q+r+s+t+u+v+w+x+y+z+A+B+C+;+",
"  D+E+Y ! F+G+V.H+I+J+K+L+M+N+O+P+Q+R+S+T+U+O+P+V+W+X+3.3.Y+Z+`+",
"m $  @.@+@@@#@$@%@&@*@=@-@;@O+O+f O+O+O+O+>@p+,@'@O+)@3.3.!@~@{@",
"]@^@/@(@_@:@<@[@}@|@1@2@3@4@O+O+O+O+O+O+O+O+O+O+O+O+5@6@7@8@{@[ ",
"9@0@a@b@c@& d@e@f@g@h@i@4@O+O+O+O+f O+O+O+O+O+O+O+O+O+j@k@b+l@l@",
"; m@~+n@x.o@p@q@r@s@t@O+O+O+O+f u@v@w@O+O+O+O+O+O+x@y@z@A@m 1 1 ",
"U.B@C@D@E@F@G@H@T I@J@K@O+O+O+O+L@M@N@O@P@Q@R@S@T@U@V@o D+W@o@# ",
"; ]+M X@Y@>.Z@`@ #.#+#@###$#O+O+O+O+O+O+U+%#&#*#=#-#;#> >#>.,#C@",
"} '#g+)#!#~#{#]#^#/#(#_#:#<#[#O+O+O+O+O+O+O+}#|#1#2#3#m >#l ;.m ",
"[ 4#5#6#7#8#9#0#a#b#c#d#e#f#@#g#h#i#O+O+O+j#k#l#m#n#o#| p#u.U.o ",
"} q#r#s#t#u#v#w#x#y#z#d#d#d#A#B#@#C#D#q+O+E#F#=#G#H#I#O J#: r   ",
"[ K#L#M#B@N#O#P#Q#R#S#d#d#d#d#d#T#U#V#W#X#Y#Z#`# $.$+$o@n@@$V.o ",
"} l O K o@#$$$%$&$*$d#d#d#d#d#d#d#d#d#=$-$;$>$,$'$)$Z.!$m ~${$  ",
"n @ O v.m ]$^$O+O+/$d#d#d#d#d#d#d#d#d#d#d#d#($_$:$<$w.n N # [$} ",
"K#K }$!${@|$O+O+O+1$d#d#d#d#d#d#d#d#d#d#d#d#d#2$3$4$$ Y@O D+5$o ",
"5${$x @ 6$7$O+O+O+8$d#d#d#d#d#d#d#($d#d#d#d#d#d#9$0$a$t.@ b$D+o ",
"o c$% d$e$f$O+g$g$h$d#d#d#d#d#i$j$k$l$d#d#d#d#d#($m$i n$j r K ; ",
"} ,.O > o$p$q$r$s$t$u$v$w$x$y$z$A$B$C$d#d#d#d#d#D$E$F$G$H$N ;.l@",
"  . I$J$<$K$L$M$N$O$P$Q$R$S$T$U$V$W$X$d#d#Y$Z$`$P+O+O+ %.%+%@%M ",
"o #%$%B@b$%%&%I+r@K V.>.T *%;.' =%2 -%;%>%,%j#O+O+O+f '%)%{+o@V.",
"q#!%5$~%{%H@) ]%o@^%/%(%~%T.T.D@_%:%<%[%}%O+O+O+O+f$|%1%Y@2%N o ",
"%%+ < 3%4%5%6%% a [+a 7%[$8%9%% 0%a%b%c%d%e%O+f$f%g%h%x.i%j%} [ ",
"n n [ q#,.x.k%n@D+!$x.n@} [ [   l%> m%n%o%p%^ q%r%[ [   y x o [ "};
