/* XPM */
static char * P6_xpm[] = {
"32 32 609 2",
"  	c #DADADA",
". 	c #DFD9CD",
"+ 	c #EED492",
"@ 	c #E5D7B8",
"# 	c #CCCAC7",
"$ 	c #ABA29E",
"% 	c #9F8280",
"& 	c #917474",
"* 	c #8C807E",
"= 	c #B4A78F",
"- 	c #C8C6C4",
"; 	c #E4D7BC",
"> 	c #EFD38D",
", 	c #EBD5A1",
"' 	c #EDD496",
") 	c #DBDAD6",
"! 	c #DCD9D5",
"~ 	c #DDD3D1",
"{ 	c #ECAC9C",
"] 	c #EBAE9E",
"^ 	c #DCD7D4",
"/ 	c #EAD5A3",
"( 	c #EDD499",
"_ 	c #E5D7BA",
": 	c #E4D7BD",
"< 	c #EAD5A5",
"[ 	c #DBDAD7",
"} 	c #DCDAD6",
"| 	c #E0D8C7",
"1 	c #F2D37F",
"2 	c #EED494",
"3 	c #C9C5BF",
"4 	c #A2A2A1",
"5 	c #8F5353",
"6 	c #7F0000",
"7 	c #770909",
"8 	c #85584A",
"9 	c #704B46",
"0 	c #CBC9C8",
"a 	c #E2D8C4",
"b 	c #F1D384",
"c 	c #DED8D0",
"d 	c #F3C66E",
"e 	c #F2987A",
"f 	c #F09D84",
"g 	c #E3C6BF",
"h 	c #DED8CF",
"i 	c #F2D27D",
"j 	c #DFD8CB",
"k 	c #E4D7BB",
"l 	c #E3D7BF",
"m 	c #DADAD9",
"n 	c #DCDAD5",
"o 	c #EDD497",
"p 	c #E9D6AA",
"q 	c #EFD38B",
"r 	c #EFD38C",
"s 	c #DDD8CE",
"t 	c #B1AFAF",
"u 	c #C4BEBD",
"v 	c #B39794",
"w 	c #AC9595",
"x 	c #A99191",
"y 	c #9F6D6A",
"z 	c #841F1D",
"A 	c #A38B8A",
"B 	c #DAD8D4",
"C 	c #EAD5A7",
"D 	c #E7D6B0",
"E 	c #DFD8CC",
"F 	c #F1C37C",
"G 	c #F69E5A",
"H 	c #DCA492",
"I 	c #E0CEC7",
"J 	c #E8D6AE",
"K 	c #E9D5AA",
"L 	c #DADAD8",
"M 	c #DBDAD8",
"N 	c #DBDAD9",
"O 	c #DED9D0",
"P 	c #EBD5A2",
"Q 	c #E1D8C7",
"R 	c #EFD490",
"S 	c #DCD8CF",
"T 	c #AEAAA9",
"U 	c #A08A85",
"V 	c #EFDAD5",
"W 	c #EAB1A3",
"X 	c #EADFDD",
"Y 	c #E2CDC9",
"Z 	c #FDB4A2",
"` 	c #F0A897",
" .	c #9A5E5A",
"..	c #D2CFCF",
"+.	c #DED9CF",
"@.	c #F3C970",
"#.	c #F59E5D",
"$.	c #E4C8BB",
"%.	c #DFD6CD",
"&.	c #E1D7C4",
"*.	c #E3D6C0",
"=.	c #E2D7C1",
"-.	c #E2D8C3",
";.	c #A9A69F",
">.	c #EAD5A4",
",.	c #E1D8C4",
"'.	c #EBD5A0",
").	c #86675E",
"!.	c #F5B09D",
"~.	c #E8A797",
"{.	c #F0AD9B",
"].	c #FBB5A1",
"^.	c #F8B19F",
"/.	c #FFB6A3",
"(.	c #FDB4A1",
"_.	c #C5887C",
":.	c #A18080",
"<.	c #D9D5D0",
"[.	c #E9D4A6",
"}.	c #F3BB6E",
"|.	c #EABCA1",
"1.	c #E4D5B9",
"2.	c #F2D275",
"3.	c #F2D079",
"4.	c #EFC28A",
"5.	c #F5AB61",
"6.	c #F6C253",
"7.	c #EAD5A2",
"8.	c #F6D151",
"9.	c #EFD48C",
"0.	c #DBDAD5",
"a.	c #E0D8C9",
"b.	c #E5D7B9",
"c.	c #E5D7B6",
"d.	c #E6D7B5",
"e.	c #E6D7B6",
"f.	c #C1C0BE",
"g.	c #A5766B",
"h.	c #F4B09D",
"i.	c #F2AE9A",
"j.	c #F5AF9C",
"k.	c #F5B6A5",
"l.	c #90554C",
"m.	c #E8D19A",
"n.	c #F5D163",
"o.	c #F9CA2B",
"p.	c #F7CC49",
"q.	c #F8CD3C",
"r.	c #F3C874",
"s.	c #EABAA2",
"t.	c #F78250",
"u.	c #F3936D",
"v.	c #F2A275",
"w.	c #E8D3AA",
"x.	c #C0BFBD",
"y.	c #A17469",
"z.	c #F4AF9C",
"A.	c #F2AE9B",
"B.	c #FEB6A2",
"C.	c #FBB5A2",
"D.	c #A88170",
"E.	c #F2CC5A",
"F.	c #F6BF57",
"G.	c #F88642",
"H.	c #F7904C",
"I.	c #F39B6E",
"J.	c #F19F7B",
"K.	c #E9C2AA",
"L.	c #E2D2C3",
"M.	c #E5D4B9",
"N.	c #E4D6BC",
"O.	c #E1D8C5",
"P.	c #DED9CD",
"Q.	c #EBD5A3",
"R.	c #DCD9D4",
"S.	c #D8D8D8",
"T.	c #D3D3D3",
"U.	c #DAD9D7",
"V.	c #C3C3C3",
"W.	c #856157",
"X.	c #EFAD9A",
"Y.	c #F7B3A0",
"Z.	c #F3AF9D",
"`.	c #F1B09F",
" +	c #F1AB99",
".+	c #95574E",
"++	c #DCA27A",
"@+	c #F49460",
"#+	c #F5B65F",
"$+	c #F4CC6B",
"%+	c #E7D4B2",
"&+	c #F0D38A",
"*+	c #ECD49E",
"=+	c #E9D5A7",
"-+	c #E8D5AC",
";+	c #E6D6B3",
">+	c #E5D7B7",
",+	c #F2D27B",
"'+	c #E9D6A9",
")+	c #B7A9A6",
"!+	c #E0ADA0",
"~+	c #D1B4AD",
"{+	c #CCCCCC",
"]+	c #C5C4C5",
"^+	c #79584F",
"/+	c #FBB4A1",
"(+	c #F5AF9D",
"_+	c #F8B29F",
":+	c #FCB5A2",
"<+	c #D39282",
"[+	c #893630",
"}+	c #810300",
"|+	c #9D4C3B",
"1+	c #DDBA87",
"2+	c #EAD29D",
"3+	c #F6D058",
"4+	c #EED490",
"5+	c #EAD59F",
"6+	c #EFD389",
"7+	c #F7D049",
"8+	c #F3D16E",
"9+	c #E8D5A9",
"0+	c #F6D055",
"a+	c #EBD59F",
"b+	c #E0D9CA",
"c+	c #E5D6B8",
"d+	c #E8D6AD",
"e+	c #E0D8C8",
"f+	c #E3A495",
"g+	c #F4AF9D",
"h+	c #FEB6A3",
"i+	c #E9B3A5",
"j+	c #97908F",
"k+	c #460F0C",
"l+	c #B57669",
"m+	c #D69484",
"n+	c #E6A190",
"o+	c #D59382",
"p+	c #BD7B6E",
"q+	c #8A3C35",
"r+	c #7C0101",
"s+	c #740303",
"t+	c #7B0101",
"u+	c #A37B6A",
"v+	c #F1CE67",
"w+	c #F4D164",
"x+	c #F5D160",
"y+	c #EED391",
"z+	c #EED38F",
"A+	c #DFD9CA",
"B+	c #F2D27E",
"C+	c #E0D8CA",
"D+	c #BFBDBD",
"E+	c #EEAB9A",
"F+	c #F2AE9C",
"G+	c #B87A6E",
"H+	c #5E0404",
"I+	c #680101",
"J+	c #800100",
"K+	c #800000",
"L+	c #7E0101",
"M+	c #7C0405",
"N+	c #7E0405",
"O+	c #810404",
"P+	c #810100",
"Q+	c #861815",
"R+	c #C4B090",
"S+	c #E9D6AC",
"T+	c #F2D278",
"U+	c #F3D170",
"V+	c #F3D272",
"W+	c #EBD49E",
"X+	c #E7D2A1",
"Y+	c #E8D2A0",
"Z+	c #E8D6AB",
"`+	c #E7D6AF",
" @	c #D7D7D7",
".@	c #B9ADAA",
"+@	c #EFAC9A",
"@@	c #B17063",
"#@	c #7D0303",
"$@	c #770303",
"%@	c #7A0203",
"&@	c #944E38",
"*@	c #EAC763",
"=@	c #F9CF2D",
"-@	c #F8C13E",
";@	c #F5BD5D",
">@	c #F0BA86",
",@	c #EAC7A3",
"'@	c #EBC9A0",
")@	c #F1C67E",
"!@	c #EAD2A4",
"~@	c #E0D1C8",
"{@	c #E1D6C4",
"]@	c #B79F99",
"^@	c #F9B29F",
"/@	c #E8A594",
"(@	c #81211C",
"_@	c #852202",
":@	c #C29122",
"<@	c #DCB968",
"[@	c #E5C5AC",
"}@	c #ECC099",
"|@	c #EAB5A4",
"1@	c #EDA995",
"2@	c #EBAE9D",
"3@	c #F0A286",
"4@	c #F88F41",
"5@	c #F97932",
"6@	c #F3A670",
"7@	c #F1C07C",
"8@	c #DCD8D4",
"9@	c #DDD9D3",
"0@	c #A69F9C",
"a@	c #75423F",
"b@	c #8B3114",
"c@	c #B39B8D",
"d@	c #E8D3A3",
"e@	c #E8D3AC",
"f@	c #DED6CD",
"g@	c #DCD8D3",
"h@	c #DED6CF",
"i@	c #E3CFBD",
"j@	c #E4C5B9",
"k@	c #F19E81",
"l@	c #E1CBC6",
"m@	c #DDD8CD",
"n@	c #BAB8B8",
"o@	c #754D4D",
"p@	c #7E0000",
"q@	c #7C0000",
"r@	c #6E0102",
"s@	c #5A0202",
"t@	c #802622",
"u@	c #C7BBA0",
"v@	c #F8D041",
"w@	c #F5D15D",
"x@	c #EED38D",
"y@	c #E6D6B4",
"z@	c #DCDAD3",
"A@	c #E9D4AB",
"B@	c #DFD9CC",
"C@	c #9D9A9A",
"D@	c #573009",
"E@	c #753A07",
"F@	c #710001",
"G@	c #760001",
"H@	c #700101",
"I@	c #650202",
"J@	c #630202",
"K@	c #640302",
"L@	c #690202",
"M@	c #750100",
"N@	c #6D0404",
"O@	c #220B0C",
"P@	c #8D8D8D",
"Q@	c #F2D274",
"R@	c #E3D7BD",
"S@	c #F5D162",
"T@	c #F3D275",
"U@	c #EED38E",
"V@	c #E3D7BE",
"W@	c #F0D388",
"X@	c #F0D389",
"Y@	c #EED495",
"Z@	c #8F8989",
"`@	c #5F3806",
" #	c #F9D028",
".#	c #BC8E19",
"+#	c #750502",
"@#	c #740302",
"##	c #7D0101",
"$#	c #570808",
"%#	c #0D0D0D",
"&#	c #12132D",
"*#	c #948B8D",
"=#	c #F0D17A",
"-#	c #E4CF99",
";#	c #AAA28F",
">#	c #DDD9D1",
",#	c #E8D6A9",
"'#	c #918B8B",
")#	c #460001",
"!#	c #BA8717",
"~#	c #DAAC21",
"{#	c #800300",
"]#	c #6A0505",
"^#	c #2E0C0C",
"/#	c #0D0D11",
"(#	c #13143D",
"_#	c #443A52",
":#	c #E0C062",
"<#	c #F8CE3A",
"[#	c #F6CF5B",
"}#	c #F7CF4F",
"|#	c #ECD399",
"1#	c #E9D4A9",
"2#	c #EAD2A3",
"3#	c #E1D7C3",
"4#	c #E7D6AE",
"5#	c #A7A3A3",
"6#	c #4B1402",
"7#	c #BF991D",
"8#	c #FBD027",
"9#	c #C18C19",
"0#	c #800001",
"a#	c #800101",
"b#	c #6C0404",
"c#	c #3E0B0A",
"d#	c #101130",
"e#	c #16184E",
"f#	c #171954",
"g#	c #352F54",
"h#	c #D2B366",
"i#	c #F4B047",
"j#	c #EEB089",
"k#	c #F5AA5F",
"l#	c #ECB599",
"m#	c #F0B285",
"n#	c #F3A26E",
"o#	c #F4BF6E",
"p#	c #E0D4CB",
"q#	c #E3D8BE",
"r#	c #CBC5BB",
"s#	c #4A1C1B",
"t#	c #6B4708",
"u#	c #D3A21F",
"v#	c #820B02",
"w#	c #640605",
"x#	c #380B0B",
"y#	c #10112F",
"z#	c #15174B",
"A#	c #2A2C62",
"B#	c #A99A7F",
"C#	c #D4B03A",
"D#	c #D2BE9C",
"E#	c #E4CCBB",
"F#	c #E9B9A8",
"G#	c #F29B76",
"H#	c #DFD3CC",
"I#	c #E9D3A8",
"J#	c #DED9CE",
"K#	c #EDD495",
"L#	c #F1D281",
"M#	c #8E806E",
"N#	c #4C3332",
"O#	c #AA882D",
"P#	c #D6B422",
"Q#	c #9D771A",
"R#	c #47090A",
"S#	c #140D0C",
"T#	c #0E0E1B",
"U#	c #121339",
"V#	c #16184D",
"W#	c #201E4E",
"X#	c #A47436",
"Y#	c #BC9914",
"Z#	c #B78D56",
"`#	c #E4CB92",
" $	c #ECD49A",
".$	c #E6D6B7",
"+$	c #EFD48F",
"@$	c #DDDAD2",
"#$	c #E7D6B1",
"$$	c #ECD49C",
"%$	c #DDD9D2",
"&$	c #DBC89B",
"*$	c #696660",
"=$	c #5E5E5D",
"-$	c #0F0F23",
";$	c #10112C",
">$	c #12133D",
",$	c #151749",
"'$	c #763F1B",
")$	c #BE9303",
"!$	c #82250D",
"~$	c #95695F",
"{$	c #DAD3C4",
"]$	c #E3D8C0",
"^$	c #E2D6BC",
"/$	c #91908F",
"($	c #15164B",
"_$	c #171955",
":$	c #5C0E33",
"<$	c #830A0A",
"[$	c #B4A7A7",
"}$	c #E4D7BA",
"|$	c #E4D4B1",
"1$	c #838181",
"2$	c #14164B",
"3$	c #560F39",
"4$	c #946A6A",
"5$	c #ECD49D",
"6$	c #EDD498",
"7$	c #EED493",
"8$	c #B4B0A9",
"9$	c #1D1F4D",
"0$	c #55103A",
"a$	c #852727",
"b$	c #CBCAC8",
"c$	c #E3D4B3",
"d$	c #4E4551",
"e$	c #15174D",
"f$	c #292955",
"g$	c #686875",
"h$	c #1C1D54",
"i$	c #5A0E33",
"j$	c #6F0101",
"k$	c #810909",
"l$	c #BEB8B8",
"m$	c #DFD8CA",
"n$	c #DCDAD4",
"o$	c #B6B2AD",
"p$	c #71605C",
"q$	c #624040",
"r$	c #770101",
"s$	c #48123E",
"t$	c #1F2059",
"u$	c #9B9AA3",
"v$	c #D4D4D1",
"w$	c #A5A099",
"x$	c #3B3B55",
"y$	c #15174F",
"z$	c #171952",
"A$	c #161850",
"B$	c #413747",
"C$	c #604A44",
"D$	c #9C9897",
"E$	c #928F8F",
"F$	c #6A3A3A",
"G$	c #783A35",
"H$	c #B9B3B1",
"I$	c #E9D6AB",
"J$	c #D8D7D3",
"K$	c #766C6C",
"L$	c #660100",
"M$	c #660A25",
"N$	c #321548",
"O$	c #171A54",
"P$	c #80808D",
"Q$	c #D9D5CC",
"R$	c #D7C59A",
"S$	c #F0D282",
"T$	c #D0C8BA",
"U$	c #9C9A99",
"V$	c #838385",
"W$	c #8F8A85",
"X$	c #E9C75C",
"Y$	c #E7CC88",
"Z$	c #E7D5AF",
"`$	c #B4AFA7",
" %	c #D0CFCB",
".%	c #D8D0C0",
"+%	c #DCD9D2",
"@%	c #E1D8C8",
"#%	c #C6C4C3",
"$%	c #7C4F4F",
"%%	c #6E061A",
"&%	c #5A0E35",
"*%	c #6D5E6D",
"=%	c #DDCA9F",
"-%	c #E4D7B9",
";%	c #E6D6B2",
">%	c #ECD49B",
",%	c #E3D7C1",
"'%	c #E6D6B5",
")%	c #E4D7BE",
"!%	c #EAD5A6",
"~%	c #C6C5C5",
"{%	c #8A6565",
"]%	c #810B03",
"^%	c #B69652",
"/%	c #D5BE83",
"(%	c #DFC06C",
"_%	c #F1D280",
":%	c #F0D385",
"<%	c #E6D6B1",
"[%	c #E8D6AF",
"}%	c #E6D7B2",
"|%	c #F2D27A",
"1%	c #F2D273",
"2%	c #EFD38E",
"3%	c #E1D8C6",
"4%	c #F0D387",
"5%	c #D2D2D2",
"6%	c #A99FA0",
"7%	c #83494A",
"8%	c #820A0A",
"9%	c #926F47",
"0%	c #A88A1F",
"a%	c #C2A862",
"b%	c #E1C681",
"c%	c #F4D16C",
"d%	c #DFD8C9",
"e%	c #DDD9D0",
"f%	c #F1D283",
"g%	c #F7D148",
"h%	c #F0D386",
"i%	c #EED48E",
"j%	c #F6D156",
"k%	c #D0D0D0",
"l%	c #B1AAAB",
"m%	c #A38D8D",
"n%	c #CFCFCF",
"o%	c #C8C7C5",
"p%	c #DAD7D3",
"q%	c #DCD9D3",
"r%	c #E2D8C1",
"          . + @ # $ % & * = - ; > , ' ) ! ~ { ] ^ / ( @ _ : < [ ",
"    } [ | 1 2 3 4 5 6 7 8 9 0 a b ; ! c d e f g h i a j k l j m ",
"  n o p q r s t u v w x y z A B C D E F G H I ! J K [ L M N m [ ",
"  O P Q R S T U V W X Y Z `  ...[ +.@.#.$.%.r &.*.=.) -.;.  ) >.",
"m ,.' '.'.# ).!.~.{.].^./.(._.:.<.[.}.|.1.2.3.4.5.6.7.8.9.0.a.P ",
"M b.c.d.e.f.g.{.h.i.j./././.k.l.m.n.o.p.q.r.s.t.u.v.w.. | 0., P ",
"  M } b.b.x.y.z.A./.B./././.C.D.E.F.G.H.I.J.K.L.M.N._ k O.P.Q.R.",
"  S.T.U.M V.W.X.Y.Z.`./././. +.+++@+#+$+%+&+*+=+-+=+;+>+' ,+'+) ",
"S.)+!+~+{+]+^+/+h.(+_+/.:+<+[+}+|+1+2+3+4+5+6+7+8+9+0+a+b+c+d+e+",
"V.f+g+h+i+j+k+l+m+n+o+p+q+r+s+t+}+u+v+w+x+i y+z+A+Q.D ; D B+l C+",
"D+E+F+/./.G+H+I+J+K+L+M+N+O+P+J+K+Q+R+S+T+U+V+W+;+X+Y+; +.Z+`+[ ",
" @.@+@/./.@@K+#@$@s+%@K+K+K+K+6 K+K+&@*@=@-@;@>@,@'@)@!@~@{@( } ",
"   @]@^@/@(@K+K+K+K+K+K+K+K+K+K+K+K+_@:@<@[@}@|@1@2@3@4@5@6@7@8@",
"9@9@{+0@a@K+K+K+K+K+K+K+K+K+6 K+K+K+K+_@b@c@d@e@f@g@^ h@i@j@k@l@",
"l l } m@n@o@p@K+K+K+K+K+K+q@r@s@6 K+K+K+K+t@u@v@w@x@y@R.z@c+A@! ",
"@ y@B@`+M C@D@E@F@G@H@I@J@K@L@M@K+K+K+K+N@O@P@&.Q@R@S@T@U@V@W@>+",
"V@X@O Y@) Z@`@ #.#+#@#L+K+K+K+K+K+K+##$#%#&#*#=#-#;#O >#,#o a+! ",
"} P | Y@} '#)#!#~#{#K+K+K+K+K+K+K+]#^#/#(#_#:#<#[#}#|#1#2#B+3#m ",
"M >+d.4#j 5#6#7#8#9#0#K+K+K+a#b#c#%#d#e#f#g#h#i#j#k#l#m#n#o#p#  ",
"[ J + q#>.r#s#t# #u#v#K+r+w#x#%#y#z#f#f#f#A#B#C#D#E#F#G#H#I#J#m ",
"M ;+K#z@y@L#M#N#O#P#Q#R#S#T#U#V#f#f#f#f#f#W#X#Y#Z#`# $W@.$+$@$  ",
"[ #$$$} %$&+&$*$=$-$;$>$,$f#f#f#f#f#f#f#f#f#'$)$!$~${$y@q >.| m ",
"m ]$@ n N b.^$/$($_$f#f#f#f#f#f#f#f#f#f#f#f#:$K+K+<$[$} c.>._ N ",
"M }$`+>.>#( |$1$2$f#f#f#f#f#f#f#f#f#f#f#f#f#3$K+K+K+4$ @%$5$q @$",
"M `+6$_ e.7$8$9$f#f#f#f#f#f#_$f#f#f#f#f#f#f#0$K+K+K+a$b$_ D #$}$",
"! q J 2 c$3 d$_$f#f#f#f#f#e$f$g$h$f#f#f#f#f#i$j$j$K+k$l$m$/ n$M ",
"9@P n o$p$q$r$s$f#f#f#f#f#t$u$v$w$x$y$z$A$B$C$D$E$F$G$H$) >.a.m ",
"o I$J$K$L$K+K+J+M$N$O$f#f#P$Q$R$S$T$U$V$W$X$Y$Z$`$ %.%^$+%@%< [ ",
";+y@b+#%$%6 K+K+K+0#%%&%*%=%k -%, P ;%&.O ;+q v@V+>%,%6$W@'%)%M ",
"M n !%>#~%{%k$K+K+K+K+]%^%/%(%_%U@,+,+:%<%[%}%y@|%> Q@1%:%}$2%J#",
"  m 3%4%R.5%6%7%k$K+8%9%0%a%b%c%/ d%e%]$f%b 4+b / g%h%i%j%. : ,%",
"  M D C [     k%l%& m%n%o%p%) q%[     m z@R.%$`+z@r%R.a.J#  N N "};
