/* XPM */
static char * Peter_xpm[] = {
"32 32 423 2",
"  	c #FEFEFE",
". 	c #EDEDED",
"+ 	c #ECECEC",
"@ 	c #FCFCFC",
"# 	c #E7E7E7",
"$ 	c #CDCDCD",
"% 	c #8E8D8D",
"& 	c #79696A",
"* 	c #7B6162",
"= 	c #796060",
"- 	c #776A6A",
"; 	c #807E7E",
"> 	c #A9A9A9",
", 	c #E6E6E6",
"' 	c #C6C6C6",
") 	c #867171",
"! 	c #CEA0A2",
"~ 	c #F4BCBD",
"{ 	c #FBC1C1",
"] 	c #FCC0C0",
"^ 	c #F6BEBE",
"/ 	c #DCAAAB",
"( 	c #AC8588",
"_ 	c #6D6364",
": 	c #BDBDBD",
"< 	c #F6F6F6",
"[ 	c #B2B2B2",
"} 	c #B58F8F",
"| 	c #FAC0C0",
"1 	c #C39898",
"2 	c #706465",
"3 	c #C7C7C6",
"4 	c #E8E7E8",
"5 	c #B1B1B1",
"6 	c #A5A5A5",
"7 	c #876F71",
"8 	c #F4BDBD",
"9 	c #FBC0C1",
"0 	c #F6BDBD",
"a 	c #F8BFBF",
"b 	c #F2BBBD",
"c 	c #9B7B7B",
"d 	c #A3A3A3",
"e 	c #E9E9E9",
"f 	c #E0E0E0",
"g 	c #917B7B",
"h 	c #D3A4A4",
"i 	c #E8B3B3",
"j 	c #C79C9C",
"k 	c #7E6465",
"l 	c #F4BCBC",
"m 	c #BE9597",
"n 	c #775F60",
"o 	c #8B6F70",
"p 	c #816767",
"q 	c #A88484",
"r 	c #F6BDBF",
"s 	c #C0999A",
"t 	c #838282",
"u 	c #EBEBEB",
"v 	c #7D6E6F",
"w 	c #EFBCBD",
"x 	c #E1AFAE",
"y 	c #DDACAC",
"z 	c #D9A9A9",
"A 	c #A78787",
"B 	c #B99395",
"C 	c #F4BEBE",
"D 	c #CA9FA0",
"E 	c #A28180",
"F 	c #F8C0C0",
"G 	c #CCA1A3",
"H 	c #8E7171",
"I 	c #FAC0C1",
"J 	c #939293",
"K 	c #E1E1E1",
"L 	c #6E6868",
"M 	c #A4A2A3",
"N 	c #2D2D2D",
"O 	c #C6C5C5",
"P 	c #CACACA",
"Q 	c #C2C2C2",
"R 	c #6B5456",
"S 	c #A37F80",
"T 	c #574849",
"U 	c #A29290",
"V 	c #917979",
"W 	c #A18686",
"X 	c #BD9494",
"Y 	c #E6B4B4",
"Z 	c #957775",
"` 	c #E1AFB1",
" .	c #DEACAD",
"..	c #D0A1A1",
"+.	c #CB9C9E",
"@.	c #C39796",
"#.	c #BE9292",
"$.	c #B8908F",
"%.	c #72605F",
"&.	c #AFAFAF",
"*.	c #E7E8E8",
"=.	c #A2A0A0",
"-.	c #7B7778",
";.	c #F5F5F5",
">.	c #CCCCCC",
",.	c #DCDDDD",
"'.	c #7F7274",
").	c #8E797A",
"!.	c #8C6F71",
"~.	c #FBC1C0",
"{.	c #8D7172",
"].	c #F2F2F1",
"^.	c #626262",
"/.	c #E3E2E2",
"(.	c #E8E8E8",
"_.	c #BABBB9",
":.	c #554B49",
"<.	c #A88385",
"[.	c #BA9192",
"}.	c #C59A9A",
"|.	c #CEA1A0",
"1.	c #D3A4A6",
"2.	c #B48E91",
"3.	c #876D6E",
"4.	c #DFDFDF",
"5.	c #E4E4E4",
"6.	c #7F7A79",
"7.	c #D9AAAB",
"8.	c #D4A6A6",
"9.	c #898585",
"0.	c #DAD6D4",
"a.	c #7E7271",
"b.	c #F6BFBF",
"c.	c #C59999",
"d.	c #B3B3B3",
"e.	c #FAFAFA",
"f.	c #FDFDFD",
"g.	c #D7D6D6",
"h.	c #966E6E",
"i.	c #F6AFB0",
"j.	c #F7AFB1",
"k.	c #FABFBE",
"l.	c #E7B3B5",
"m.	c #7C7979",
"n.	c #8A8787",
"o.	c #E0AEAE",
"p.	c #EDB6B7",
"q.	c #CA9E9E",
"r.	c #866A6A",
"s.	c #FBC0C0",
"t.	c #C19799",
"u.	c #827273",
"v.	c #827E7E",
"w.	c #7F7979",
"x.	c #997878",
"y.	c #DB5B5A",
"z.	c #E73C3B",
"A.	c #E73C3A",
"B.	c #ED9190",
"C.	c #FCC0BF",
"D.	c #A07D7E",
"E.	c #DBDBDB",
"F.	c #B0B0B0",
"G.	c #C49A9A",
"H.	c #AB8888",
"I.	c #A38281",
"J.	c #CEA2A2",
"K.	c #A17F7F",
"L.	c #EDB7BA",
"M.	c #FAC1C1",
"N.	c #F4BEBF",
"O.	c #BB9494",
"P.	c #D3A7A5",
"Q.	c #F9BABA",
"R.	c #F7AFAF",
"S.	c #FBBCBC",
"T.	c #E2AFB0",
"U.	c #9C9C9C",
"V.	c #776768",
"W.	c #F9C0BF",
"X.	c #BE9395",
"Y.	c #A98789",
"Z.	c #DCACAB",
"`.	c #DEADAD",
" +	c #CA9D9D",
".+	c #E9B6B7",
"++	c #F4BDBE",
"@+	c #E5B1B1",
"#+	c #CFA0A2",
"$+	c #AE8788",
"%+	c #8E7474",
"&+	c #A38081",
"*+	c #D5A6A7",
"=+	c #FAC1C0",
"-+	c #726465",
";+	c #DDDDDD",
">+	c #AD8888",
",+	c #876F70",
"'+	c #574344",
")+	c #9A7A7C",
"!+	c #997B7B",
"~+	c #997A7A",
"{+	c #947374",
"]+	c #997A79",
"^+	c #B0898A",
"/+	c #E7B2B3",
"(+	c #9E7D80",
"_+	c #D4D4D4",
":+	c #BBBBBB",
"<+	c #CB9E9E",
"[+	c #8D6E70",
"}+	c #D3A7A8",
"|+	c #FCC0C1",
"1+	c #BF9494",
"2+	c #CECECE",
"3+	c #D3A5A5",
"4+	c #F5BEBD",
"5+	c #7F6766",
"6+	c #F7BEBE",
"7+	c #CD9F9F",
"8+	c #D2A3A4",
"9+	c #F4BDBC",
"0+	c #A48183",
"a+	c #D5A6A8",
"b+	c #EFB8B8",
"c+	c #C69F9C",
"d+	c #D1A4A4",
"e+	c #B8B8B8",
"f+	c #CBCBCB",
"g+	c #C7999A",
"h+	c #DAAAAC",
"i+	c #7F6565",
"j+	c #B99092",
"k+	c #E6B0B3",
"l+	c #AD898A",
"m+	c #FCC1C0",
"n+	c #886C6E",
"o+	c #C89F9E",
"p+	c #A88384",
"q+	c #F9BFBF",
"r+	c #765D5F",
"s+	c #F3BBBB",
"t+	c #A78786",
"u+	c #846B6A",
"v+	c #B69191",
"w+	c #D8D7D8",
"x+	c #716262",
"y+	c #FABFBF",
"z+	c #8E6F6F",
"A+	c #F0BAB9",
"B+	c #B89093",
"C+	c #A88486",
"D+	c #F1BBBB",
"E+	c #E7B4B3",
"F+	c #9E7D7C",
"G+	c #8E706F",
"H+	c #EEEEED",
"I+	c #B5B5B5",
"J+	c #C59B9D",
"K+	c #745D5C",
"L+	c #F2BCBC",
"M+	c #E7B3B3",
"N+	c #C59B9A",
"O+	c #B28A8B",
"P+	c #D8A7A7",
"Q+	c #E6B3B4",
"R+	c #9C7A7C",
"S+	c #F1BBBA",
"T+	c #876C6B",
"U+	c #DCB0B0",
"V+	c #6D6767",
"W+	c #F9F9F9",
"X+	c #7D7879",
"Y+	c #DDACAD",
"Z+	c #DBACAC",
"`+	c #886B6C",
" @	c #D8A8A8",
".@	c #F5BEBF",
"+@	c #F8C0C1",
"@@	c #C69C9C",
"#@	c #987978",
"$@	c #B48F8F",
"%@	c #D1A1A1",
"&@	c #DFADAE",
"*@	c #8D7170",
"=@	c #A28082",
"-@	c #9F7E7D",
";@	c #866B6A",
">@	c #DEAFAD",
",@	c #C69B9C",
"'@	c #ACACAC",
")@	c #F4F4F4",
"!@	c #868283",
"~@	c #CDA0A1",
"{@	c #EFBABA",
"]@	c #B99091",
"^@	c #8E6F70",
"/@	c #816565",
"(@	c #B78E90",
"_@	c #BF9698",
":@	c #CA9D9E",
"<@	c #BD9495",
"[@	c #866A6B",
"}@	c #F7BEBD",
"|@	c #EFB9BA",
"1@	c #F0B9B8",
"2@	c #F5BEBE",
"3@	c #766768",
"4@	c #A5A4A4",
"5@	c #9E7D7D",
"6@	c #ECB7B7",
"7@	c #EAB7B5",
"8@	c #C89B9A",
"9@	c #BD9290",
"0@	c #D3A3A2",
"a@	c #F8BFC0",
"b@	c #948685",
"c@	c #A42A1B",
"d@	c #803630",
"e@	c #AC8685",
"f@	c #E5B5B2",
"g@	c #F9C1C0",
"h@	c #B99391",
"i@	c #AAA9A9",
"j@	c #AB2612",
"k@	c #F13309",
"l@	c #FD3201",
"m@	c #F93205",
"n@	c #D42D0C",
"o@	c #912210",
"p@	c #7A5655",
"q@	c #A58080",
"r@	c #C5999A",
"s@	c #DCABAA",
"t@	c #EEB7B7",
"u@	c #EBB6B5",
"v@	c #D6A6A5",
"w@	c #D4A5A3",
"x@	c #F1BABB",
"y@	c #9E7E7E",
"z@	c #AFAEAE",
"A@	c #7D2C23",
"B@	c #F93105",
"C@	c #FC3100",
"D@	c #FE3000",
"E@	c #FC3201",
"F@	c #F53308",
"G@	c #DC2F0B",
"H@	c #C32B09",
"I@	c #A8240C",
"J@	c #861F10",
"K@	c #402E2D",
"L@	c #6F4D4C",
"M@	c #972311",
"N@	c #BC290C",
"O@	c #C32909",
"P@	c #B8270C",
"Q@	c #9D240B",
"R@	c #7F4544",
"S@	c #9B7979",
"T@	c #D2A4A7",
"U@	c #AC8B8C",
"V@	c #969292",
"W@	c #E4E4E5",
"X@	c #969090",
"Y@	c #C82E0F",
"Z@	c #F73308",
"`@	c #FD3001",
" #	c #FC3200",
".#	c #FA3103",
"+#	c #F73209",
"@#	c #EC3512",
"##	c #8D200C",
"$#	c #B3270F",
"%#	c #EF3309",
"&#	c #FC3102",
"*#	c #FD3101",
"=#	c #FD3100",
"-#	c #FD3000",
";#	c #FC3101",
">#	c #F83106",
",#	c #D52F0D",
"'#	c #82352F",
")#	c #D5D5D5",
"!#	c #8C7370",
"~#	c #922718",
"{#	c #A6230A",
"]#	c #AB2409",
"^#	c #A92408",
"/#	c #9B220C",
"(#	c #8B4641",
"_#	c #8F7F7E",
":#	c #949191",
"<#	c #B62910",
"[#	c #FA3302",
"}#	c #FA3201",
"|#	c #EC350E",
"1#	c #989090",
"2#	c #F8F8F8",
"3#	c #F3F3F3",
"4#	c #8D2417",
"5#	c #DB300D",
"6#	c #F23308",
"7#	c #F83303",
"8#	c #F93303",
"9#	c #F83403",
"0#	c #F13408",
"a#	c #E2300B",
"b#	c #CB2C0C",
"c#	c #AA260A",
"d#	c #7B4E4B",
"e#	c #D1D1D1",
"f#	c #D7D7D7",
"g#	c #938E8D",
"h#	c #806C6B",
"i#	c #7F6867",
"j#	c #887776",
"k#	c #999596",
"l#	c #A6A4A5",
"m#	c #BFBEBF",
"n#	c #E3E3E3",
"o#	c #FBFBFB",
"p#	c #EEEDEE",
"    . .     . .     . .     . + @   . .     . .     . .     . . ",
"    . .     . .     . # $ % & * = - ; > , @ . .     . .     . . ",
". .     . .     . . ' ) ! ~ { ] ] { ^ / ( _ : < . .     . .     ",
". .     . .     . [ } | ] ] ] ] ] ] ] ] ] ^ 1 2 3 .     . .     ",
"    . .     4 5 6 7 8 ] ] ] ] 9 0 a ] ] ] ] ] b c d e .     . . ",
"    . .   f g h i j k l ] 9 m n o p q r ] ] ] ] { s t e     . . ",
". .     u v w x y z A B C D E F { { G H I ] ] ] ] ] D J u .     ",
". .     K L M N O P Q R S T U V W X Y Z `  ...+.@.#.$.%.&..     ",
"    . *.=.-.;.>.,.'.).!.~.{.].^./.(._.:.<.[.}.|...h 1.2.3.4.. . ",
"    5.6.7.8.9.0.a.l ] b.] c.d.e.f.f.g.h.i.j.k.] ] ] ] ] l.m.+ . ",
". u n.o.] ] p.q.r.{ ] ] ] s.t.u.v.w.x.y.z.A.B.] ] ] ] ] C.D.E.  ",
". F.G.] ] ] ] s.H.I.J.K.L.] ] M.N.O.P.Q.j.R.S.] ] ] ] ] ] T.U.  ",
"e.V.W.] ] ] X.Y.Z.`. +.+++@+#+$+%+&+*+s.] ] ] ] ] ] ] ] ] =+-+u ",
";+>+] ] ] 9 ,+'+)+!+~+{+]+^+q./+| ] ] ] ] ] ] ] ] ] ] ] ] ] (+_+",
":+<+] ] ] I [+}+|+s.] ] ] ] ] ] ] ] ] ] ] ] ] ] ] ] ] ] ] ] 1+2+",
"5 3+] ] ] ] 4+5+6+] ] ] ] ] ] ] ] ] ] ] ] ] ] ] ] ] ] ] ] ] 7+P ",
": 8+] ] ] |+9+0+a+] ] ] ] ] ] ] ] ] ] ] ] ] b+9 ] ] ] ] ] c+d+e+",
"f+g+] ] ] h+i+j+k+] ] ] ] ] ] ] ] ] ] ] ] ] l+s.] ] ] ] m+n+o+:+",
"_+p+] ] q+r+s+] ] ] ] ] ] ] ] ] ] ] ] ] ] ] t+s.] ] ] ] { u+v+w+",
"u x+y+] C z+] ] ] ] W.A+] ] ] |+B+s.] ] ] ] C+D+] ] ] ] E+F+G+H+",
"  I+J+|+| K+L+] ] ] M+N+] ] ] ] O+P+] ] ] ] Q+R+4+] ] S+T+U+V+. ",
"  W+X+Y+] Z+`+ @.@+@@@#@=+C.] ] $@%@] ] ] ] ] &@*@=@-@;@>@,@'@. ",
". . )@!@~@] {@]@^@/@(@_@H :@P+<@[@}@] ] ] ] ] ] ~.|@1@9 2@3@)@  ",
". .   e.4@5@6@] ] ~.] |+7@8@9@0@a@] ] ] ] ] ] ] ] ] ] s.q Q     ",
"    . >.b@c@d@e@f@=+] ] ] ] ] ] ] ] ] ] ] ] ] ] ] s.g@h@&.  . . ",
"    i@j@k@l@m@n@o@p@q@r@s@t@F =+u@v@w@z i | ~.] ] x@y@z@    . . ",
". u A@B@C@D@D@D@E@F@G@H@I@J@K@L@M@N@O@P@Q@R@S@T@U@V@W@  . .     ",
". . X@Y@Z@`@C@C@ #E@.#+#@###$#%#&#*#=#-#;#>#,#'#)#.     . .     ",
"    e [ !#~#{#]#^#/#(#_#:#<#[#;#-#D@D@D@D@C@}#|#1#  . .     . . ",
"    . .   2#K 4.. 3#+ . 4.4#5#6#7#8#9#0#a#b#c#d#e#  . .     . . ",
". .     . .     . .     . f#I+g#h#i#j#k#l#m#n#o#. .     . .     ",
". .     . .     . .     . .     . p#    . .     . .     . .     "};
