/* XPM */
static char * W_xpm[] = {
"32 32 371 2",
"  	c #DADADA",
". 	c #BEBEBE",
"+ 	c #D9D9D9",
"@ 	c #D7D7D7",
"# 	c #A3A3A3",
"$ 	c #CECFCE",
"% 	c #C0C3BE",
"& 	c #A3AAA0",
"* 	c #D1D2D1",
"= 	c #D8D8D8",
"- 	c #ADB3AB",
"; 	c #8B9787",
"> 	c #768670",
", 	c #74856E",
"' 	c #D0D1D0",
") 	c #D8D9D8",
"! 	c #C6C9C6",
"~ 	c #B1B6AF",
"{ 	c #D4D5D4",
"] 	c #798874",
"^ 	c #899584",
"/ 	c #7B8A76",
"( 	c #CACCCA",
"_ 	c #CBCCCB",
": 	c #CDCFCD",
"< 	c #B9BEB8",
"[ 	c #BCBFBB",
"} 	c #546E49",
"| 	c #7E8B7A",
"1 	c #ACB2AA",
"2 	c #7E8A7A",
"3 	c #D6D7D6",
"4 	c #D7D8D7",
"5 	c #9DA59A",
"6 	c #63785B",
"7 	c #7F8E7A",
"8 	c #8B9686",
"9 	c #6F8268",
"0 	c #8A9686",
"a 	c #667B5E",
"b 	c #9CA499",
"c 	c #CCCDCC",
"d 	c #D5D5D5",
"e 	c #A8AAA7",
"f 	c #D4D4D3",
"g 	c #C5C8C4",
"h 	c #AEB3AC",
"i 	c #B0B6AF",
"j 	c #A6ACA3",
"k 	c #D2D3D2",
"l 	c #A2A99F",
"m 	c #526D46",
"n 	c #859182",
"o 	c #556F4B",
"p 	c #778772",
"q 	c #859181",
"r 	c #B4B8B2",
"s 	c #959E92",
"t 	c #ADB2AB",
"u 	c #CDCDCC",
"v 	c #A2AAA0",
"w 	c #798974",
"x 	c #808E7B",
"y 	c #8A9687",
"z 	c #5D7454",
"A 	c #59714F",
"B 	c #788872",
"C 	c #A0AA9E",
"D 	c #849180",
"E 	c #6D7F66",
"F 	c #869382",
"G 	c #70816A",
"H 	c #536E48",
"I 	c #9BA498",
"J 	c #B0B5AF",
"K 	c #ABB1A8",
"L 	c #8F9A8B",
"M 	c #909A8C",
"N 	c #C2C5C1",
"O 	c #939D90",
"P 	c #B5B9B3",
"Q 	c #A0A89D",
"R 	c #9CA498",
"S 	c #416330",
"T 	c #4B693D",
"U 	c #85927F",
"V 	c #889484",
"W 	c #5A7150",
"X 	c #4D6B41",
"Y 	c #546F49",
"Z 	c #697C61",
"` 	c #A3ABA1",
" .	c #7C8A77",
"..	c #D3D3D2",
"+.	c #D3D4D3",
"@.	c #A8AFA6",
"#.	c #74856F",
"$.	c #A6ADA4",
"%.	c #CFD0CF",
"&.	c #CBCCCA",
"*.	c #4D6A41",
"=.	c #879483",
"-.	c #CDCECD",
";.	c #899585",
">.	c #5E7656",
",.	c #49673B",
"'.	c #687D62",
").	c #657A5D",
"!.	c #4C6A40",
"~.	c #59714E",
"{.	c #657A5E",
"].	c #687D61",
"^.	c #979F93",
"/.	c #BDC2BC",
"(.	c #CFD0CE",
"_.	c #9FA79D",
":.	c #7A8974",
"<.	c #8E998A",
"[.	c #CECFCD",
"}.	c #D5D6D5",
"|.	c #84907F",
"1.	c #5D7554",
"2.	c #A9B0A7",
"3.	c #A4AAA1",
"4.	c #758570",
"5.	c #506C44",
"6.	c #416331",
"7.	c #5E7555",
"8.	c #5F7657",
"9.	c #4E6A41",
"0.	c #5C7353",
"a.	c #667B5F",
"b.	c #5F7658",
"c.	c #71826B",
"d.	c #859281",
"e.	c #AAB0A7",
"f.	c #AEB3AB",
"g.	c #BFC2BE",
"h.	c #949E91",
"i.	c #9CA59A",
"j.	c #879383",
"k.	c #D3D4D2",
"l.	c #BABEB9",
"m.	c #49683B",
"n.	c #446534",
"o.	c #516D46",
"p.	c #426331",
"q.	c #5A7250",
"r.	c #456636",
"s.	c #40632F",
"t.	c #3F622E",
"u.	c #436533",
"v.	c #56704B",
"w.	c #456536",
"x.	c #63785C",
"y.	c #58714F",
"z.	c #99A196",
"A.	c #AEB4AD",
"B.	c #D6D6D6",
"C.	c #969F92",
"D.	c #D2D3D1",
"E.	c #C7C9C7",
"F.	c #6C7E65",
"G.	c #486739",
"H.	c #48673A",
"I.	c #406330",
"J.	c #49683C",
"K.	c #436434",
"L.	c #566F4A",
"M.	c #4B693E",
"N.	c #506C45",
"O.	c #57704D",
"P.	c #6E8169",
"Q.	c #667A5E",
"R.	c #C1C4C0",
"S.	c #909A8D",
"T.	c #C3C6C2",
"U.	c #4B693F",
"V.	c #607656",
"W.	c #4B683D",
"X.	c #416431",
"Y.	c #456535",
"Z.	c #3F622D",
"`.	c #466638",
" +	c #899686",
".+	c #A5ABA1",
"++	c #A7AEA5",
"@+	c #909B8D",
"#+	c #9EA69B",
"$+	c #4A673A",
"%+	c #A49D92",
"&+	c #4A683C",
"*+	c #3F632F",
"=+	c #436433",
"-+	c #446535",
";+	c #4A693D",
">+	c #58714E",
",+	c #8B9687",
"'+	c #D2D2D1",
")+	c #4F6944",
"!+	c #B4B6B0",
"~+	c #9A8B7E",
"{+	c #8D9585",
"]+	c #4C693F",
"^+	c #426432",
"/+	c #546F4A",
"(+	c #526C46",
"_+	c #6A7C61",
":+	c #9B9283",
"<+	c #667A5F",
"[+	c #7D8B78",
"}+	c #A0A79C",
"|+	c #4E6B42",
"1+	c #A5ACA2",
"2+	c #C6C8C5",
"3+	c #72836B",
"4+	c #A7ACA3",
"5+	c #6F6942",
"6+	c #979B8E",
"7+	c #6E7F66",
"8+	c #446433",
"9+	c #697C60",
"0+	c #9E8E7E",
"a+	c #A19182",
"b+	c #63795B",
"c+	c #9AA396",
"d+	c #ABB1AA",
"e+	c #617759",
"f+	c #8C9788",
"g+	c #BBB5AF",
"h+	c #96988A",
"i+	c #64795C",
"j+	c #4F6B43",
"k+	c #59724F",
"l+	c #617758",
"m+	c #607251",
"n+	c #8F765B",
"o+	c #A0A69B",
"p+	c #959F91",
"q+	c #CDCECC",
"r+	c #8C9889",
"s+	c #889584",
"t+	c #B6B9B2",
"u+	c #7D8A77",
"v+	c #426330",
"w+	c #5D7453",
"x+	c #848E7F",
"y+	c #5E6E4A",
"z+	c #6D7455",
"A+	c #73846D",
"B+	c #959D91",
"C+	c #939C8F",
"D+	c #8F9A8C",
"E+	c #D6D6D5",
"F+	c #5C7352",
"G+	c #73846C",
"H+	c #55704B",
"I+	c #677B5F",
"J+	c #5C7453",
"K+	c #456537",
"L+	c #64795B",
"M+	c #687B60",
"N+	c #76816B",
"O+	c #5F7352",
"P+	c #8B9586",
"Q+	c #687C61",
"R+	c #8A9586",
"S+	c #798873",
"T+	c #939D8F",
"U+	c #A8AEA6",
"V+	c #82907D",
"W+	c #AAB0A8",
"X+	c #607658",
"Y+	c #7B8A77",
"Z+	c #4A683D",
"`+	c #919B8D",
" @	c #808F7C",
".@	c #75866F",
"+@	c #72846D",
"@@	c #566F4B",
"#@	c #6D7F65",
"$@	c #73846E",
"%@	c #8B9685",
"&@	c #4D6A40",
"*@	c #B0B5AE",
"=@	c #65795D",
"-@	c #C0C2BE",
";@	c #C9CDC9",
">@	c #687C60",
",@	c #7A8A75",
"'@	c #B4BAB3",
")@	c #4F6C43",
"!@	c #6E8167",
"~@	c #7E8C79",
"{@	c #6A7E64",
"]@	c #AFB5AD",
"^@	c #62785A",
"/@	c #8D9889",
"(@	c #C2C5C2",
"_@	c #ABB1A9",
":@	c #939E90",
"<@	c #859280",
"[@	c #808E7A",
"}@	c #687B61",
"|@	c #A5AAA0",
"1@	c #909180",
"2@	c #70826A",
"3@	c #6E8067",
"4@	c #9AA397",
"5@	c #C0C3BF",
"6@	c #CCCDCB",
"7@	c #8D988A",
"8@	c #C9CCC8",
"9@	c #607758",
"0@	c #CACAC8",
"a@	c #C1B9B4",
"b@	c #9E8878",
"c@	c #8D9888",
"d@	c #6A7D63",
"e@	c #556F4A",
"f@	c #98A195",
"g@	c #B8BCB6",
"h@	c #AEB4AC",
"i@	c #6D7F67",
"j@	c #7D8C78",
"k@	c #D3D2D1",
"l@	c #B5A69D",
"m@	c #A18978",
"n@	c #B1B5AE",
"o@	c #B7BBB5",
"p@	c #5B7352",
"q@	c #A4ABA2",
"r@	c #9EA69C",
"s@	c #C9CBC9",
"t@	c #929D8F",
"u@	c #A4AAA2",
"v@	c #D5D5D4",
"w@	c #C6BFBB",
"x@	c #9C7F6B",
"y@	c #A58E7F",
"z@	c #D1D1CF",
"A@	c #C8CAC7",
"B@	c #8A9188",
"C@	c #D7D6D6",
"D@	c #AC9A8E",
"E@	c #9B7E68",
"F@	c #8F6744",
"G@	c #CBC7C5",
"H@	c #B2B2B1",
"I@	c #A2A2A2",
"J@	c #D5D3D2",
"K@	c #A08673",
"L@	c #B6A9A1",
"M@	c #A79284",
"N@	c #A69082",
"O@	c #CBC6C3",
"P@	c #BFB5AF",
"Q@	c #BEB4AE",
"R@	c #C1B8B3",
"S@	c #A99588",
"T@	c #A79182",
"U@	c #9B7D67",
"V@	c #AB978B",
"W@	c #D8D7D6",
"X@	c #D9D8D8",
"Y@	c #D1CECC",
"Z@	c #B9ADA5",
"`@	c #A68F80",
" #	c #AC998D",
".#	c #D8D8D7",
"+#	c #D7D6D5",
"                                                                ",
"                                                                ",
"                    . + @                                       ",
"      #             $ % & *           #   + =                   ",
"                  @ - ; > , '       ) + ' ! ~ {                 ",
"                    @ * ] ^ / ( _ : < [ } | 1 2 3               ",
"            + = = 4   @ 5 6 7 8 9 0 a b c { d e +               ",
"        @ f g h i j k d l m n o p q r s t h h u +               ",
"      d v w x y z A B C D E F G H I x J K 1 L M N @             ",
"    = v H O P / Q R S T U V W X H Y Z `  ...+.@.#.$.%.          ",
"    &.*.=.-.k { ' ;.>.,.'.).!.~.{.S ,.].^./.(._.:.<.} [.        ",
"  }.|.1.2.=   @ 3.).4.o 5.*.6.7.8.9.0.a.S b.c.d.e.f.g.h.{       ",
"  3 i.j.k.  + l.m.n.S o.p.q.r.s.t.u.v.*.w.x.y.z.{ = @ h A.=     ",
"  B.C.8.D.  E.F.G.H.S !.w.I.t.J.K.s.L.M.N.O.P.Q.R.+ + ! S.'     ",
"  + T.g.+ k , p.U.V.W.H.X.Y.t.m Z.t.`.o. +.+++, @+B.  + 3       ",
"    + + = #+s.,.$+%+c.&+w.*+t.=+-+;+>+*.D ,+3.>+J.&.            ",
"        '+{.)+S !+~+{+]+M.n.t.^+/+(+_+:+<+A [+}+|+1+=           ",
"      + 2+q 3+/ 4+5+6+7+z X 8+I.m.9+0+a+b+c+M.d+5.e++.          ",
"      3 O N.d.f+g+h+i+j+k+K.]+<+l+m+n+o+).p+,+Q.w N.q+          ",
"      3 r+s+j.++t+u+Z A -+X.v+w+x+y+z+q.,.A+B+-+C+8 D+E+        ",
"      k F+] G+_.H+I+J+H.K+G+L+M+N+O+P+Q+j+d.r R+S+/.T+3         ",
"      = U+V+W+X+Y+,.Z+8.`+ @.@+@@@#@$@q.%@k+H 7 &@*@{           ",
"      + R.=@-@> ;@>@,@8 `+'@6 )@!@7.S ]+~@j+{@]@^@/@B.          ",
"      + (@7._@k B.:@<@[@}@|@1@I+Z+2@w.3@@+7.4@}.5@H.6@          ",
"        d 7@j.d   8@]+9@0@a@b@c@d@e@A c.q.T+f@3 k Q.g@=         ",
"        = h@i@k   { j@/@k@l@m@n@, c.o@p@#.g.q@@ @ r@s@+         ",
"        + 5@t@u@=   { v@w@x@y@z@[+' + k { @ ~ = E+f++.          ",
"        + A@d.B@=     C@D@E@F@G@H@          =   + A@I@          ",
"          @ - *@=   = J@K@L@M@N@O@+               +             ",
"            = =   = P@Q@R@S@T@U@V@W@                            ",
"                    = = X@Y@Z@`@ #W@                            ",
"                            .#+#W@                              "};
