/* XPM */
static char * X2_xpm[] = {
"32 32 152 2",
"  	c #DADADA",
". 	c #D00000",
"+ 	c #8D1000",
"@ 	c #BEBEBE",
"# 	c #A3A3A3",
"$ 	c #FF9000",
"% 	c #FFD718",
"& 	c #FF9D6A",
"* 	c #C14600",
"= 	c #D4D4D4",
"- 	c #DBDAD7",
"; 	c #E3D9C3",
"> 	c #FE9224",
", 	c #EBD9AA",
"' 	c #FB9B51",
") 	c #DDDAD4",
"! 	c #DCDAD6",
"~ 	c #DBD9D8",
"{ 	c #ECD9A5",
"] 	c #DBDAD8",
"^ 	c #DADAD9",
"/ 	c #FED72D",
"( 	c #EFD89C",
"_ 	c #DEDAD0",
": 	c #DED5D1",
"< 	c #FED72A",
"[ 	c #F1D894",
"} 	c #DCDAD4",
"| 	c #F0D897",
"1 	c #FFD61D",
"2 	c #FFD61F",
"3 	c #FFD61B",
"4 	c #FFD618",
"5 	c #FED738",
"6 	c #DAD9D9",
"7 	c #FAC55B",
"8 	c #FAC061",
"9 	c #FCCB47",
"0 	c #FDC620",
"a 	c #FFC41F",
"b 	c #FFD518",
"c 	c #FDD741",
"d 	c #E9C6BA",
"e 	c #E1CFC8",
"f 	c #E6C7BA",
"g 	c #F6A774",
"h 	c #F6A775",
"i 	c #E49B7F",
"j 	c #D96B1A",
"k 	c #FB9130",
"l 	c #EBC0AA",
"m 	c #F0BBA7",
"n 	c #DFD4D1",
"o 	c #DBD8D7",
"p 	c #EBBFAA",
"q 	c #F4AC82",
"r 	c #F2B390",
"s 	c #E3CDC4",
"t 	c #CE9B93",
"u 	c #C24C17",
"v 	c #EF8426",
"w 	c #F2B08B",
"x 	c #DBD8D6",
"y 	c #DFD3CF",
"z 	c #DCD8D7",
"A 	c #CDCDCD",
"B 	c #DFD3CE",
"C 	c #EDB79E",
"D 	c #E2CDC7",
"E 	c #E2D0CB",
"F 	c #DAD4D2",
"G 	c #CB7055",
"H 	c #FB902F",
"I 	c #F6A879",
"J 	c #DCD6D4",
"K 	c #E0D2CC",
"L 	c #DCD8D6",
"M 	c #DBD9D9",
"N 	c #DDD6D4",
"O 	c #ADADAD",
"P 	c #DED4D1",
"Q 	c #DFD2CE",
"R 	c #F1B594",
"S 	c #E4CBC3",
"T 	c #D6D4D3",
"U 	c #D6A58F",
"V 	c #FC9844",
"W 	c #F7A672",
"X 	c #E2CEC6",
"Y 	c #EDBBA3",
"Z 	c #FA9F5F",
"` 	c #EBBEA8",
" .	c #DED4D0",
"..	c #E1D1CC",
"+.	c #DFD4CF",
"@.	c #E9C7BB",
"#.	c #E7C3B5",
"$.	c #FB922D",
"%.	c #F99E5B",
"&.	c #F9A062",
"*.	c #FE932B",
"=.	c #FC9846",
"-.	c #E2C2B7",
";.	c #DBD0CD",
">.	c #D8C4C0",
",.	c #D8CBC9",
"'.	c #DACFCC",
").	c #DAD6D5",
"!.	c #D9D6D6",
"~.	c #D8CBC7",
"{.	c #DAD8D8",
"].	c #DFD3D0",
"^.	c #DFD4D0",
"/.	c #EEBAA7",
"(.	c #F28E51",
"_.	c #D96F2D",
":.	c #F98F2A",
"<.	c #FB9029",
"[.	c #FD922C",
"}.	c #EEAF8F",
"|.	c #DFCBC4",
"1.	c #DAD6D4",
"2.	c #DBD1CE",
"3.	c #DBD1CD",
"4.	c #D6C9C6",
"5.	c #D9D8D8",
"6.	c #D8D1D0",
"7.	c #D7B6AE",
"8.	c #D9D5D4",
"9.	c #DDD4D1",
"0.	c #D9D6D5",
"a.	c #DCBBB1",
"b.	c #E68044",
"c.	c #CF642D",
"d.	c #D0642D",
"e.	c #D46726",
"f.	c #EE832A",
"g.	c #D15F17",
"h.	c #E09879",
"i.	c #D9CFCD",
"j.	c #D9D7D6",
"k.	c #D7CCCA",
"l.	c #DAD0CE",
"m.	c #D2BBB7",
"n.	c #D6CAC8",
"o.	c #DAD5D3",
"p.	c #DCD1CD",
"q.	c #DBCFCB",
"r.	c #D3B2AB",
"s.	c #D9BBB3",
"t.	c #D19C92",
"u.	c #D2B6B2",
"                                                                ",
"                                  . . . + . .                   ",
"                    @             . . . . . .                   ",
"      #                         . . $ % % % $                   ",
"                                  $ % % & & &                   ",
"                                  % % % & & & * $               ",
"                                  % % % % . * $ $ $             ",
"                            =     % % % % * $ * * $             ",
"                                $ % % % % % . .                 ",
"    $ % % % %                   % % % % % $ . .                 ",
"    % % % % % %               $ % % % % % $ . .         - ;     ",
"  $ % % % % % % $             % % % % % % % % =       > ,   -   ",
"  % % % % % % % %           % % % % % % % % % $ $     $ ' ) ! ~ ",
"  % % % % % % % % $       $ % % % % % % % % $ $ % % $ $ > { ] ^ ",
"  $ % % % % % % % %     % % % % % % % % % % % % % % % % / ( _ : ",
"  $ % % % % % % % % % % % % % % % $ % % % % % % % % % % < [ }   ",
"    % % % % % % % % % % % % % % % % % % % % % % % % % % / |     ",
"    % $ % % % % % % % % % % % % % % % % % % % % % % $ $         ",
"      $ % $ % % % % % % % % % % % % % % % % % % %               ",
"        % % $ % % % % % % % % % % % % % % % % % $               ",
"        $ %   % % % % % % % % % % % % % % % % % $               ",
"          %   $ $ $ $ % % % % % % % % % % % % %                 ",
"                      $ % 1 2 3 4 4 % % % % 5                   ",
"                      6 ~ 7 8 9 0 a b % % c d                   ",
"                    6 e f g h i j k l ~   m n                   ",
"            @       o p q r s t u v w x   y z                   ",
"              A       B C D E F G H I J 6 K L M ~ N ^           ",
"              O     P Q R S ^ T U V W X Y Z ` : o N  .          ",
"                      ..P +.@.  #.$.%.&.*.=.-.;.>.,.'.).        ",
"                    !.~.{.].^./.(._.:.<.[.}.|.1.2.3.4.6         ",
"                  5.6.7.8.9.0.a.b.c.d.e.f.g.h.i.    6           ",
"                    j.k.l.0.m.n.o.p.q.r.s.t.u.6.                "};
