/* XPM */
static char * E2_xpm[] = {
"32 32 12 1",
" 	c #DADADA",
".	c #D00000",
"+	c #8D1000",
"@	c #A3A3A3",
"#	c #FF9000",
"$	c #FFD718",
"%	c #FF9D6A",
"&	c #C14600",
"*	c #BEBEBE",
"=	c #B6B6B6",
"-	c #D4D4D4",
";	c #CDCDCD",
"                                ",
"         ..+...                 ",
"         ......                 ",
"   @     #$$$#..   @            ",
"         %%%$$#                 ",
"       #&%%%$$$      * =        ",
"      ###&.$$$$        =        ",
"      #&&#&$$$$        -        ",
"        ..$$$$$#                ",
"        ..#$$$$$         $$$$#  ",
"  $$ -- ..#$$$$$#       $$$$$$  ",
" $$$#    $$$$$$$$      #$$$$$$# ",
"#$$##  ##$$$$$$$$$     $$$$$$$$ ",
"$$$###$$##$$$$$$$$#   #$$$$$$$$ ",
"#$$$$$$$$$$$$$$$$$$$  $$$$$$$$# ",
" $$$$$$$$$$$$$#$$$$$$$$$$$$$$$# ",
"  $$$$$$$$$$$$$$$$$$$$$$$$$$$$  ",
"    ##$$$$$$$$$$$$$$$$$$$$$$#$  ",
"       $$$$$$$$$$$$$$$$$$$#$#   ",
"       #$$$$$$$$$$$$$$$$$#$$    ",
"       #$$$$$$$$$$$$$$$$$ $#    ",
"        $$$$$$$$$$$$$#### $     ",
"         $$$$$$$$$$$#           ",
"         %$$$$$$$$$             ",
"         %%    #%%&             ",
"      *  %%     &%%             ",
"       ; %%      %%&            ",
"     %%%%%%%%% -= %%%%    @     ",
"     %%%%%       %%%%           ",
"               %%%%%%           ",
"               %% %%%           ",
"                  %%            "};
