/* XPM */
static char * X4_xpm[] = {
"32 32 152 2",
"  	c #DADADA",
". 	c #D00000",
"+ 	c #8D1000",
"@ 	c #BEBEBE",
"# 	c #FF9000",
"$ 	c #FFD718",
"% 	c #A3A3A3",
"& 	c #FF9D6A",
"* 	c #C14600",
"= 	c #D4D4D4",
"- 	c #E3D9C3",
"; 	c #DBDAD7",
"> 	c #EBD9AA",
", 	c #FE9224",
"' 	c #DBD9D8",
") 	c #DCDAD6",
"! 	c #DDDAD4",
"~ 	c #FB9B51",
"{ 	c #DADAD9",
"] 	c #DBDAD8",
"^ 	c #ECD9A5",
"/ 	c #DED5D1",
"( 	c #DEDAD0",
"_ 	c #EFD89C",
": 	c #FED72D",
"< 	c #DCDAD4",
"[ 	c #F1D894",
"} 	c #FED72A",
"| 	c #F0D897",
"1 	c #FED738",
"2 	c #FFD618",
"3 	c #FFD61B",
"4 	c #FFD61F",
"5 	c #FFD61D",
"6 	c #E9C6BA",
"7 	c #FDD741",
"8 	c #FFD518",
"9 	c #FFC41F",
"0 	c #FDC620",
"a 	c #FCCB47",
"b 	c #FAC061",
"c 	c #FAC55B",
"d 	c #DAD9D9",
"e 	c #DFD4D1",
"f 	c #F0BBA7",
"g 	c #EBC0AA",
"h 	c #FB9130",
"i 	c #D96B1A",
"j 	c #E49B7F",
"k 	c #F6A775",
"l 	c #F6A774",
"m 	c #E6C7BA",
"n 	c #E1CFC8",
"o 	c #DCD8D7",
"p 	c #DFD3CF",
"q 	c #DBD8D6",
"r 	c #F2B08B",
"s 	c #EF8426",
"t 	c #C24C17",
"u 	c #CE9B93",
"v 	c #E3CDC4",
"w 	c #F2B390",
"x 	c #F4AC82",
"y 	c #EBBFAA",
"z 	c #DBD8D7",
"A 	c #DDD6D4",
"B 	c #DBD9D9",
"C 	c #DCD8D6",
"D 	c #E0D2CC",
"E 	c #DCD6D4",
"F 	c #F6A879",
"G 	c #FB902F",
"H 	c #CB7055",
"I 	c #DAD4D2",
"J 	c #E2D0CB",
"K 	c #E2CDC7",
"L 	c #EDB79E",
"M 	c #DFD3CE",
"N 	c #CDCDCD",
"O 	c #DED4D0",
"P 	c #EBBEA8",
"Q 	c #FA9F5F",
"R 	c #EDBBA3",
"S 	c #E2CEC6",
"T 	c #F7A672",
"U 	c #FC9844",
"V 	c #D6A58F",
"W 	c #D6D4D3",
"X 	c #E4CBC3",
"Y 	c #F1B594",
"Z 	c #DFD2CE",
"` 	c #DED4D1",
" .	c #ADADAD",
"..	c #DAD6D5",
"+.	c #DACFCC",
"@.	c #D8CBC9",
"#.	c #D8C4C0",
"$.	c #DBD0CD",
"%.	c #E2C2B7",
"&.	c #FC9846",
"*.	c #FE932B",
"=.	c #F9A062",
"-.	c #F99E5B",
";.	c #FB922D",
">.	c #E7C3B5",
",.	c #E9C7BB",
"'.	c #DFD4CF",
").	c #E1D1CC",
"!.	c #D6C9C6",
"~.	c #DBD1CD",
"{.	c #DBD1CE",
"].	c #DAD6D4",
"^.	c #DFCBC4",
"/.	c #EEAF8F",
"(.	c #FD922C",
"_.	c #FB9029",
":.	c #F98F2A",
"<.	c #D96F2D",
"[.	c #F28E51",
"}.	c #EEBAA7",
"|.	c #DFD4D0",
"1.	c #DFD3D0",
"2.	c #DAD8D8",
"3.	c #D8CBC7",
"4.	c #D9D6D6",
"5.	c #D9CFCD",
"6.	c #E09879",
"7.	c #D15F17",
"8.	c #EE832A",
"9.	c #D46726",
"0.	c #D0642D",
"a.	c #CF642D",
"b.	c #E68044",
"c.	c #DCBBB1",
"d.	c #D9D6D5",
"e.	c #DDD4D1",
"f.	c #D9D5D4",
"g.	c #D7B6AE",
"h.	c #D8D1D0",
"i.	c #D9D8D8",
"j.	c #D2B6B2",
"k.	c #D19C92",
"l.	c #D9BBB3",
"m.	c #D3B2AB",
"n.	c #DBCFCB",
"o.	c #DCD1CD",
"p.	c #DAD5D3",
"q.	c #D6CAC8",
"r.	c #D2BBB7",
"s.	c #DAD0CE",
"t.	c #D7CCCA",
"u.	c #D9D7D6",
"                                                                ",
"                  . . + . . .                                   ",
"                  . . . . . .             @                     ",
"                  # $ $ $ # . .                         %       ",
"                  & & & $ $ #                                   ",
"              # * & & & $ $ $                                   ",
"            # # # * . $ $ $ $                                   ",
"            # * * # * $ $ $ $     =                             ",
"                . . $ $ $ $ $ #                                 ",
"                . . # $ $ $ $ $                   $ $ $ $ #     ",
"    - ;         . . # $ $ $ $ $ #               $ $ $ $ $ $     ",
"  ;   > ,       = $ $ $ $ $ $ $ $             # $ $ $ $ $ $ #   ",
"' ) ! ~ #     # # $ $ $ $ $ $ $ $ $           $ $ $ $ $ $ $ $   ",
"{ ] ^ , # # $ $ # # $ $ $ $ $ $ $ $ #       # $ $ $ $ $ $ $ $   ",
"/ ( _ : $ $ $ $ $ $ $ $ $ $ $ $ $ $ $ $     $ $ $ $ $ $ $ $ #   ",
"  < [ } $ $ $ $ $ $ $ $ $ $ # $ $ $ $ $ $ $ $ $ $ $ $ $ $ $ #   ",
"    | : $ $ $ $ $ $ $ $ $ $ $ $ $ $ $ $ $ $ $ $ $ $ $ $ $ $     ",
"        # # $ $ $ $ $ $ $ $ $ $ $ $ $ $ $ $ $ $ $ $ $ $ # $     ",
"              $ $ $ $ $ $ $ $ $ $ $ $ $ $ $ $ $ $ $ # $ #       ",
"              # $ $ $ $ $ $ $ $ $ $ $ $ $ $ $ $ $ # $ $         ",
"              # $ $ $ $ $ $ $ $ $ $ $ $ $ $ $ $ $   $ #         ",
"                $ $ $ $ $ $ $ $ $ $ $ $ $ # # # #   $           ",
"                  1 $ $ $ $ 2 2 3 4 5 $ #                       ",
"                  6 7 $ $ 8 9 0 a b c ' d                       ",
"                  e f   ' g h i j k l m n d                     ",
"                  o p   q r s t u v w x y z       @             ",
"          { A ' B C D d E F G H I J K L M       N               ",
"          O A z / P Q R S T U V W { X Y Z `      .              ",
"        ..+.@.#.$.%.&.*.=.-.;.>.  ,.'.` ).                      ",
"        d !.~.{.].^./.(._.:.<.[.}.|.1.2.3.4.                    ",
"          d     5.6.7.8.9.0.a.b.c.d.e.f.g.h.i.                  ",
"                h.j.k.l.m.n.o.p.q.r.d.s.t.u.                    "};
