/* XPM */
static char * X5_xpm[] = {
"32 32 433 2",
"  	c #DADADA",
". 	c #DADAD9",
"+ 	c #E2DECC",
"@ 	c #E0DDD1",
"# 	c #DBDBD7",
"$ 	c #D6D5D5",
"% 	c #DFDACC",
"& 	c #EDE0A8",
"* 	c #FAEB94",
"= 	c #FBEC94",
"- 	c #F8EB98",
"; 	c #EEE4AD",
"> 	c #E5DEC4",
", 	c #DDDBD5",
"' 	c #DBDBD8",
") 	c #DCDBD7",
"! 	c #D9D9D9",
"~ 	c #DEDBD2",
"{ 	c #F8E895",
"] 	c #FAEE8B",
"^ 	c #F9E68F",
"/ 	c #F9E68E",
"( 	c #FAE991",
"_ 	c #FAEA93",
": 	c #F9EA97",
"< 	c #F0E5B0",
"[ 	c #DDD5AC",
"} 	c #EDE4B8",
"| 	c #EFE5B3",
"1 	c #E6E0C2",
"2 	c #FAEE8E",
"3 	c #EED375",
"4 	c #C2A56D",
"5 	c #D6BC92",
"6 	c #DAAD6A",
"7 	c #D7AF6E",
"8 	c #C2B88F",
"9 	c #DED39E",
"0 	c #F6EA97",
"a 	c #F5E99C",
"b 	c #F6E9A4",
"c 	c #F1E6AC",
"d 	c #F4E8A7",
"e 	c #A3A3A3",
"f 	c #F0E38F",
"g 	c #EFD573",
"h 	c #E6AC56",
"i 	c #DDB788",
"j 	c #E3D3CB",
"k 	c #D4AA77",
"l 	c #D0B19D",
"m 	c #CACCC5",
"n 	c #C9C9C8",
"o 	c #DCDBD6",
"p 	c #DAD8D1",
"q 	c #DBD9D1",
"r 	c #B6B6B6",
"s 	c #DBD8AD",
"t 	c #DEC275",
"u 	c #F09E41",
"v 	c #F5A44A",
"w 	c #F3C384",
"x 	c #E6C7AF",
"y 	c #E3AE73",
"z 	c #DCA36D",
"A 	c #E5B899",
"B 	c #C0B9B5",
"C 	c #E5D8BC",
"D 	c #E4AD71",
"E 	c #FBA842",
"F 	c #FAA93F",
"G 	c #FCA942",
"H 	c #F1A051",
"I 	c #F4A141",
"J 	c #ED9D3D",
"K 	c #DF8C47",
"L 	c #CEA67E",
"M 	c #D4D4D4",
"N 	c #D2D2D2",
"O 	c #D5D5D5",
"P 	c #D4D1CE",
"Q 	c #EBBD8C",
"R 	c #FBAB46",
"S 	c #F9AB4B",
"T 	c #FBA946",
"U 	c #EE9A3E",
"V 	c #FAA63D",
"W 	c #EE9F43",
"X 	c #DA8A35",
"Y 	c #E09B57",
"Z 	c #D7D7D7",
"` 	c #C9C9CB",
" .	c #9093A0",
"..	c #37476B",
"+.	c #84828D",
"@.	c #EFCCA8",
"#.	c #F2AD53",
"$.	c #FBA943",
"%.	c #FFA943",
"&.	c #F8A541",
"*.	c #F9A743",
"=.	c #FDA546",
"-.	c #FDA939",
";.	c #EEB06C",
">.	c #D4D5D5",
",.	c #8E8F98",
"'.	c #324170",
").	c #2D3D6F",
"!.	c #263862",
"~.	c #515775",
"{.	c #E2D1C7",
"].	c #F6CB9A",
"^.	c #F8BE7C",
"/.	c #F8AB4B",
"(.	c #FCA83E",
"_.	c #F8A846",
":.	c #FCA543",
"<.	c #ED9D4B",
"[.	c #987368",
"}.	c #5A607A",
"|.	c #C7C8CB",
"1.	c #C7C7C8",
"2.	c #324273",
"3.	c #293F6F",
"4.	c #2A406E",
"5.	c #25396B",
"6.	c #2D3D6D",
"7.	c #B2B4BE",
"8.	c #E5DBD2",
"9.	c #E3C8B8",
"0.	c #F4BF89",
"a.	c #FAAC48",
"b.	c #EF9E3F",
"c.	c #EB9F44",
"d.	c #CB9C6D",
"e.	c #293762",
"f.	c #273761",
"g.	c #8E90A4",
"h.	c #BBBBC3",
"i.	c #2C4574",
"j.	c #2B3F72",
"k.	c #293C70",
"l.	c #253768",
"m.	c #3B4C6C",
"n.	c #DDDFE5",
"o.	c #F7F1ED",
"p.	c #EBDED4",
"q.	c #EEC093",
"r.	c #E48848",
"s.	c #E2C8A3",
"t.	c #D7CFC8",
"u.	c #293D70",
"v.	c #233864",
"w.	c #394470",
"x.	c #C6C6C8",
"y.	c #D0D1D2",
"z.	c #4C597F",
"A.	c #2E4375",
"B.	c #2C4073",
"C.	c #2B3F71",
"D.	c #283C6E",
"E.	c #2A3965",
"F.	c #614D6C",
"G.	c #6A6475",
"H.	c #DCE6EA",
"I.	c #F4F7F8",
"J.	c #E1CBCD",
"K.	c #C5392B",
"L.	c #DDD9D1",
"M.	c #B6BAC3",
"N.	c #2B3B75",
"O.	c #213561",
"P.	c #33406D",
"Q.	c #A8A9B1",
"R.	c #CACBCE",
"S.	c #2F4476",
"T.	c #2A4074",
"U.	c #2C4072",
"V.	c #2A3A68",
"W.	c #293A66",
"X.	c #2C3A6B",
"Y.	c #393B5C",
"Z.	c #323E68",
"`.	c #828DA3",
" +	c #ECE4E0",
".+	c #E2DBDD",
"++	c #B2544A",
"@+	c #ECDCDD",
"#+	c #87879A",
"$+	c #233A6F",
"%+	c #223463",
"&+	c #414C70",
"*+	c #B4B5BC",
"=+	c #D9D7D6",
"-+	c #CBCCCF",
";+	c #344877",
">+	c #2D4375",
",+	c #2A4072",
"'+	c #2A3A67",
")+	c #263357",
"!+	c #2A3D6A",
"~+	c #263C6E",
"{+	c #24396B",
"]+	c #2F3C6E",
"^+	c #AAAAA6",
"/+	c #EAD5D1",
"(+	c #B83930",
"_+	c #D6BAC5",
":+	c #3C486F",
"<+	c #293565",
"[+	c #26396A",
"}+	c #33436F",
"|+	c #9699A6",
"1+	c #D5D5D6",
"2+	c #D8D9D9",
"3+	c #DBD8D8",
"4+	c #C5C6CA",
"5+	c #535F83",
"6+	c #2A4174",
"7+	c #2A3F73",
"8+	c #2C4070",
"9+	c #253153",
"0+	c #293F72",
"a+	c #293F73",
"b+	c #304576",
"c+	c #B8AFA3",
"d+	c #D3B6A7",
"e+	c #C6573E",
"f+	c #8E3D48",
"g+	c #233A6A",
"h+	c #253E65",
"i+	c #2E3F6D",
"j+	c #7E8295",
"k+	c #CACACC",
"l+	c #D6D6D7",
"m+	c #ABACB8",
"n+	c #324776",
"o+	c #283F73",
"p+	c #28375F",
"q+	c #242F4B",
"r+	c #2A3E70",
"s+	c #284074",
"t+	c #2B4275",
"u+	c #A19398",
"v+	c #BFABAD",
"w+	c #924A50",
"x+	c #4E3354",
"y+	c #2A386C",
"z+	c #27406B",
"A+	c #293D6E",
"B+	c #2C3D6C",
"C+	c #6D748C",
"D+	c #B8B9BE",
"E+	c #D8D8D8",
"F+	c #CFCFD2",
"G+	c #43527C",
"H+	c #3B4975",
"I+	c #3C4A77",
"J+	c #2A3B66",
"K+	c #283D6C",
"L+	c #284073",
"M+	c #2C4275",
"N+	c #2C3E6D",
"O+	c #2E3564",
"P+	c #2C3869",
"Q+	c #2B3E6F",
"R+	c #2A3D70",
"S+	c #2A3E68",
"T+	c #51597A",
"U+	c #B3B4B8",
"V+	c #CBCBCD",
"W+	c #D0D0D0",
"X+	c #D6D6D8",
"Y+	c #666E8C",
"Z+	c #6A708D",
"`+	c #A6A8B3",
" @	c #A2A4AF",
".@	c #606883",
"+@	c #2D406E",
"@@	c #2A3F6D",
"#@	c #314677",
"$@	c #2A4073",
"%@	c #283A6A",
"&@	c #253765",
"*@	c #283E71",
"=@	c #293F68",
"-@	c #565E7E",
";@	c #9195A5",
">@	c #B5B6BD",
",@	c #C9CACD",
"'@	c #C6C8CB",
")@	c #B1B2BB",
"!@	c #404C75",
"~@	c #263B6A",
"{@	c #283966",
"]@	c #2A4071",
"^@	c #2A396C",
"/@	c #2A3E6F",
"(@	c #273E71",
"_@	c #26416D",
":@	c #696F89",
"<@	c #D6D6D6",
"[@	c #969AA8",
"}@	c #4A567C",
"|@	c #999CA9",
"1@	c #565E83",
"2@	c #424F7B",
"3@	c #2B3F73",
"4@	c #293E73",
"5@	c #2B3B6F",
"6@	c #293B6B",
"7@	c #293E71",
"8@	c #274070",
"9@	c #6F748A",
"0@	c #ADB0B8",
"a@	c #2B4077",
"b@	c #3D487A",
"c@	c #2C4075",
"d@	c #2A3F71",
"e@	c #293F71",
"f@	c #283E6F",
"g@	c #243869",
"h@	c #2A3E73",
"i@	c #878A9A",
"j@	c #D4D4D5",
"k@	c #596082",
"l@	c #2C4078",
"m@	c #2A4170",
"n@	c #2B4072",
"o@	c #2A3F72",
"p@	c #283C6D",
"q@	c #2D406F",
"r@	c #636A84",
"s@	c #CACACD",
"t@	c #C4C4C7",
"u@	c #3D4974",
"v@	c #2C3D6E",
"w@	c #2B3F74",
"x@	c #293D71",
"y@	c #384878",
"z@	c #273C6F",
"A@	c #25396A",
"B@	c #273B6C",
"C@	c #4E5879",
"D@	c #B7B8BC",
"E@	c #82879C",
"F@	c #2C4074",
"G@	c #2A3E72",
"H@	c #304376",
"I@	c #3F4D7B",
"J@	c #2D4175",
"K@	c #334472",
"L@	c #2D4172",
"M@	c #868B9C",
"N@	c #84889C",
"O@	c #324476",
"P@	c #636A8A",
"Q@	c #324477",
"R@	c #3A4977",
"S@	c #979AA7",
"T@	c #BEBEBE",
"U@	c #CCCDCF",
"V@	c #3A4A79",
"W@	c #2D4073",
"X@	c #2F4275",
"Y@	c #2E4175",
"Z@	c #354678",
"`@	c #7C8298",
" #	c #2E4276",
".#	c #354777",
"+#	c #2C4071",
"@#	c #9498A6",
"##	c #CDCDCD",
"$#	c #B2B4BB",
"%#	c #2D4075",
"&#	c #2E3F74",
"*#	c #364777",
"=#	c #304276",
"-#	c #888DA0",
";#	c #7A7F96",
">#	c #2E4174",
",#	c #3F4D79",
"'#	c #2B4170",
")#	c #2D4071",
"!#	c #9496A5",
"~#	c #ADADAD",
"{#	c #D5D6D6",
"]#	c #6F768F",
"^#	c #344577",
"/#	c #2B4373",
"(#	c #2B4074",
"_#	c #334676",
":#	c #525C82",
"<#	c #C9C9CD",
"[#	c #636981",
"}#	c #29365E",
"|#	c #434D6D",
"1#	c #2B3762",
"2#	c #263157",
"3#	c #92949B",
"4#	c #D3D3D3",
"5#	c #666870",
"6#	c #384263",
"7#	c #293A5B",
"8#	c #2E3A66",
"9#	c #4F556E",
"0#	c #C0C0C4",
"a#	c #D0D0D1",
"b#	c #606479",
"c#	c #3C4047",
"d#	c #25272A",
"e#	c #2A2C2F",
"f#	c #1F2225",
"g#	c #4E4E4E",
"h#	c #CBCBCB",
"i#	c #2A2E33",
"j#	c #333537",
"k#	c #545455",
"l#	c #C9C9C9",
"m#	c #C1C2C6",
"n#	c #B9B9BA",
"o#	c #797A7A",
"p#	c #636365",
"q#	c #747374",
"r#	c #878687",
"s#	c #C3C3C3",
"t#	c #B0B1B1",
"u#	c #555657",
"v#	c #4B4C4E",
"w#	c #BABABA",
"x#	c #C4C4C4",
"y#	c #BCBCBC",
"z#	c #BFBFBF",
"                          . + @ # .                     $       ",
"                        % & * = - ; > , ' ' ' )         !       ",
"                      ~ { ] = ^ / ( _ : < [ } | @       !       ",
"                      1 2 3 4 5 6 7 8 9 0 a b c d )     e       ",
"                    ) f g h i j k l m n o p q o )               ",
"                r   s t u v w x y z A B                         ",
"                r   C D E F G H I J K L M                       ",
"                N O P Q R S T U V W X Y Z                       ",
"            ! `  ...+.@.#.$.%.&.*.=.-.;.>.                      ",
"          ! ,.'.).!.~.{.].^./.(._.:.<.[.}.|.                    ",
"          1.2.3.4.5.6.7.8.9.0.a.b.c.d.e.f.g.      M M           ",
"          h.i.j.j.k.l.m.n.o.p.q.r.s.t.u.v.w.x.                  ",
"        y.z.A.B.C.D.E.F.G.H.I.J.K.L.M.N.O.P.Q.                  ",
"    M M R.S.T.U.V.W.X.Y.Z.`. +.+++@+#+$+%+&+*+!     =+          ",
"        -+;+>+,+'+)+!+~+{+]+^+/+(+_+:+<+[+}+|+1+2+  3+          ",
"      ! 4+5+6+7+8+9+W.0+a+b+c+d+e+f+g+h+D.i+j+k+                ",
"        l+m+n+o+U.p+q+r+s+t+u+v+w+x+y+z+A+B+C+D+  E+            ",
"          F+G+A.H+I+J+K+L+s+M+N+O+P+Q+R+S+T+U+V+W+              ",
"          X+Y+Z+`+ @.@+@@@#@s+$@%@&@A+*@=@-@M                   ",
"            ;@>@,@'@)@!@~@{@]@a+^@B+/@(@_@:@<@                  ",
"            [@}@|@1@2@3@C.4@s+0+5@6@A+7@8@9@!                   ",
"            0@a@b@c@j.j.j.d@e@e@f@g@D./@h@i@                    ",
"            j@k@l@m@n@B.j.o@$@$@d@p@/@q@r@s@                    ",
"              t@u@v@w@3@u.x@y@c@z@A@B@C@D@                      ",
"                E@F@c@G@3@H@I@J@K@/@L@M@                        ",
"              E+N@c@c@3@J@O@P@Q@R@U.U.S@          T@            ",
"              U@V@c@W@X@Y@Z@`@ #.#C.+#@#        ##              ",
"          e ! $#%#c@&#*#=#-#;#>#,#'#)#!#        ~#              ",
"            {#]#^#/#(#_#:#<#[#}#|#1#2#3#                        ",
"            4#5#6#7#8#9#0#a#b#c#d#e#f#g#h#                      ",
"            ! r i#f#j#k###l#m#n#o#p#q#r#s#                      ",
"              E+t#u#v#w#x#y#z#N O M                             "};
