/* XPM */
static char * X6_xpm[] = {
"32 32 401 2",
"  	c #DADADA",
". 	c #DADAD9",
"+ 	c #E2DECC",
"@ 	c #E0DDD1",
"# 	c #DBDBD7",
"$ 	c #D6D5D5",
"% 	c #DFDACC",
"& 	c #EDE0A8",
"* 	c #FAEB94",
"= 	c #FBEC94",
"- 	c #F8EB98",
"; 	c #EEE4AD",
"> 	c #E5DEC4",
", 	c #DDDBD5",
"' 	c #DBDBD8",
") 	c #DCDBD7",
"! 	c #D9D9D9",
"~ 	c #DEDBD2",
"{ 	c #F8E895",
"] 	c #FAEE8B",
"^ 	c #F9E68F",
"/ 	c #F9E68E",
"( 	c #FAE991",
"_ 	c #FAEA93",
": 	c #F9EA97",
"< 	c #F0E5B0",
"[ 	c #DDD5AC",
"} 	c #EDE4B8",
"| 	c #EFE5B3",
"1 	c #E6E0C2",
"2 	c #FAEE8E",
"3 	c #EED375",
"4 	c #C2A56D",
"5 	c #D6BC92",
"6 	c #DAAD6A",
"7 	c #D7AF6E",
"8 	c #C2B88F",
"9 	c #DED39E",
"0 	c #F6EA97",
"a 	c #F5E99C",
"b 	c #F6E9A4",
"c 	c #F1E6AC",
"d 	c #F4E8A7",
"e 	c #A3A3A3",
"f 	c #F0E38F",
"g 	c #EFD573",
"h 	c #E6AC56",
"i 	c #DDB788",
"j 	c #E3D3CB",
"k 	c #D4AA77",
"l 	c #D0B19D",
"m 	c #CACCC5",
"n 	c #C9C9C8",
"o 	c #DCDBD6",
"p 	c #DAD8D1",
"q 	c #DBD9D1",
"r 	c #B6B6B6",
"s 	c #DBD8AD",
"t 	c #DEC275",
"u 	c #F09E41",
"v 	c #F5A44A",
"w 	c #F3C384",
"x 	c #E6C7AF",
"y 	c #E3AE73",
"z 	c #DCA36D",
"A 	c #E5B899",
"B 	c #C0B9B5",
"C 	c #E5D8BC",
"D 	c #E4AD71",
"E 	c #FBA842",
"F 	c #FAA93F",
"G 	c #FCA942",
"H 	c #F1A051",
"I 	c #F4A141",
"J 	c #ED9D3D",
"K 	c #DF8C47",
"L 	c #CEA67E",
"M 	c #D4D4D4",
"N 	c #D2D2D2",
"O 	c #D5D5D5",
"P 	c #D4D1CE",
"Q 	c #EBBD8C",
"R 	c #FBAB46",
"S 	c #F9AB4B",
"T 	c #FBA946",
"U 	c #EE9A3E",
"V 	c #FAA63D",
"W 	c #EE9F43",
"X 	c #DA8A35",
"Y 	c #E09B57",
"Z 	c #D7D7D7",
"` 	c #C9C9CB",
" .	c #9093A0",
"..	c #37476B",
"+.	c #84828D",
"@.	c #EFCCA8",
"#.	c #F2AD53",
"$.	c #FBA943",
"%.	c #FFA943",
"&.	c #F8A541",
"*.	c #F9A743",
"=.	c #FDA546",
"-.	c #FDA939",
";.	c #EEB06C",
">.	c #D4D5D5",
",.	c #8E8F98",
"'.	c #324170",
").	c #2D3D6F",
"!.	c #263862",
"~.	c #515775",
"{.	c #E2D1C8",
"].	c #F5CC9D",
"^.	c #F8BE7C",
"/.	c #F8AB4B",
"(.	c #FCA83E",
"_.	c #F8A846",
":.	c #FCA543",
"<.	c #ED9D4B",
"[.	c #987368",
"}.	c #5A607A",
"|.	c #C7C8CB",
"1.	c #C7C7C8",
"2.	c #324273",
"3.	c #293F6F",
"4.	c #2A406E",
"5.	c #25396B",
"6.	c #3B4772",
"7.	c #C7C5CB",
"8.	c #E3DBD8",
"9.	c #E3CABC",
"0.	c #F4BF89",
"a.	c #FAAC48",
"b.	c #EF9E3F",
"c.	c #EB9F44",
"d.	c #CB9C6D",
"e.	c #293762",
"f.	c #273761",
"g.	c #8E90A4",
"h.	c #BBBBC3",
"i.	c #2C4574",
"j.	c #293F72",
"k.	c #2B3F72",
"l.	c #565D80",
"m.	c #CFC9CE",
"n.	c #CFC9CD",
"o.	c #EADED5",
"p.	c #EEC093",
"q.	c #E48848",
"r.	c #E2C8A3",
"s.	c #D7CFC8",
"t.	c #293D70",
"u.	c #233864",
"v.	c #394470",
"w.	c #C6C6C8",
"x.	c #D0D1D2",
"y.	c #4C597F",
"z.	c #2E4375",
"A.	c #2C4073",
"B.	c #2B3F71",
"C.	c #2F4070",
"D.	c #8B8A99",
"E.	c #E0D9DB",
"F.	c #F1F3F4",
"G.	c #E1CBCD",
"H.	c #C5392B",
"I.	c #DDD9D1",
"J.	c #B6BAC3",
"K.	c #2B3B75",
"L.	c #213561",
"M.	c #33406D",
"N.	c #A8A9B1",
"O.	c #CACBCE",
"P.	c #2F4476",
"Q.	c #2A4074",
"R.	c #2C4072",
"S.	c #2A3A68",
"T.	c #293A66",
"U.	c #3F4872",
"V.	c #A7A2AA",
"W.	c #E8E0DF",
"X.	c #E2DBDD",
"Y.	c #B2544A",
"Z.	c #ECDCDD",
"`.	c #87879A",
" +	c #233A6F",
".+	c #223463",
"++	c #414C70",
"@+	c #B4B5BC",
"#+	c #D9D7D6",
"$+	c #CBCCCF",
"%+	c #344877",
"&+	c #2D4375",
"*+	c #2A4072",
"=+	c #2A3A67",
"-+	c #263357",
";+	c #2A3D6A",
">+	c #374673",
",+	c #ACABA8",
"'+	c #EAD5D1",
")+	c #B83930",
"!+	c #D6BAC5",
"~+	c #3C486F",
"{+	c #293565",
"]+	c #26396A",
"^+	c #33436F",
"/+	c #9699A6",
"(+	c #D5D5D6",
"_+	c #D8D9D9",
":+	c #DBD8D8",
"<+	c #C5C6CA",
"[+	c #535F83",
"}+	c #2A4174",
"|+	c #2A3F73",
"1+	c #2C4070",
"2+	c #253153",
"3+	c #B8AFA3",
"4+	c #D3B6A7",
"5+	c #C6573E",
"6+	c #8E3D48",
"7+	c #233A6A",
"8+	c #253E65",
"9+	c #283C6E",
"0+	c #2E3F6D",
"a+	c #7E8295",
"b+	c #CACACC",
"c+	c #D6D6D7",
"d+	c #ABACB8",
"e+	c #324776",
"f+	c #283F73",
"g+	c #28375F",
"h+	c #242F4B",
"i+	c #2A3E70",
"j+	c #A19398",
"k+	c #BFABAD",
"l+	c #924A50",
"m+	c #4E3354",
"n+	c #2A386C",
"o+	c #27406B",
"p+	c #293D6E",
"q+	c #2C3D6C",
"r+	c #6D748C",
"s+	c #B8B9BE",
"t+	c #D8D8D8",
"u+	c #CFCFD2",
"v+	c #43527C",
"w+	c #3B4975",
"x+	c #3C4A77",
"y+	c #2A3B66",
"z+	c #283D6C",
"A+	c #2C4275",
"B+	c #2C3E6D",
"C+	c #2E3564",
"D+	c #2C3869",
"E+	c #2B3E6F",
"F+	c #2A3D70",
"G+	c #2A3E68",
"H+	c #51597A",
"I+	c #B3B4B8",
"J+	c #CBCBCD",
"K+	c #D0D0D0",
"L+	c #D6D6D8",
"M+	c #666E8C",
"N+	c #6A708D",
"O+	c #A6A8B3",
"P+	c #A2A4AF",
"Q+	c #606883",
"R+	c #2D406E",
"S+	c #284074",
"T+	c #2A4073",
"U+	c #283A6A",
"V+	c #253765",
"W+	c #283E71",
"X+	c #293F68",
"Y+	c #565E7E",
"Z+	c #9397A6",
"`+	c #B5B6BD",
" @	c #C9CACD",
".@	c #C6C8CB",
"+@	c #B1B2BB",
"@@	c #404C75",
"#@	c #2A4071",
"$@	c #293F73",
"%@	c #2A396C",
"&@	c #2A3E6F",
"*@	c #273E71",
"=@	c #26416D",
"-@	c #696F89",
";@	c #D6D6D6",
">@	c #B1B3BB",
",@	c #545E80",
"'@	c #999CA9",
")@	c #565E83",
"!@	c #424F7B",
"~@	c #2B3F73",
"{@	c #2B3B6F",
"]@	c #293B6B",
"^@	c #293E71",
"/@	c #274070",
"(@	c #6F748A",
"_@	c #C4C5C9",
":@	c #82879D",
"<@	c #424C7C",
"[@	c #2C4075",
"}@	c #293F71",
"|@	c #283E6F",
"1@	c #243869",
"2@	c #2A3E73",
"3@	c #878A9A",
"4@	c #D4D4D5",
"5@	c #555F86",
"6@	c #2A4170",
"7@	c #2B4072",
"8@	c #2A3F72",
"9@	c #2A3F71",
"0@	c #283C6D",
"a@	c #2D406F",
"b@	c #636A84",
"c@	c #CACACD",
"d@	c #575F80",
"e@	c #324372",
"f@	c #293D71",
"g@	c #374778",
"h@	c #273C6F",
"i@	c #25396A",
"j@	c #2D3F6E",
"k@	c #57607E",
"l@	c #B7B8BC",
"m@	c #B5B7BF",
"n@	c #8B8EA1",
"o@	c #2A3E72",
"p@	c #2D4275",
"q@	c #2D4173",
"r@	c #2F4270",
"s@	c #71778F",
"t@	c #BBBCC2",
"u@	c #D1D1D3",
"v@	c #C4C4C9",
"w@	c #4A567E",
"x@	c #2E4272",
"y@	c #2B4172",
"z@	c #2F4273",
"A@	c #45527A",
"B@	c #C8C8CC",
"C@	c #D8D8D9",
"D@	c #BEBEBE",
"E@	c #ABADB2",
"F@	c #8A8B90",
"G@	c #9B9FAB",
"H@	c #646C89",
"I@	c #48547C",
"J@	c #2C4172",
"K@	c #555F82",
"L@	c #D3D3D4",
"M@	c #D7D8D8",
"N@	c #CDCDCD",
"O@	c #C1C1C1",
"P@	c #525458",
"Q@	c #91949E",
"R@	c #A8AAB4",
"S@	c #304373",
"T@	c #324473",
"U@	c #4A5777",
"V@	c #C7C7CB",
"W@	c #B0B0B0",
"X@	c #8C8D90",
"Y@	c #7D7E81",
"Z@	c #BEBFC3",
"`@	c #43507A",
" #	c #354774",
".#	c #293E6F",
"+#	c #2D3A5B",
"@#	c #31353C",
"##	c #959698",
"$#	c #CECECF",
"%#	c #C8C9CA",
"&#	c #AAAAAB",
"*#	c #B5B6B8",
"=#	c #595F7B",
"-#	c #34446E",
";#	c #29344C",
">#	c #21262F",
",#	c #232629",
"'#	c #383A3B",
")#	c #C9C9C9",
"!#	c #D3D3D3",
"~#	c #9A9A9A",
"{#	c #727273",
"]#	c #2B2E33",
"^#	c #202326",
"/#	c #222528",
"(#	c #272A2D",
"_#	c #7C7C7D",
":#	c #C6C7C7",
"<#	c #CACACA",
"[#	c #C9C9CA",
"}#	c #ACADAD",
"|#	c #8A8A8A",
"1#	c #5C5D5D",
"2#	c #535455",
"3#	c #9A9A9B",
"4#	c #BCBCBC",
"                          . + @ # .                     $       ",
"                        % & * = - ; > , ' ' ' )         !       ",
"                      ~ { ] = ^ / ( _ : < [ } | @       !       ",
"                      1 2 3 4 5 6 7 8 9 0 a b c d )     e       ",
"                    ) f g h i j k l m n o p q o )               ",
"                r   s t u v w x y z A B                         ",
"                r   C D E F G H I J K L M                       ",
"                N O P Q R S T U V W X Y Z                       ",
"            ! `  ...+.@.#.$.%.&.*.=.-.;.>.                      ",
"          ! ,.'.).!.~.{.].^./.(._.:.<.[.}.|.                    ",
"          1.2.3.4.5.6.7.8.9.0.a.b.c.d.e.f.g.      M M           ",
"          h.i.j.j.k.k.l.m.n.o.p.q.r.s.t.u.v.w.                  ",
"        x.y.z.j.j.A.B.C.D.E.F.G.H.I.J.K.L.M.N.                  ",
"    M M O.P.Q.j.j.R.S.T.U.V.W.X.Y.Z.`. +.+++@+!     #+          ",
"        $+%+&+j.j.*+=+-+;+>+,+'+)+!+~+{+]+^+/+(+_+  :+          ",
"      ! <+[+}+j.j.|+1+2+T.j.3+4+5+6+7+8+9+0+a+b+                ",
"        c+d+e+j.j.f+R.g+h+i+j+k+l+m+n+o+p+q+r+s+  t+            ",
"          u+v+j.j.z.w+x+y+z+A+B+C+D+E+F+G+H+I+J+K+              ",
"          L+M+j.j.N+O+P+Q+R+S+T+U+V+p+W+X+Y+M                   ",
"            Z+j.j.`+ @.@+@@@#@$@%@q+&@*@=@-@;@                  ",
"            >@j.j.,@'@)@!@~@S+j.{@]@p+^@/@(@!                   ",
"            _@j.j.:@<@[@k.k.}@}@|@1@9+&@2@3@                    ",
"            c+4@5@6@7@A.k.8@T+T+9@0@&@a@b@c@                    ",
"              (+d@e@|+~@t.f@g@[@h@i@j@k@l@                      ",
"                m@n@7@o@~@p@q@*+e@r@s@t@                        ",
"              t+u@v@w@x@q@7@y@9@z@A@B@C@          D@            ",
"              ;@E@F@G@H@I@7@J@}@J@K@L@M@        N@              ",
"          ;@  L@O@P@Q@R@I@J@S@}@T@U@V@          W@              ",
"              ! L@X@Y@Z@`@ ##@.#+#@###! !                       ",
"            t+$#  %#&#;@*#=#-#;#>#,#'#)#M                       ",
"            ! M O t+!#N ~#{#]#^#/#(#_#! M                       ",
"              t+:#<#[#K+}#|#1#2#3#4#                            "};
