/* XPM */
static char * X7_xpm[] = {
"32 32 433 2",
"  	c #DADADA",
". 	c #D6D5D5",
"+ 	c #DADAD9",
"@ 	c #DBDBD7",
"# 	c #E0DDD1",
"$ 	c #E2DECC",
"% 	c #D9D9D9",
"& 	c #DCDBD7",
"* 	c #DBDBD8",
"= 	c #DDDBD5",
"- 	c #E5DEC4",
"; 	c #EEE4AD",
"> 	c #F8EB98",
", 	c #FBEC94",
"' 	c #FAEB94",
") 	c #EDE0A8",
"! 	c #DFDACC",
"~ 	c #EFE5B3",
"{ 	c #EDE4B8",
"] 	c #DDD5AC",
"^ 	c #F0E5B0",
"/ 	c #F9EA97",
"( 	c #FAEA93",
"_ 	c #FAE991",
": 	c #F9E68E",
"< 	c #F9E68F",
"[ 	c #FAEE8B",
"} 	c #F8E895",
"| 	c #DEDBD2",
"1 	c #A3A3A3",
"2 	c #F4E8A7",
"3 	c #F1E6AC",
"4 	c #F6E9A4",
"5 	c #F5E99C",
"6 	c #F6EA97",
"7 	c #DED39E",
"8 	c #C2B88F",
"9 	c #D7AF6E",
"0 	c #DAAD6A",
"a 	c #D6BC92",
"b 	c #C2A56D",
"c 	c #EED375",
"d 	c #FAEE8E",
"e 	c #E6E0C2",
"f 	c #DCDBD6",
"g 	c #DBD9D1",
"h 	c #DAD8D1",
"i 	c #C9C9C8",
"j 	c #CACCC5",
"k 	c #D0B19D",
"l 	c #D4AA77",
"m 	c #E3D3CB",
"n 	c #DDB788",
"o 	c #E6AC56",
"p 	c #EFD573",
"q 	c #F0E38F",
"r 	c #C0B9B5",
"s 	c #E5B899",
"t 	c #DCA36D",
"u 	c #E3AE73",
"v 	c #E6C7AF",
"w 	c #F3C384",
"x 	c #F5A44A",
"y 	c #F09E41",
"z 	c #DEC275",
"A 	c #DBD8AD",
"B 	c #B6B6B6",
"C 	c #D4D4D4",
"D 	c #CEA67E",
"E 	c #DF8C47",
"F 	c #ED9D3D",
"G 	c #F4A141",
"H 	c #F1A051",
"I 	c #FCA942",
"J 	c #FAA93F",
"K 	c #FBA842",
"L 	c #E4AD71",
"M 	c #E5D8BC",
"N 	c #D7D7D7",
"O 	c #E09B57",
"P 	c #DA8A35",
"Q 	c #EE9F43",
"R 	c #FAA63D",
"S 	c #EE9A3E",
"T 	c #FBA946",
"U 	c #F9AB4B",
"V 	c #FBAB46",
"W 	c #EBBD8C",
"X 	c #D4D1CE",
"Y 	c #D5D5D5",
"Z 	c #D2D2D2",
"` 	c #D4D5D5",
" .	c #EEB06C",
"..	c #FDA939",
"+.	c #FDA546",
"@.	c #F9A743",
"#.	c #F8A541",
"$.	c #FFA943",
"%.	c #FBA943",
"&.	c #F2AD53",
"*.	c #EFCCA8",
"=.	c #84828D",
"-.	c #37476B",
";.	c #9093A0",
">.	c #C9C9CB",
",.	c #C7C8CB",
"'.	c #5A607A",
").	c #987368",
"!.	c #ED9D4B",
"~.	c #FCA543",
"{.	c #F8A846",
"].	c #FCA83E",
"^.	c #F8AB4B",
"/.	c #F8BE7C",
"(.	c #F6CB9A",
"_.	c #E2D1C7",
":.	c #515775",
"<.	c #263862",
"[.	c #2D3D6F",
"}.	c #324170",
"|.	c #8E8F98",
"1.	c #8E90A4",
"2.	c #273761",
"3.	c #293762",
"4.	c #CB9C6D",
"5.	c #EB9F44",
"6.	c #EF9E3F",
"7.	c #FAAC48",
"8.	c #F4BF89",
"9.	c #E3C8B8",
"0.	c #E5DBD2",
"a.	c #B2B4BE",
"b.	c #2D3D6D",
"c.	c #25396B",
"d.	c #2A406E",
"e.	c #293F6F",
"f.	c #324273",
"g.	c #C7C7C8",
"h.	c #C6C6C8",
"i.	c #394470",
"j.	c #233864",
"k.	c #293D70",
"l.	c #D7CFC8",
"m.	c #E2C8A3",
"n.	c #E48848",
"o.	c #EEC093",
"p.	c #EBDED4",
"q.	c #F7F1ED",
"r.	c #DDDFE5",
"s.	c #3B4C6C",
"t.	c #253768",
"u.	c #293C70",
"v.	c #2B3F72",
"w.	c #2C4574",
"x.	c #BBBBC3",
"y.	c #A8A9B1",
"z.	c #33406D",
"A.	c #213561",
"B.	c #2B3B75",
"C.	c #B6BAC3",
"D.	c #DDD9D1",
"E.	c #C5392B",
"F.	c #E1CBCD",
"G.	c #F4F7F8",
"H.	c #DCE6EA",
"I.	c #6A6475",
"J.	c #614D6C",
"K.	c #2A3965",
"L.	c #283C6E",
"M.	c #2B3F71",
"N.	c #2C4073",
"O.	c #2E4375",
"P.	c #4C597F",
"Q.	c #D0D1D2",
"R.	c #D9D7D6",
"S.	c #B4B5BC",
"T.	c #414C70",
"U.	c #223463",
"V.	c #233A6F",
"W.	c #87879A",
"X.	c #ECDCDD",
"Y.	c #B2544A",
"Z.	c #E2DBDD",
"`.	c #ECE4E0",
" +	c #828DA3",
".+	c #323E68",
"++	c #393B5C",
"@+	c #2C3A6B",
"#+	c #293A66",
"$+	c #2A3A68",
"%+	c #2C4072",
"&+	c #2A4074",
"*+	c #2F4476",
"=+	c #CACBCE",
"-+	c #DBD8D8",
";+	c #D8D9D9",
">+	c #D5D5D6",
",+	c #9699A6",
"'+	c #33436F",
")+	c #26396A",
"!+	c #293565",
"~+	c #3C486F",
"{+	c #D6BAC5",
"]+	c #B83930",
"^+	c #EAD5D1",
"/+	c #AAAAA6",
"(+	c #2F3C6E",
"_+	c #24396B",
":+	c #263C6E",
"<+	c #2A3D6A",
"[+	c #263357",
"}+	c #2A3A67",
"|+	c #2A4072",
"1+	c #2D4375",
"2+	c #344877",
"3+	c #CBCCCF",
"4+	c #CACACC",
"5+	c #7E8295",
"6+	c #2E3F6D",
"7+	c #253E65",
"8+	c #233A6A",
"9+	c #8E3D48",
"0+	c #C6573E",
"a+	c #D3B6A7",
"b+	c #B8AFA3",
"c+	c #304576",
"d+	c #293F73",
"e+	c #293F72",
"f+	c #253153",
"g+	c #2C4070",
"h+	c #2A3F73",
"i+	c #2A4174",
"j+	c #535F83",
"k+	c #C5C6CA",
"l+	c #D8D8D8",
"m+	c #B8B9BE",
"n+	c #6D748C",
"o+	c #2C3D6C",
"p+	c #293D6E",
"q+	c #27406B",
"r+	c #2A386C",
"s+	c #4E3354",
"t+	c #924A50",
"u+	c #BFABAD",
"v+	c #A19398",
"w+	c #2B4275",
"x+	c #284074",
"y+	c #2A3E70",
"z+	c #242F4B",
"A+	c #28375F",
"B+	c #283F73",
"C+	c #324776",
"D+	c #ABACB8",
"E+	c #D6D6D7",
"F+	c #D0D0D0",
"G+	c #CBCBCD",
"H+	c #B3B4B8",
"I+	c #51597A",
"J+	c #2A3E68",
"K+	c #2A3D70",
"L+	c #2B3E6F",
"M+	c #2C3869",
"N+	c #2E3564",
"O+	c #2C3E6D",
"P+	c #2C4275",
"Q+	c #284073",
"R+	c #283D6C",
"S+	c #2A3B66",
"T+	c #3C4A77",
"U+	c #3B4975",
"V+	c #43527C",
"W+	c #CFCFD2",
"X+	c #565E7E",
"Y+	c #293F68",
"Z+	c #283E71",
"`+	c #253765",
" @	c #283A6A",
".@	c #2A4073",
"+@	c #314677",
"@@	c #2A3F6D",
"#@	c #2D406E",
"$@	c #606883",
"%@	c #A2A4AF",
"&@	c #A6A8B3",
"*@	c #6A708D",
"=@	c #666E8C",
"-@	c #D6D6D8",
";@	c #D6D6D6",
">@	c #696F89",
",@	c #26416D",
"'@	c #273E71",
")@	c #2A3E6F",
"!@	c #2A396C",
"~@	c #2A4071",
"{@	c #283966",
"]@	c #263B6A",
"^@	c #404C75",
"/@	c #B1B2BB",
"(@	c #C6C8CB",
"_@	c #C9CACD",
":@	c #B5B6BD",
"<@	c #9195A5",
"[@	c #6F748A",
"}@	c #274070",
"|@	c #293E71",
"1@	c #293B6B",
"2@	c #2B3B6F",
"3@	c #293E73",
"4@	c #2B3F73",
"5@	c #424F7B",
"6@	c #565E83",
"7@	c #999CA9",
"8@	c #4A567C",
"9@	c #969AA8",
"0@	c #878A9A",
"a@	c #2A3E73",
"b@	c #243869",
"c@	c #283E6F",
"d@	c #293F71",
"e@	c #2A3F71",
"f@	c #2C4075",
"g@	c #3D487A",
"h@	c #2B4077",
"i@	c #ADB0B8",
"j@	c #CACACD",
"k@	c #636A84",
"l@	c #2D406F",
"m@	c #283C6D",
"n@	c #2A3F72",
"o@	c #2B4072",
"p@	c #2A4170",
"q@	c #2C4078",
"r@	c #596082",
"s@	c #D4D4D5",
"t@	c #B7B8BC",
"u@	c #4E5879",
"v@	c #273B6C",
"w@	c #25396A",
"x@	c #273C6F",
"y@	c #384878",
"z@	c #293D71",
"A@	c #2B3F74",
"B@	c #2C3D6E",
"C@	c #3D4974",
"D@	c #C4C4C7",
"E@	c #868B9C",
"F@	c #2D4172",
"G@	c #334472",
"H@	c #2D4175",
"I@	c #3F4D7B",
"J@	c #304376",
"K@	c #2A3E72",
"L@	c #2C4074",
"M@	c #82879C",
"N@	c #BEBEBE",
"O@	c #979AA7",
"P@	c #3A4977",
"Q@	c #324477",
"R@	c #636A8A",
"S@	c #324476",
"T@	c #84889C",
"U@	c #CDCDCD",
"V@	c #9498A6",
"W@	c #2C4071",
"X@	c #354777",
"Y@	c #2E4276",
"Z@	c #7C8298",
"`@	c #354678",
" #	c #2E4175",
".#	c #2F4275",
"+#	c #2D4073",
"@#	c #3A4A79",
"##	c #CCCDCF",
"$#	c #ADADAD",
"%#	c #9496A5",
"&#	c #2D4071",
"*#	c #2B4170",
"=#	c #3F4D79",
"-#	c #2E4174",
";#	c #7A7F96",
">#	c #888DA0",
",#	c #304276",
"'#	c #364777",
")#	c #2E3F74",
"!#	c #2D4075",
"~#	c #B2B4BB",
"{#	c #92949B",
"]#	c #263157",
"^#	c #2B3762",
"/#	c #434D6D",
"(#	c #29365E",
"_#	c #636981",
":#	c #C9C9CD",
"<#	c #525C82",
"[#	c #334676",
"}#	c #2B4074",
"|#	c #2B4373",
"1#	c #344577",
"2#	c #6F768F",
"3#	c #D5D6D6",
"4#	c #CBCBCB",
"5#	c #4E4E4E",
"6#	c #1F2225",
"7#	c #2A2C2F",
"8#	c #25272A",
"9#	c #3C4047",
"0#	c #606479",
"a#	c #D0D0D1",
"b#	c #C0C0C4",
"c#	c #4F556E",
"d#	c #2E3A66",
"e#	c #293A5B",
"f#	c #384263",
"g#	c #666870",
"h#	c #D3D3D3",
"i#	c #C3C3C3",
"j#	c #878687",
"k#	c #747374",
"l#	c #636365",
"m#	c #797A7A",
"n#	c #B9B9BA",
"o#	c #C1C2C6",
"p#	c #C9C9C9",
"q#	c #545455",
"r#	c #333537",
"s#	c #2A2E33",
"t#	c #BFBFBF",
"u#	c #BCBCBC",
"v#	c #C4C4C4",
"w#	c #BABABA",
"x#	c #4B4C4E",
"y#	c #555657",
"z#	c #B0B1B1",
"      .                     + @ # $ +                           ",
"      %         & * * * = - ; > , ' ) !                         ",
"      %       # ~ { ] ^ / ( _ : < , [ } |                       ",
"      1     & 2 3 4 5 6 7 8 9 0 a b c d e                       ",
"              & f g h f i j k l m n o p q &                     ",
"                        r s t u v w x y z A   B                 ",
"                      C D E F G H I J K L M   B                 ",
"                      N O P Q R S T U V W X Y Z                 ",
"                      `  ...+.@.#.$.%.&.*.=.-.;.>.%             ",
"                    ,.'.).!.~.{.].^./.(._.:.<.[.}.|.%           ",
"          C C       1.2.3.4.5.6.7.8.9.0.a.b.c.d.e.f.g.          ",
"                  h.i.j.k.l.m.n.o.p.q.r.s.t.u.v.v.w.x.          ",
"                  y.z.A.B.C.D.E.F.G.H.I.J.K.L.M.N.O.P.Q.        ",
"          R.    % S.T.U.V.W.X.Y.Z.`. +.+++@+#+$+%+&+*+=+C C     ",
"          -+  ;+>+,+'+)+!+~+{+]+^+/+(+_+:+<+[+}+|+1+2+3+        ",
"                4+5+6+L.7+8+9+0+a+b+c+d+e+#+f+g+h+i+j+k+%       ",
"            l+  m+n+o+p+q+r+s+t+u+v+w+x+y+z+A+%+B+C+D+E+        ",
"              F+G+H+I+J+K+L+M+N+O+P+x+Q+R+S+T+U+O.V+W+          ",
"                  C X+Y+Z+p+`+ @.@x++@@@#@$@%@&@*@=@-@          ",
"                  ;@>@,@'@)@o+!@d+~@{@]@^@/@(@_@:@<@            ",
"                  % [@}@|@p+1@2@e+x+3@M.4@5@6@7@8@9@            ",
"                    0@a@)@L.b@c@d@d@e@v.v.v.f@g@h@i@            ",
"                    j@k@l@)@m@e@.@.@n@v.N.o@p@q@r@s@            ",
"                      t@u@v@w@x@f@y@z@k.4@A@B@C@D@              ",
"                        E@F@)@G@H@I@J@4@K@f@L@M@                ",
"            N@          O@%+%+P@Q@R@S@H@4@f@f@T@l+              ",
"              U@        V@W@M.X@Y@Z@`@ #.#+#f@@###              ",
"              $#        %#&#*#=#-#;#>#,#'#)#f@!#~#% 1           ",
"                        {#]#^#/#(#_#:#<#[#}#|#1#2#3#            ",
"                      4#5#6#7#8#9#0#a#b#c#d#e#f#g#h#            ",
"                      i#j#k#l#m#n#o#p#U@q#r#6#s#B %             ",
"                            C Y Z t#u#v#w#x#y#z#l+              "};
