/* XPM */
static char * X8_xpm[] = {
"32 32 401 2",
"  	c #DADADA",
". 	c #D6D5D5",
"+ 	c #DADAD9",
"@ 	c #DBDBD7",
"# 	c #E0DDD1",
"$ 	c #E2DECC",
"% 	c #D9D9D9",
"& 	c #DCDBD7",
"* 	c #DBDBD8",
"= 	c #DDDBD5",
"- 	c #E5DEC4",
"; 	c #EEE4AD",
"> 	c #F8EB98",
", 	c #FBEC94",
"' 	c #FAEB94",
") 	c #EDE0A8",
"! 	c #DFDACC",
"~ 	c #EFE5B3",
"{ 	c #EDE4B8",
"] 	c #DDD5AC",
"^ 	c #F0E5B0",
"/ 	c #F9EA97",
"( 	c #FAEA93",
"_ 	c #FAE991",
": 	c #F9E68E",
"< 	c #F9E68F",
"[ 	c #FAEE8B",
"} 	c #F8E895",
"| 	c #DEDBD2",
"1 	c #A3A3A3",
"2 	c #F4E8A7",
"3 	c #F1E6AC",
"4 	c #F6E9A4",
"5 	c #F5E99C",
"6 	c #F6EA97",
"7 	c #DED39E",
"8 	c #C2B88F",
"9 	c #D7AF6E",
"0 	c #DAAD6A",
"a 	c #D6BC92",
"b 	c #C2A56D",
"c 	c #EED375",
"d 	c #FAEE8E",
"e 	c #E6E0C2",
"f 	c #DCDBD6",
"g 	c #DBD9D1",
"h 	c #DAD8D1",
"i 	c #C9C9C8",
"j 	c #CACCC5",
"k 	c #D0B19D",
"l 	c #D4AA77",
"m 	c #E3D3CB",
"n 	c #DDB788",
"o 	c #E6AC56",
"p 	c #EFD573",
"q 	c #F0E38F",
"r 	c #C0B9B5",
"s 	c #E5B899",
"t 	c #DCA36D",
"u 	c #E3AE73",
"v 	c #E6C7AF",
"w 	c #F3C384",
"x 	c #F5A44A",
"y 	c #F09E41",
"z 	c #DEC275",
"A 	c #DBD8AD",
"B 	c #B6B6B6",
"C 	c #D4D4D4",
"D 	c #CEA67E",
"E 	c #DF8C47",
"F 	c #ED9D3D",
"G 	c #F4A141",
"H 	c #F1A051",
"I 	c #FCA942",
"J 	c #FAA93F",
"K 	c #FBA842",
"L 	c #E4AD71",
"M 	c #E5D8BC",
"N 	c #D7D7D7",
"O 	c #E09B57",
"P 	c #DA8A35",
"Q 	c #EE9F43",
"R 	c #FAA63D",
"S 	c #EE9A3E",
"T 	c #FBA946",
"U 	c #F9AB4B",
"V 	c #FBAB46",
"W 	c #EBBD8C",
"X 	c #D4D1CE",
"Y 	c #D5D5D5",
"Z 	c #D2D2D2",
"` 	c #D4D5D5",
" .	c #EEB06C",
"..	c #FDA939",
"+.	c #FDA546",
"@.	c #F9A743",
"#.	c #F8A541",
"$.	c #FFA943",
"%.	c #FBA943",
"&.	c #F2AD53",
"*.	c #EFCCA8",
"=.	c #84828D",
"-.	c #37476B",
";.	c #9093A0",
">.	c #C9C9CB",
",.	c #C7C8CB",
"'.	c #5A607A",
").	c #987368",
"!.	c #ED9D4B",
"~.	c #FCA543",
"{.	c #F8A846",
"].	c #FCA83E",
"^.	c #F8AB4B",
"/.	c #F8BE7C",
"(.	c #F5CC9D",
"_.	c #E2D1C8",
":.	c #515775",
"<.	c #263862",
"[.	c #2D3D6F",
"}.	c #324170",
"|.	c #8E8F98",
"1.	c #8E90A4",
"2.	c #273761",
"3.	c #293762",
"4.	c #CB9C6D",
"5.	c #EB9F44",
"6.	c #EF9E3F",
"7.	c #FAAC48",
"8.	c #F4BF89",
"9.	c #E3CABC",
"0.	c #E3DBD8",
"a.	c #C7C5CB",
"b.	c #3B4772",
"c.	c #25396B",
"d.	c #2A406E",
"e.	c #293F6F",
"f.	c #324273",
"g.	c #C7C7C8",
"h.	c #C6C6C8",
"i.	c #394470",
"j.	c #233864",
"k.	c #293D70",
"l.	c #D7CFC8",
"m.	c #E2C8A3",
"n.	c #E48848",
"o.	c #EEC093",
"p.	c #EADED5",
"q.	c #CFC9CD",
"r.	c #CFC9CE",
"s.	c #565D80",
"t.	c #2B3F72",
"u.	c #293F72",
"v.	c #2C4574",
"w.	c #BBBBC3",
"x.	c #A8A9B1",
"y.	c #33406D",
"z.	c #213561",
"A.	c #2B3B75",
"B.	c #B6BAC3",
"C.	c #DDD9D1",
"D.	c #C5392B",
"E.	c #E1CBCD",
"F.	c #F1F3F4",
"G.	c #E0D9DB",
"H.	c #8B8A99",
"I.	c #2F4070",
"J.	c #2B3F71",
"K.	c #2C4073",
"L.	c #2E4375",
"M.	c #4C597F",
"N.	c #D0D1D2",
"O.	c #D9D7D6",
"P.	c #B4B5BC",
"Q.	c #414C70",
"R.	c #223463",
"S.	c #233A6F",
"T.	c #87879A",
"U.	c #ECDCDD",
"V.	c #B2544A",
"W.	c #E2DBDD",
"X.	c #E8E0DF",
"Y.	c #A7A2AA",
"Z.	c #3F4872",
"`.	c #293A66",
" +	c #2A3A68",
".+	c #2C4072",
"++	c #2A4074",
"@+	c #2F4476",
"#+	c #CACBCE",
"$+	c #DBD8D8",
"%+	c #D8D9D9",
"&+	c #D5D5D6",
"*+	c #9699A6",
"=+	c #33436F",
"-+	c #26396A",
";+	c #293565",
">+	c #3C486F",
",+	c #D6BAC5",
"'+	c #B83930",
")+	c #EAD5D1",
"!+	c #ACABA8",
"~+	c #374673",
"{+	c #2A3D6A",
"]+	c #263357",
"^+	c #2A3A67",
"/+	c #2A4072",
"(+	c #2D4375",
"_+	c #344877",
":+	c #CBCCCF",
"<+	c #CACACC",
"[+	c #7E8295",
"}+	c #2E3F6D",
"|+	c #283C6E",
"1+	c #253E65",
"2+	c #233A6A",
"3+	c #8E3D48",
"4+	c #C6573E",
"5+	c #D3B6A7",
"6+	c #B8AFA3",
"7+	c #253153",
"8+	c #2C4070",
"9+	c #2A3F73",
"0+	c #2A4174",
"a+	c #535F83",
"b+	c #C5C6CA",
"c+	c #D8D8D8",
"d+	c #B8B9BE",
"e+	c #6D748C",
"f+	c #2C3D6C",
"g+	c #293D6E",
"h+	c #27406B",
"i+	c #2A386C",
"j+	c #4E3354",
"k+	c #924A50",
"l+	c #BFABAD",
"m+	c #A19398",
"n+	c #2A3E70",
"o+	c #242F4B",
"p+	c #28375F",
"q+	c #283F73",
"r+	c #324776",
"s+	c #ABACB8",
"t+	c #D6D6D7",
"u+	c #D0D0D0",
"v+	c #CBCBCD",
"w+	c #B3B4B8",
"x+	c #51597A",
"y+	c #2A3E68",
"z+	c #2A3D70",
"A+	c #2B3E6F",
"B+	c #2C3869",
"C+	c #2E3564",
"D+	c #2C3E6D",
"E+	c #2C4275",
"F+	c #283D6C",
"G+	c #2A3B66",
"H+	c #3C4A77",
"I+	c #3B4975",
"J+	c #43527C",
"K+	c #CFCFD2",
"L+	c #565E7E",
"M+	c #293F68",
"N+	c #283E71",
"O+	c #253765",
"P+	c #283A6A",
"Q+	c #2A4073",
"R+	c #284074",
"S+	c #2D406E",
"T+	c #606883",
"U+	c #A2A4AF",
"V+	c #A6A8B3",
"W+	c #6A708D",
"X+	c #666E8C",
"Y+	c #D6D6D8",
"Z+	c #D6D6D6",
"`+	c #696F89",
" @	c #26416D",
".@	c #273E71",
"+@	c #2A3E6F",
"@@	c #2A396C",
"#@	c #293F73",
"$@	c #2A4071",
"%@	c #404C75",
"&@	c #B1B2BB",
"*@	c #C6C8CB",
"=@	c #C9CACD",
"-@	c #B5B6BD",
";@	c #9397A6",
">@	c #6F748A",
",@	c #274070",
"'@	c #293E71",
")@	c #293B6B",
"!@	c #2B3B6F",
"~@	c #2B3F73",
"{@	c #424F7B",
"]@	c #565E83",
"^@	c #999CA9",
"/@	c #545E80",
"(@	c #B1B3BB",
"_@	c #878A9A",
":@	c #2A3E73",
"<@	c #243869",
"[@	c #283E6F",
"}@	c #293F71",
"|@	c #2C4075",
"1@	c #424C7C",
"2@	c #82879D",
"3@	c #C4C5C9",
"4@	c #CACACD",
"5@	c #636A84",
"6@	c #2D406F",
"7@	c #283C6D",
"8@	c #2A3F71",
"9@	c #2A3F72",
"0@	c #2B4072",
"a@	c #2A4170",
"b@	c #555F86",
"c@	c #D4D4D5",
"d@	c #B7B8BC",
"e@	c #57607E",
"f@	c #2D3F6E",
"g@	c #25396A",
"h@	c #273C6F",
"i@	c #374778",
"j@	c #293D71",
"k@	c #324372",
"l@	c #575F80",
"m@	c #BBBCC2",
"n@	c #71778F",
"o@	c #2F4270",
"p@	c #2D4173",
"q@	c #2D4275",
"r@	c #2A3E72",
"s@	c #8B8EA1",
"t@	c #B5B7BF",
"u@	c #BEBEBE",
"v@	c #D8D8D9",
"w@	c #C8C8CC",
"x@	c #45527A",
"y@	c #2F4273",
"z@	c #2B4172",
"A@	c #2E4272",
"B@	c #4A567E",
"C@	c #C4C4C9",
"D@	c #D1D1D3",
"E@	c #CDCDCD",
"F@	c #D7D8D8",
"G@	c #D3D3D4",
"H@	c #555F82",
"I@	c #2C4172",
"J@	c #48547C",
"K@	c #646C89",
"L@	c #9B9FAB",
"M@	c #8A8B90",
"N@	c #ABADB2",
"O@	c #B0B0B0",
"P@	c #C7C7CB",
"Q@	c #4A5777",
"R@	c #324473",
"S@	c #304373",
"T@	c #A8AAB4",
"U@	c #91949E",
"V@	c #525458",
"W@	c #C1C1C1",
"X@	c #959698",
"Y@	c #31353C",
"Z@	c #2D3A5B",
"`@	c #293E6F",
" #	c #354774",
".#	c #43507A",
"+#	c #BEBFC3",
"@#	c #7D7E81",
"##	c #8C8D90",
"$#	c #C9C9C9",
"%#	c #383A3B",
"&#	c #232629",
"*#	c #21262F",
"=#	c #29344C",
"-#	c #34446E",
";#	c #595F7B",
">#	c #B5B6B8",
",#	c #AAAAAB",
"'#	c #C8C9CA",
")#	c #CECECF",
"!#	c #7C7C7D",
"~#	c #272A2D",
"{#	c #222528",
"]#	c #202326",
"^#	c #2B2E33",
"/#	c #727273",
"(#	c #9A9A9A",
"_#	c #D3D3D3",
":#	c #BCBCBC",
"<#	c #9A9A9B",
"[#	c #535455",
"}#	c #5C5D5D",
"|#	c #8A8A8A",
"1#	c #ACADAD",
"2#	c #C9C9CA",
"3#	c #CACACA",
"4#	c #C6C7C7",
"      .                     + @ # $ +                           ",
"      %         & * * * = - ; > , ' ) !                         ",
"      %       # ~ { ] ^ / ( _ : < , [ } |                       ",
"      1     & 2 3 4 5 6 7 8 9 0 a b c d e                       ",
"              & f g h f i j k l m n o p q &                     ",
"                        r s t u v w x y z A   B                 ",
"                      C D E F G H I J K L M   B                 ",
"                      N O P Q R S T U V W X Y Z                 ",
"                      `  ...+.@.#.$.%.&.*.=.-.;.>.%             ",
"                    ,.'.).!.~.{.].^./.(._.:.<.[.}.|.%           ",
"          C C       1.2.3.4.5.6.7.8.9.0.a.b.c.d.e.f.g.          ",
"                  h.i.j.k.l.m.n.o.p.q.r.s.t.t.u.u.v.w.          ",
"                  x.y.z.A.B.C.D.E.F.G.H.I.J.K.u.u.L.M.N.        ",
"          O.    % P.Q.R.S.T.U.V.W.X.Y.Z.`. +.+u.u.++@+#+C C     ",
"          $+  %+&+*+=+-+;+>+,+'+)+!+~+{+]+^+/+u.u.(+_+:+        ",
"                <+[+}+|+1+2+3+4+5+6+u.`.7+8+9+u.u.0+a+b+%       ",
"            c+  d+e+f+g+h+i+j+k+l+m+n+o+p+.+q+u.u.r+s+t+        ",
"              u+v+w+x+y+z+A+B+C+D+E+F+G+H+I+L.u.u.J+K+          ",
"                  C L+M+N+g+O+P+Q+R+S+T+U+V+W+u.u.X+Y+          ",
"                  Z+`+ @.@+@f+@@#@$@%@&@*@=@-@u.u.;@            ",
"                  % >@,@'@g+)@!@u.R+~@{@]@^@/@u.u.(@            ",
"                    _@:@+@|+<@[@}@}@t.t.|@1@2@u.u.3@            ",
"                    4@5@6@+@7@8@Q+Q+9@t.K.0@a@b@c@t+            ",
"                      d@e@f@g@h@|@i@j@k.~@9+k@l@&+              ",
"                        m@n@o@k@/+p@q@~@r@0@s@t@                ",
"            u@          v@w@x@y@8@z@0@p@A@B@C@D@c+              ",
"              E@        F@G@H@I@}@I@0@J@K@L@M@N@Z+              ",
"              O@          P@Q@R@}@S@I@J@T@U@V@W@G@  Z+          ",
"                      % % X@Y@Z@`@$@ #.#+#@###G@%               ",
"                      C $#%#&#*#=#-#;#>#Z+,#'#  )#c+            ",
"                      C % !#~#{#]#^#/#(#Z _#c+Y C %             ",
"                            :#<#[#}#|#1#u+2#3#4#c+              "};
